<!DOCTYPE svg  PUBLIC '-//W3C//DTD SVG 1.1//EN'  'http://www.w3.org/Graphics/SVG/1.1/DTD/svg11.dtd'><svg enable_background="new 0 0 1000 701" height="701px" pretty_print="False" style="stroke-linejoin: round; stroke:#000; fill: none;" version="1.1" viewBox="0 0 1000 701" width="1000px" xmlns="http://www.w3.org/2000/svg" xmlns:xlink="http://www.w3.org/1999/xlink"><defs><style type="text/css"><![CDATA[path { fill-rule: evenodd; }]]></style></defs><metadata><views><view h="701" padding="0" w="1000"><proj flip="auto" id="mercator" lon0="0.0"/><bbox h="15.99" w="22.9" x="-21.22" y="-730.22"/></view></views></metadata><g class="" id="mar"><path d="M0.0,0.0L0.0,699.0L1000.0,699.0L1000.0,0.0L0.0,0.0Z "/></g><g class="" id="bordeprovincia"><path d="M346.7,681.3L346.7,681.2L346.7,681.2L346.7,681.3Z M346.7,680.8L346.6,680.6L346.6,680.6L346.7,680.8Z M346.8,680.5L346.8,680.4L346.7,680.4L346.8,680.5Z M346.6,680.1L346.7,679.9L346.6,680.0L346.6,680.1Z M377.4,611.7L377.5,611.3L377.2,611.5L377.4,611.7Z M516.1,354.6L516.5,354.2L516.4,353.8L516.1,354.6Z M565.5,378.5L565.9,378.2L565.0,377.8L565.5,378.5Z M576.7,378.1L576.5,377.5L576.3,377.7L576.7,378.1Z M579.2,377.9L579.2,377.6L579.1,377.7L579.2,377.9Z M578.7,377.8L578.8,377.5L578.6,377.6L578.7,377.8Z M573.0,376.7L572.9,376.4L572.7,376.6L573.0,376.7Z M568.0,377.3L571.8,376.1L567.1,373.2L563.7,373.9L560.8,372.4L558.6,374.2L562.0,374.1L564.2,376.2L568.0,377.3Z M563.6,373.6L563.7,373.6L563.7,373.4L563.6,373.6Z M556.9,373.6L556.1,372.7L556.2,373.4L556.9,373.6Z M828.1,48.0L828.9,46.8L827.7,45.4L825.5,46.9L828.1,48.0Z M154.0,51.9L154.2,52.3L139.7,71.6L133.8,78.2L120.9,90.6L107.8,102.1L102.0,106.4L93.2,109.4L92.8,109.5L93.4,109.9L102.0,114.4L105.3,115.6L99.5,118.0L99.3,124.5L97.4,144.1L98.3,151.9L97.7,162.2L97.5,177.8L100.3,198.4L100.3,198.7L112.2,199.2L120.0,199.3L121.8,199.9L143.0,206.1L156.3,212.9L172.9,223.3L173.0,223.6L173.7,226.5L176.4,236.7L186.3,253.2L189.3,267.3L189.1,276.7L188.6,286.6L181.5,303.5L174.3,334.0L173.3,341.1L169.3,349.9L168.5,350.8L166.5,355.5L165.4,356.1L161.4,366.4L160.9,367.7L157.9,372.7L157.7,373.1L148.0,387.3L144.9,391.6L137.1,400.0L136.6,401.0L136.7,401.4L138.4,408.9L141.3,422.2L141.5,422.8L141.3,430.8L141.5,440.4L144.3,447.1L146.1,453.7L147.4,461.1L148.7,463.8L155.6,475.3L156.7,476.8L157.0,477.3L159.2,480.8L163.2,482.3L165.1,484.8L165.7,484.6L167.4,487.1L172.0,494.7L178.4,504.7L178.4,506.1L180.4,507.7L186.6,516.4L190.5,522.1L190.8,522.7L192.0,526.1L196.8,537.3L214.8,564.5L223.8,586.2L224.7,588.3L240.7,608.7L273.4,645.3L276.3,646.8L278.0,648.7L278.4,649.2L283.0,655.0L283.9,656.1L285.2,657.5L285.4,657.9L285.9,658.3L287.2,659.8L294.0,665.6L310.3,669.8L314.1,670.5L320.8,677.6L330.0,684.0L335.2,685.1L339.3,685.1L345.7,682.3L345.8,681.9L347.1,663.7L349.8,662.5L352.2,654.2L352.6,647.5L353.5,642.5L353.6,642.3L353.6,642.3L353.9,638.4L354.9,633.2L357.5,631.2L362.1,622.2L365.7,622.5L368.6,618.9L372.0,617.9L373.2,619.9L376.8,620.8L377.9,617.6L376.4,611.3L377.3,604.5L378.4,603.8L379.9,595.1L385.7,590.6L389.5,591.4L389.5,591.4L389.6,591.2L389.8,584.2L390.7,579.7L390.7,576.4L392.8,570.5L395.9,563.7L397.2,562.9L400.3,564.7L398.1,562.2L402.2,558.9L406.1,558.4L408.9,560.7L407.4,560.8L408.1,564.5L402.8,568.8L410.1,559.8L416.1,556.8L419.2,557.4L424.2,550.1L426.1,550.8L427.7,546.7L427.5,545.3L428.7,541.2L427.8,540.6L429.1,537.0L432.5,534.7L429.6,525.7L429.3,509.9L429.8,507.7L431.2,505.8L431.2,505.8L431.0,505.7L430.2,495.7L430.9,481.8L432.1,472.2L434.3,446.5L435.8,436.1L438.5,420.9L439.8,410.1L439.8,410.1L439.9,409.9L440.4,406.6L444.5,393.4L449.2,385.0L449.2,385.0L449.3,384.8L455.9,372.9L456.5,370.9L459.7,364.7L464.2,360.0L471.5,353.4L475.2,351.5L476.7,352.0L485.7,349.5L486.8,349.9L495.8,349.5L497.1,353.1L496.5,349.8L498.5,349.4L501.1,350.1L502.0,351.9L499.2,355.3L501.3,353.5L502.5,351.6L508.0,351.0L511.4,351.1L515.9,352.0L516.9,353.3L518.1,351.5L528.8,348.2L531.9,346.4L535.3,343.1L537.2,340.3L540.0,329.2L540.0,323.0L537.9,317.3L537.9,317.1L537.9,317.1L536.8,310.6L535.6,307.0L534.5,300.0L534.2,295.4L531.1,270.2L531.1,268.0L531.1,268.0L531.1,267.8L530.6,261.5L530.9,246.8L530.7,245.6L532.3,240.1L532.8,234.0L534.4,228.1L538.8,216.3L542.2,211.7L546.6,212.5L547.5,211.9L550.6,215.0L551.7,213.8L548.7,212.2L548.0,209.9L551.8,209.4L553.7,212.1L555.4,210.6L553.3,209.3L557.3,208.3L556.3,204.2L560.1,201.2L561.1,204.3L559.7,205.7L562.0,207.6L553.7,216.4L562.7,207.9L562.6,201.7L565.5,197.0L567.4,196.4L586.7,182.7L589.5,182.0L594.8,184.6L595.9,185.7L596.2,189.2L599.1,190.6L601.6,190.2L603.6,191.7L606.7,191.4L612.6,192.9L619.0,192.6L616.6,188.8L615.1,181.8L615.0,178.5L615.8,164.0L615.8,164.0L615.8,163.8L618.1,146.6L621.3,135.4L624.7,133.0L627.7,132.3L629.1,130.5L628.8,126.9L630.2,119.7L635.2,114.9L634.9,113.6L636.0,111.2L640.0,108.9L639.2,108.5L640.7,104.8L642.9,103.4L643.8,103.9L650.2,100.0L652.2,99.7L651.9,98.5L655.3,98.7L657.2,97.2L657.4,95.4L661.3,94.1L663.2,92.0L665.0,92.2L666.2,89.9L674.3,83.4L681.4,78.2L684.2,76.7L685.2,73.8L697.0,66.3L697.0,66.3L697.2,66.2L707.9,60.4L711.9,60.4L712.3,59.0L716.4,58.3L723.3,54.1L729.3,53.0L736.1,50.1L740.8,50.4L745.3,49.4L754.4,42.3L757.0,41.0L760.4,40.4L762.3,41.6L767.5,37.9L778.0,34.3L780.8,33.6L785.4,34.6L789.1,32.7L790.1,33.8L795.7,33.2L798.4,29.4L799.6,25.3L799.6,25.3L799.7,25.2L800.6,25.4L800.9,25.8L801.8,26.0L801.8,26.0L801.9,26.0L804.4,24.7L804.0,21.2L810.6,15.1L814.9,14.1L819.3,13.7L823.6,13.9L825.3,14.8L824.6,16.0L827.4,16.0L832.4,14.8L840.2,15.6L844.6,17.2L845.6,21.5L847.8,23.0L851.4,24.3L852.1,26.1L854.4,23.2L857.4,21.7L859.8,18.4L863.4,15.2L865.1,14.6L866.5,12.6L868.8,12.6L870.9,8.8L872.9,7.9L876.3,4.1L876.3,4.1L876.4,4.1L877.2,2.1L877.8,0.2L877.8,0.0L155.4,0.0L152.5,12.9L144.8,26.8L149.2,38.5L151.2,47.0L153.5,51.1L154.0,51.9Z "/><path d="M345.7,682.3L339.3,685.1L335.2,685.1L330.0,684.0L320.8,677.6L314.1,670.5L310.3,669.8L294.0,665.6L287.2,659.8L285.9,658.3L285.4,657.9L285.2,657.5L283.9,656.1L283.0,655.0L278.4,649.2L278.0,648.7L276.3,646.8L273.4,645.3L240.7,608.7L224.7,588.3L223.8,586.2L214.8,564.5L196.8,537.3L192.0,526.1L190.8,522.7L190.5,522.1L186.6,516.4L180.4,507.7L178.4,506.1L178.4,504.7L172.0,494.7L167.4,487.1L165.7,484.6L165.1,484.8L163.2,482.3L159.2,480.8L157.0,477.3L156.7,476.8L155.6,475.3L148.7,463.8L147.4,461.1L146.1,453.7L144.3,447.1L141.5,440.4L141.3,430.8L141.5,422.8L141.3,422.2L138.4,408.9L136.7,401.4L136.6,401.0L137.1,400.0L144.9,391.6L148.0,387.3L157.7,373.1L157.9,372.7L160.9,367.7L161.4,366.4L165.4,356.1L166.5,355.5L168.5,350.8L169.3,349.9L173.3,341.1L174.3,334.0L181.5,303.5L188.6,286.6L189.1,276.7L189.3,267.3L186.3,253.2L176.4,236.7L173.7,226.5L173.0,223.6L172.9,223.3L156.3,212.9L143.0,206.1L121.8,199.9L120.0,199.3L112.2,199.2L100.3,198.7L100.3,198.4L97.5,177.8L97.7,162.2L98.3,151.9L97.4,144.1L99.3,124.5L99.5,118.0L105.3,115.6L102.0,114.4L93.4,109.9L92.8,109.5L93.2,109.4L102.0,106.4L107.8,102.1L120.9,90.6L133.8,78.2L139.7,71.6L154.2,52.3L154.0,51.9L153.5,51.1L151.2,47.0L149.2,38.5L144.8,26.8L152.5,12.9L155.4,0.0L0.0,0.0L0.0,699.0L347.9,699.0L346.8,692.9L346.3,690.6L345.7,682.4L345.7,682.3Z M347.2,683.7L346.9,683.1L347.0,683.6L347.2,683.7Z "/></g><g class="" id="bordeccaa"><path d="M346.7,681.3L346.7,681.2L346.7,681.2L346.7,681.3Z M346.7,680.8L346.6,680.6L346.6,680.6L346.7,680.8Z M346.8,680.5L346.8,680.4L346.7,680.4L346.8,680.5Z M346.6,680.1L346.7,679.9L346.6,680.0L346.6,680.1Z M377.4,611.7L377.5,611.3L377.2,611.5L377.4,611.7Z M576.7,378.1L576.5,377.5L576.3,377.7L576.7,378.1Z M579.2,377.9L579.2,377.6L579.1,377.7L579.2,377.9Z M578.7,377.8L578.8,377.5L578.6,377.6L578.7,377.8Z M516.1,354.6L516.5,354.2L516.4,353.8L516.1,354.6Z M565.5,378.5L565.9,378.2L565.0,377.8L565.5,378.5Z M573.0,376.7L572.9,376.4L572.7,376.6L573.0,376.7Z M568.0,377.3L571.8,376.1L567.1,373.2L563.7,373.9L560.8,372.4L558.6,374.2L562.0,374.1L564.2,376.2L568.0,377.3Z M563.6,373.6L563.7,373.6L563.7,373.4L563.6,373.6Z M556.9,373.6L556.1,372.7L556.2,373.4L556.9,373.6Z M828.1,48.0L828.9,46.8L827.7,45.4L825.5,46.9L828.1,48.0Z M154.0,51.9L154.2,52.3L139.7,71.6L133.8,78.2L120.9,90.6L107.8,102.1L102.0,106.4L93.2,109.4L92.8,109.5L93.4,109.9L102.0,114.4L105.3,115.6L99.5,118.0L99.3,124.5L97.4,144.1L98.3,151.9L97.7,162.2L97.5,177.8L100.3,198.4L100.3,198.7L112.2,199.2L120.0,199.3L121.8,199.9L143.0,206.1L156.3,212.9L172.9,223.3L173.0,223.6L173.7,226.5L176.4,236.7L186.3,253.2L189.3,267.3L189.1,276.7L188.6,286.6L181.5,303.5L174.3,334.0L173.3,341.1L169.3,349.9L168.5,350.8L166.5,355.5L165.4,356.1L161.4,366.4L160.9,367.7L157.9,372.7L157.7,373.1L148.0,387.3L144.9,391.6L137.1,400.0L136.6,401.0L136.7,401.4L138.4,408.9L141.3,422.2L141.5,422.8L141.3,430.8L141.5,440.4L144.3,447.1L146.1,453.7L147.4,461.1L148.7,463.8L155.6,475.3L156.7,476.8L157.0,477.3L159.2,480.8L163.2,482.3L165.1,484.8L165.7,484.6L167.4,487.1L172.0,494.7L178.4,504.7L178.4,506.1L180.4,507.7L186.6,516.4L190.5,522.1L190.8,522.7L192.0,526.1L196.8,537.3L214.8,564.5L223.8,586.2L224.7,588.3L240.7,608.7L273.4,645.3L276.3,646.8L278.0,648.7L278.4,649.2L283.0,655.0L283.9,656.1L285.2,657.5L285.4,657.9L285.9,658.3L287.2,659.8L294.0,665.6L310.3,669.8L314.1,670.5L320.8,677.6L330.0,684.0L335.2,685.1L339.3,685.1L345.7,682.3L345.8,681.9L347.1,663.7L349.8,662.5L352.2,654.2L352.6,647.5L353.5,642.5L353.6,642.3L353.6,642.3L353.9,638.4L354.9,633.2L357.5,631.2L362.1,622.2L365.7,622.5L368.6,618.9L372.0,617.9L373.2,619.9L376.8,620.8L377.9,617.6L376.4,611.3L377.3,604.5L378.4,603.8L379.9,595.1L385.7,590.6L389.5,591.4L389.5,591.4L389.6,591.2L389.8,584.2L390.7,579.7L390.7,576.4L392.8,570.5L395.9,563.7L397.2,562.9L400.3,564.7L398.1,562.2L402.2,558.9L406.1,558.4L408.9,560.7L407.4,560.8L408.1,564.5L402.8,568.8L410.1,559.8L416.1,556.8L419.2,557.4L424.2,550.1L426.1,550.8L427.7,546.7L427.5,545.3L428.7,541.2L427.8,540.6L429.1,537.0L432.5,534.7L429.6,525.7L429.3,509.9L429.8,507.7L431.2,505.8L431.2,505.8L431.0,505.7L430.2,495.7L430.9,481.8L432.1,472.2L434.3,446.5L435.8,436.1L438.5,420.9L439.8,410.1L439.8,410.1L439.9,409.9L440.4,406.6L444.5,393.4L449.2,385.0L449.2,385.0L449.3,384.8L455.9,372.9L456.5,370.9L459.7,364.7L464.2,360.0L471.5,353.4L475.2,351.5L476.7,352.0L485.7,349.5L486.8,349.9L495.8,349.5L497.1,353.1L496.5,349.8L498.5,349.4L501.1,350.1L502.0,351.9L499.2,355.3L501.3,353.5L502.5,351.6L508.0,351.0L511.4,351.1L515.9,352.0L516.9,353.3L518.1,351.5L528.8,348.2L531.9,346.4L535.3,343.1L537.2,340.3L540.0,329.2L540.0,323.0L537.9,317.3L537.9,317.1L537.9,317.1L536.8,310.6L535.6,307.0L534.5,300.0L534.2,295.4L531.1,270.2L531.1,268.0L531.1,268.0L531.1,267.8L530.6,261.5L530.9,246.8L530.7,245.6L532.3,240.1L532.8,234.0L534.4,228.1L538.8,216.3L542.2,211.7L546.6,212.5L547.5,211.9L550.6,215.0L551.7,213.8L548.7,212.2L548.0,209.9L551.8,209.4L553.7,212.1L555.4,210.6L553.3,209.3L557.3,208.3L556.3,204.2L560.1,201.2L561.1,204.3L559.7,205.7L562.0,207.6L553.7,216.4L562.7,207.9L562.6,201.7L565.5,197.0L567.4,196.4L586.7,182.7L589.5,182.0L594.8,184.6L595.9,185.7L596.2,189.2L599.1,190.6L601.6,190.2L603.6,191.7L606.7,191.4L612.6,192.9L619.0,192.6L616.6,188.8L615.1,181.8L615.0,178.5L615.8,164.0L615.8,164.0L615.8,163.8L618.1,146.6L621.3,135.4L624.7,133.0L627.7,132.3L629.1,130.5L628.8,126.9L630.2,119.7L635.2,114.9L634.9,113.6L636.0,111.2L640.0,108.9L639.2,108.5L640.7,104.8L642.9,103.4L643.8,103.9L650.2,100.0L652.2,99.7L651.9,98.5L655.3,98.7L657.2,97.2L657.4,95.4L661.3,94.1L663.2,92.0L665.0,92.2L666.2,89.9L674.3,83.4L681.4,78.2L684.2,76.7L685.2,73.8L697.0,66.3L697.0,66.3L697.2,66.2L707.9,60.4L711.9,60.4L712.3,59.0L716.4,58.3L723.3,54.1L729.3,53.0L736.1,50.1L740.8,50.4L745.3,49.4L754.4,42.3L757.0,41.0L760.4,40.4L762.3,41.6L767.5,37.9L778.0,34.3L780.8,33.6L785.4,34.6L789.1,32.7L790.1,33.8L795.7,33.2L798.4,29.4L799.6,25.3L799.6,25.3L799.7,25.2L800.6,25.4L800.9,25.8L801.8,26.0L801.8,26.0L801.9,26.0L804.4,24.7L804.0,21.2L810.6,15.1L814.9,14.1L819.3,13.7L823.6,13.9L825.3,14.8L824.6,16.0L827.4,16.0L832.4,14.8L840.2,15.6L844.6,17.2L845.6,21.5L847.8,23.0L851.4,24.3L852.1,26.1L854.4,23.2L857.4,21.7L859.8,18.4L863.4,15.2L865.1,14.6L866.5,12.6L868.8,12.6L870.9,8.8L872.9,7.9L876.3,4.1L876.3,4.1L876.4,4.1L877.2,2.1L877.8,0.2L877.8,0.0L155.4,0.0L152.5,12.9L144.8,26.8L149.2,38.5L151.2,47.0L153.5,51.1L154.0,51.9Z "/><path d="M345.7,682.3L339.3,685.1L335.2,685.1L330.0,684.0L320.8,677.6L314.1,670.5L310.3,669.8L294.0,665.6L287.2,659.8L285.9,658.3L285.4,657.9L285.2,657.5L283.9,656.1L283.0,655.0L278.4,649.2L278.0,648.7L276.3,646.8L273.4,645.3L240.7,608.7L224.7,588.3L223.8,586.2L214.8,564.5L196.8,537.3L192.0,526.1L190.8,522.7L190.5,522.1L186.6,516.4L180.4,507.7L178.4,506.1L178.4,504.7L172.0,494.7L167.4,487.1L165.7,484.6L165.1,484.8L163.2,482.3L159.2,480.8L157.0,477.3L156.7,476.8L155.6,475.3L148.7,463.8L147.4,461.1L146.1,453.7L144.3,447.1L141.5,440.4L141.3,430.8L141.5,422.8L141.3,422.2L138.4,408.9L136.7,401.4L136.6,401.0L137.1,400.0L144.9,391.6L148.0,387.3L157.7,373.1L157.9,372.7L160.9,367.7L161.4,366.4L165.4,356.1L166.5,355.5L168.5,350.8L169.3,349.9L173.3,341.1L174.3,334.0L181.5,303.5L188.6,286.6L189.1,276.7L189.3,267.3L186.3,253.2L176.4,236.7L173.7,226.5L173.0,223.6L172.9,223.3L156.3,212.9L143.0,206.1L121.8,199.9L120.0,199.3L112.2,199.2L100.3,198.7L100.3,198.4L97.5,177.8L97.7,162.2L98.3,151.9L97.4,144.1L99.3,124.5L99.5,118.0L105.3,115.6L102.0,114.4L93.4,109.9L92.8,109.5L93.2,109.4L102.0,106.4L107.8,102.1L120.9,90.6L133.8,78.2L139.7,71.6L154.2,52.3L154.0,51.9L153.5,51.1L151.2,47.0L149.2,38.5L144.8,26.8L152.5,12.9L155.4,0.0L0.0,0.0L0.0,699.0L347.9,699.0L346.8,692.9L346.3,690.6L345.7,682.4L345.7,682.3Z M347.2,683.7L346.9,683.1L347.0,683.6L347.2,683.7Z "/></g><g class="" id="extra"><path d="M402.8,122.2L416.2,134.0L421.0,139.4L426.8,141.4L434.2,144.8L441.8,149.9L443.8,149.2L451.0,146.7L458.6,148.8L464.1,149.2L470.5,147.5L476.4,148.0L483.3,148.0L486.4,148.6L485.6,145.8L481.0,144.7L472.3,137.7L465.8,128.5L462.8,123.6L462.2,121.1L462.2,116.8L463.1,116.4L463.2,113.1L466.5,106.4L472.2,101.1L475.3,93.2L475.3,89.4L462.9,77.8L462.1,75.1L458.3,72.1L454.5,70.1L452.9,66.0L449.6,63.3L449.1,59.6L446.3,55.3L445.6,50.5L445.6,47.6L445.6,46.9L444.9,48.1L442.5,51.0L436.7,53.1L434.9,52.6L428.8,53.6L428.4,53.7L427.8,54.2L428.1,60.1L428.9,61.1L426.9,64.9L426.4,68.0L425.4,68.7L424.7,72.8L421.7,77.8L419.4,78.8L416.5,81.9L413.4,84.2L402.6,88.5L388.9,95.7L402.8,122.2Z " data-id="EURO-ES-VC-A-03002" id="EURO-ES-VC-A-03002"/><path d="M627.6,57.1L630.9,56.8L636.3,53.7L638.2,55.0L639.2,54.3L641.3,55.0L642.7,57.3L643.0,62.0L645.8,66.2L648.0,68.2L652.8,65.3L656.3,62.1L656.6,58.8L657.8,55.8L657.6,54.2L665.2,50.0L668.8,48.3L666.6,39.5L670.5,34.7L673.1,33.2L673.9,33.2L673.9,32.8L672.1,30.9L671.3,30.6L667.6,25.6L667.4,25.2L666.9,24.9L663.2,21.4L655.8,20.8L655.6,18.8L652.7,16.9L651.0,13.1L647.3,12.1L644.4,14.0L639.7,13.9L638.8,13.6L638.8,14.1L640.7,17.3L640.9,20.1L639.4,22.9L635.0,28.4L634.4,32.5L634.0,33.9L635.5,36.5L631.3,43.3L630.1,46.1L627.6,55.9L627.3,57.1L627.6,57.1Z " data-id="EURO-ES-VC-A-03004" id="EURO-ES-VC-A-03004"/><path d="M207.8,287.5L209.8,291.2L209.1,300.0L208.2,301.1L205.5,301.1L204.1,306.5L206.4,310.0L208.9,313.0L208.1,314.8L209.3,321.2L214.1,324.3L217.7,330.6L223.0,333.3L228.3,339.6L232.8,347.0L238.2,357.4L239.0,360.0L242.4,366.7L245.2,372.9L245.6,373.4L245.9,374.0L246.5,374.8L254.1,376.5L255.4,376.7L257.3,377.0L273.0,375.9L279.6,375.1L283.6,376.5L282.4,379.6L283.6,379.8L287.6,380.5L288.3,380.6L290.3,380.9L290.8,381.0L291.6,380.6L299.0,377.8L303.2,375.8L301.7,372.2L301.4,369.9L298.3,372.2L294.8,368.8L292.5,368.2L288.7,371.4L288.0,376.4L278.7,373.1L280.9,371.6L278.4,368.0L281.1,365.7L272.3,363.1L276.5,358.5L282.9,350.2L291.2,342.1L291.9,340.8L291.3,338.2L289.8,335.0L284.0,328.3L281.8,326.6L276.7,319.6L276.3,319.7L272.2,313.7L268.1,306.3L266.9,305.1L262.3,302.6L255.8,293.8L252.7,288.8L249.9,283.7L246.6,280.8L243.9,278.6L241.6,275.7L241.3,275.3L241.1,274.6L240.1,275.7L233.6,278.9L230.6,282.8L227.6,283.9L222.0,288.4L207.9,287.2L207.3,286.9L207.8,287.5Z " data-id="EURO-ES-VC-A-03005" id="EURO-ES-VC-A-03005"/><path d="M876.3,4.1L876.4,4.1L877.2,2.1L877.8,0.2L877.8,0.0L871.5,0.0L873.5,2.0L875.8,3.7L876.3,4.1Z " data-id="EURO-ES-VC-A-03011" id="EURO-ES-VC-A-03011"/><path d="M306.5,493.2L307.0,491.4L308.6,491.8L312.0,491.0L318.1,488.8L324.5,489.7L331.7,488.3L332.0,483.3L330.2,478.7L334.6,476.3L338.3,476.2L339.3,477.5L338.6,483.9L339.4,486.1L342.9,484.6L349.3,485.2L355.5,484.5L356.1,483.2L356.3,482.9L357.0,481.7L361.3,477.2L362.2,478.6L362.4,488.3L362.4,489.4L365.2,489.2L366.0,485.6L364.8,480.9L363.6,479.0L362.9,475.8L360.6,475.1L360.5,473.8L355.0,466.3L351.7,464.3L346.3,466.1L346.0,466.4L345.6,466.8L341.7,472.8L340.4,474.1L338.9,473.2L336.3,467.0L333.6,466.3L331.4,466.6L329.5,467.9L326.8,464.4L325.8,459.4L322.7,456.2L320.6,443.8L318.4,444.0L315.7,443.2L312.2,446.1L312.3,447.5L308.8,447.0L309.7,451.3L307.2,455.9L307.5,461.9L306.8,465.6L304.5,472.9L305.6,476.3L304.1,479.6L303.6,480.5L306.5,493.2Z " data-id="EURO-ES-VC-A-03012" id="EURO-ES-VC-A-03012"/><path d="M121.8,199.9L143.0,206.1L156.3,212.9L172.9,223.3L173.0,223.6L175.6,222.2L180.1,220.2L182.0,217.2L185.3,215.7L186.4,214.8L184.2,211.1L183.3,208.0L186.8,199.6L186.3,188.8L187.1,185.8L185.4,185.4L184.2,189.2L181.7,191.7L185.8,193.6L184.7,196.3L183.2,195.8L181.6,198.7L179.6,198.4L180.1,195.4L178.2,193.6L180.0,192.4L181.1,186.9L179.4,185.0L178.9,182.9L183.4,180.6L179.1,180.4L178.6,179.9L176.6,182.4L173.4,182.3L163.5,191.3L162.1,190.9L162.8,188.9L161.8,187.3L155.5,189.1L153.3,190.3L149.0,189.8L143.8,195.5L143.8,192.2L145.2,188.1L140.5,187.2L137.4,188.0L135.9,190.3L130.1,193.8L126.7,194.8L122.2,198.1L121.2,197.6L120.0,199.3L121.8,199.9Z " data-id="EURO-ES-VC-A-03013" id="EURO-ES-VC-A-03013"/><path d="M626.1,17.7L625.5,22.0L626.7,23.3L632.9,32.1L634.0,33.9L634.4,32.5L635.0,28.4L639.4,22.9L640.9,20.1L640.7,17.3L638.8,14.1L638.8,13.6L638.5,13.0L636.5,13.3L636.6,14.8L630.5,13.4L626.6,17.0L626.1,17.2L626.1,17.7Z M448.9,202.1L451.5,202.0L459.7,207.4L468.8,219.6L479.8,229.8L486.8,237.5L493.5,241.8L506.7,240.6L510.6,238.3L514.0,238.0L518.4,243.6L522.7,254.3L526.9,267.9L530.9,268.0L531.1,268.0L531.1,267.8L530.6,261.5L530.9,246.8L530.7,245.6L532.3,240.1L532.8,234.0L534.4,228.1L538.8,216.3L542.2,211.7L546.6,212.5L547.5,211.9L550.6,215.0L551.7,213.8L548.7,212.2L548.0,209.9L551.8,209.4L553.7,212.1L555.4,210.6L553.3,209.3L557.3,208.3L556.3,204.2L560.1,201.2L561.1,204.3L559.7,205.7L562.0,207.6L553.7,216.4L562.7,207.9L562.6,201.7L565.5,197.0L567.4,196.4L586.7,182.7L589.5,182.0L594.8,184.6L595.9,185.7L596.2,189.2L599.1,190.6L601.6,190.2L603.6,191.7L606.7,191.4L612.6,192.9L619.0,192.6L616.6,188.8L615.1,181.8L615.0,178.5L615.8,164.0L615.8,164.0L615.5,163.9L609.0,159.1L608.0,157.8L607.5,155.2L604.9,157.2L599.7,160.8L591.0,156.5L588.6,152.9L585.5,150.9L582.8,150.5L580.2,150.2L579.8,150.3L575.3,151.1L569.9,148.8L565.7,145.0L569.8,141.3L569.1,138.3L570.0,136.9L568.9,135.7L564.2,138.7L564.3,141.4L561.0,143.5L560.2,145.0L557.3,143.8L557.1,144.5L556.3,146.8L554.4,144.6L552.4,146.5L551.2,146.0L549.7,150.0L552.2,151.8L550.5,160.5L547.6,165.8L543.7,165.8L534.1,165.1L531.7,162.7L519.6,156.5L517.9,155.2L511.5,151.7L507.9,148.9L506.1,148.4L505.7,146.2L506.2,141.2L502.9,137.2L502.0,134.9L503.1,132.6L505.9,131.0L507.3,127.8L507.1,125.7L509.4,118.4L507.6,114.6L502.4,111.9L501.0,108.1L499.8,101.4L496.7,96.1L491.7,89.2L489.6,87.2L485.7,85.9L481.2,85.4L477.0,82.0L476.9,80.4L473.4,74.6L473.3,74.3L472.8,74.2L458.3,72.1L462.1,75.1L462.9,77.8L475.3,89.4L475.3,93.2L472.2,101.1L466.5,106.4L463.2,113.1L463.1,116.4L462.2,116.8L462.2,121.1L462.8,123.6L465.8,128.5L472.3,137.7L481.0,144.7L485.6,145.8L486.4,148.6L483.3,148.0L476.4,148.0L470.5,147.5L464.1,149.2L458.6,148.8L451.0,146.7L443.8,149.2L441.8,149.9L440.4,152.2L435.4,157.7L435.3,159.5L428.8,161.8L426.5,164.8L434.2,187.5L435.1,194.7L437.2,197.6L438.7,200.1L448.9,202.1Z M523.0,76.9L522.8,78.7L523.9,79.4L524.7,84.7L529.6,86.9L548.0,96.3L567.5,87.0L588.3,98.8L595.4,95.9L595.6,95.9L595.6,95.3L595.8,94.4L596.9,93.0L597.5,92.0L597.4,91.2L593.4,88.4L588.5,84.6L587.8,77.2L588.3,74.8L585.0,72.2L582.7,69.6L582.4,64.8L584.5,60.6L585.6,57.4L587.7,55.5L587.2,53.7L585.4,52.0L585.0,52.1L585.0,52.3L578.8,55.1L574.3,56.1L569.5,59.6L559.7,65.7L549.2,70.3L547.6,70.2L541.6,73.2L537.2,69.4L532.0,69.5L527.8,70.0L527.0,72.6L525.0,74.4L521.2,75.1L523.0,76.9Z " data-id="EURO-ES-VC-A-03014" id="EURO-ES-VC-A-03014"/><path d="M305.1,497.6L306.7,503.4L309.1,512.8L309.3,513.3L310.9,518.7L312.4,519.4L319.5,526.9L322.1,528.2L328.0,532.4L330.5,533.9L330.4,532.6L328.9,521.6L330.5,515.9L330.7,512.7L332.4,512.5L340.8,509.5L342.3,508.4L345.5,503.2L347.6,498.8L348.9,497.3L355.8,485.6L356.2,484.5L356.3,482.9L356.1,483.2L355.5,484.5L349.3,485.2L342.9,484.6L339.4,486.1L338.6,483.9L339.3,477.5L338.3,476.2L334.6,476.3L330.2,478.7L332.0,483.3L331.7,488.3L324.5,489.7L318.1,488.8L312.0,491.0L308.6,491.8L307.0,491.4L306.5,493.2L305.1,497.6Z M298.6,443.5L301.0,449.8L299.3,450.6L299.0,451.1L298.8,451.6L298.8,451.8L299.4,454.4L301.8,464.1L304.5,472.9L306.8,465.6L307.5,461.9L307.2,455.9L309.7,451.3L308.8,447.0L312.3,447.5L312.2,446.1L315.7,443.2L318.4,444.0L320.6,443.8L322.7,456.2L325.8,459.4L326.8,464.4L329.5,467.9L331.4,466.6L333.6,466.3L336.3,467.0L338.9,473.2L340.4,474.1L341.7,472.8L345.6,466.8L346.0,466.4L342.4,462.3L339.0,461.9L339.2,456.2L343.4,452.8L345.6,454.4L346.3,453.7L346.2,443.5L346.1,439.3L343.1,439.1L335.5,438.2L333.8,434.3L332.9,430.9L333.6,427.6L335.2,423.8L332.8,416.8L332.0,412.7L332.0,412.6L331.0,408.3L325.4,408.7L324.4,407.9L320.9,408.9L320.2,409.0L308.8,410.2L307.8,411.1L306.0,411.4L296.1,433.2L297.4,439.4L297.9,441.3L298.6,443.5Z " data-id="EURO-ES-VC-A-03015" id="EURO-ES-VC-A-03015"/><path d="M263.7,201.5L272.4,206.5L272.3,209.4L276.7,212.1L280.5,211.5L289.1,217.8L287.4,218.0L286.5,220.2L287.5,221.0L289.9,225.0L291.2,228.2L291.1,230.3L295.2,235.1L297.2,249.5L297.6,252.7L298.3,252.6L315.3,250.2L320.0,253.6L329.2,249.4L330.9,248.6L335.8,247.8L347.1,244.5L358.4,236.0L362.1,231.7L366.6,231.4L387.9,217.7L388.6,217.6L388.1,216.3L383.8,208.1L378.4,202.5L376.4,199.3L372.3,195.0L372.0,194.6L366.6,190.8L364.8,187.2L364.7,185.5L360.1,183.6L359.4,183.8L351.2,182.9L326.2,186.3L323.7,187.6L315.6,189.8L313.3,190.9L306.3,192.5L304.8,194.2L303.1,193.7L300.3,194.7L295.7,190.2L292.4,188.0L285.6,190.1L279.8,192.5L278.0,192.3L267.7,196.2L260.8,197.2L263.7,201.5Z " data-id="EURO-ES-VC-A-03019" id="EURO-ES-VC-A-03019"/><path d="M293.0,485.7L295.0,488.3L303.6,480.5L304.1,479.6L305.6,476.3L304.5,472.9L301.8,464.1L300.6,464.1L295.3,459.1L293.3,451.7L298.7,451.4L299.0,451.1L299.3,450.6L301.0,449.8L298.6,443.5L297.9,441.3L295.4,441.2L290.3,437.8L282.8,443.5L285.2,449.1L280.0,454.1L279.8,456.2L286.5,468.7L286.4,468.9L288.4,482.0L290.1,485.8L293.0,485.7Z " data-id="EURO-ES-VC-A-03024" id="EURO-ES-VC-A-03024"/><path d="M158.1,375.1L160.9,387.0L161.5,388.3L167.6,392.9L167.3,396.9L177.8,407.3L182.9,404.9L184.9,402.8L189.0,402.0L195.6,399.3L195.8,399.1L196.5,398.7L198.5,398.1L201.8,398.4L202.8,398.2L203.2,398.2L202.9,397.5L197.5,384.3L197.0,384.1L193.2,385.6L191.4,385.8L189.4,387.5L186.8,386.6L185.0,386.8L181.3,380.7L179.7,375.7L178.1,372.9L175.4,369.5L170.5,366.8L165.3,367.0L163.6,366.0L161.7,367.2L160.9,367.7L157.9,372.7L158.1,375.1Z " data-id="EURO-ES-VC-A-03025" id="EURO-ES-VC-A-03025"/><path d="M828.1,48.0L828.9,46.8L827.7,45.4L825.5,46.9L828.1,48.0Z M801.8,26.0L801.9,26.0L804.4,24.7L804.0,21.2L810.6,15.1L814.9,14.1L819.3,13.7L823.6,13.9L825.3,14.8L824.6,16.0L827.4,16.0L832.4,14.8L840.2,15.6L844.6,17.2L845.6,21.5L847.8,23.0L851.4,24.3L852.1,26.1L854.4,23.2L857.4,21.7L859.8,18.4L863.4,15.2L865.1,14.6L866.5,12.6L868.8,12.6L870.9,8.8L872.9,7.9L876.3,4.1L876.3,4.1L875.8,3.7L873.5,2.0L871.5,0.0L795.7,0.0L796.6,3.7L797.8,11.1L801.5,24.6L801.8,26.0Z " data-id="EURO-ES-VC-A-03031" id="EURO-ES-VC-A-03031"/><path d="M352.0,454.2L349.4,455.6L352.9,462.5L358.8,472.1L360.9,472.7L371.8,470.0L372.9,463.4L367.9,453.7L366.5,451.0L365.7,452.5L362.1,451.5L359.1,454.2L353.1,453.5L352.8,453.7L352.0,454.2Z " data-id="EURO-ES-VC-A-03034" id="EURO-ES-VC-A-03034"/><path d="M255.1,475.0L250.9,474.8L249.4,478.7L252.0,480.9L256.0,481.8L259.6,480.3L260.3,479.9L259.7,478.8L259.0,477.8L258.5,477.4L255.9,476.0L255.4,475.3L255.1,475.0Z M247.9,491.2L249.4,491.0L251.9,489.4L249.5,484.7L246.5,481.2L246.6,479.1L248.7,475.5L247.7,474.3L247.3,471.6L245.9,470.6L245.4,463.8L240.4,464.3L235.6,463.4L233.5,464.8L232.2,470.5L233.2,470.0L235.2,471.3L234.6,472.0L238.9,475.6L239.6,480.1L239.2,482.1L241.3,482.5L243.4,489.6L246.2,489.5L247.9,491.2Z " data-id="EURO-ES-VC-A-03044" id="EURO-ES-VC-A-03044"/><path d="M585.4,52.0L587.2,53.7L587.7,55.5L585.6,57.4L584.5,60.6L582.4,64.8L582.7,69.6L585.0,72.2L588.3,74.8L587.8,77.2L588.5,84.6L593.4,88.4L597.4,91.2L598.7,90.4L600.0,88.9L600.6,86.3L603.7,79.7L613.4,77.4L613.9,74.8L616.3,73.9L617.1,71.9L626.2,62.6L627.8,60.5L627.9,58.6L627.3,57.1L627.6,55.9L630.1,46.1L631.3,43.3L635.5,36.5L634.0,33.9L632.9,32.1L626.7,23.3L625.5,22.0L626.1,17.7L626.1,17.2L626.2,16.4L626.2,15.9L624.2,13.9L622.5,10.2L622.1,9.4L620.9,9.8L614.1,11.0L608.0,10.2L604.8,11.2L601.6,15.8L600.3,16.8L597.5,16.6L597.6,22.3L598.5,24.1L595.5,26.5L597.0,30.4L595.0,35.8L592.0,36.8L588.5,41.7L586.2,42.7L585.5,46.0L587.0,48.0L585.1,50.7L585.0,52.1L585.4,52.0Z " data-id="EURO-ES-VC-A-03046" id="EURO-ES-VC-A-03046"/><path d="M216.7,398.5L216.8,399.0L217.4,399.5L219.1,400.1L220.8,400.0L219.8,395.0L217.9,385.1L217.6,384.3L217.5,381.9L216.3,377.6L211.5,366.4L209.2,367.5L207.6,368.2L208.6,370.6L219.5,394.5L218.5,395.6L207.1,370.8L206.4,368.9L205.8,369.3L204.8,370.2L202.7,371.7L205.1,381.8L205.7,384.1L206.6,384.7L207.0,384.8L207.3,384.9L210.2,397.3L210.3,397.9L210.7,397.9L214.0,399.3L215.3,398.7L216.0,397.9L216.4,397.6L216.7,398.5Z M214.3,389.6L214.5,387.4L217.2,396.7L216.4,397.6L214.3,389.6Z M240.7,417.7L241.3,420.3L245.1,423.9L247.1,424.9L246.0,426.1L245.8,426.2L246.8,427.6L250.8,431.5L253.8,431.1L256.2,432.9L260.5,432.8L263.3,431.8L274.9,426.7L276.2,422.8L279.3,419.2L287.1,412.9L292.4,412.4L295.0,410.8L299.7,409.0L303.8,408.1L305.1,408.0L299.3,403.8L294.7,400.8L294.0,392.1L294.6,391.2L291.0,381.5L290.8,381.0L290.3,380.9L288.3,380.6L287.6,380.5L283.6,379.8L282.4,379.6L280.7,383.1L274.9,386.5L273.1,387.7L270.1,390.0L269.4,390.6L265.3,395.6L259.7,401.2L257.9,405.7L255.9,406.0L254.4,408.4L251.2,410.5L248.2,411.6L243.6,414.2L240.9,416.6L240.4,416.9L240.7,417.7Z " data-id="EURO-ES-VC-A-03049" id="EURO-ES-VC-A-03049"/><path d="M608.7,94.0L609.2,93.9L609.2,97.4L606.9,118.7L607.1,119.3L607.7,119.4L612.9,122.0L613.9,123.3L616.5,132.2L616.3,133.0L609.6,141.9L609.8,144.0L609.0,149.6L607.7,154.5L607.5,155.2L608.0,157.8L609.0,159.1L615.5,163.9L615.8,164.0L615.8,163.8L618.1,146.6L621.3,135.4L624.7,133.0L627.7,132.3L629.1,130.5L628.8,126.9L630.2,119.7L635.2,114.9L634.9,113.6L636.0,111.2L640.0,108.9L639.2,108.5L640.7,104.8L642.9,103.4L643.8,103.9L650.2,100.0L652.2,99.7L651.9,98.5L655.3,98.7L657.2,97.2L657.4,95.4L661.3,94.1L663.2,92.0L665.0,92.2L666.2,89.9L674.3,83.4L681.4,78.2L684.2,76.7L685.2,73.8L697.0,66.3L697.0,66.3L697.0,66.1L695.5,61.5L694.7,61.0L695.4,57.0L692.0,54.1L692.2,52.8L688.7,50.5L687.6,51.4L684.7,51.3L685.1,50.2L681.3,48.7L681.3,44.1L679.4,41.3L679.7,40.0L675.1,37.4L674.3,34.5L673.9,33.2L673.1,33.2L670.5,34.7L666.6,39.5L668.8,48.3L665.2,50.0L657.6,54.2L657.8,55.8L656.6,58.8L656.3,62.1L652.8,65.3L648.0,68.2L645.8,66.2L643.0,62.0L642.7,57.3L641.3,55.0L639.2,54.3L638.2,55.0L636.3,53.7L630.9,56.8L627.6,57.1L627.3,57.1L627.9,58.6L627.8,60.5L626.2,62.6L617.1,71.9L616.3,73.9L613.9,74.8L613.4,77.4L603.7,79.7L600.6,86.3L600.0,88.9L598.7,90.4L597.4,91.2L597.5,92.0L596.9,93.0L595.8,94.4L595.6,95.3L595.6,95.9L608.7,94.0Z " data-id="EURO-ES-VC-A-03050" id="EURO-ES-VC-A-03050"/><path d="M428.4,53.7L428.8,53.6L434.9,52.6L436.7,53.1L442.5,51.0L444.9,48.1L445.6,46.9L445.2,46.6L441.7,44.0L439.5,44.1L435.3,42.1L430.4,38.5L428.0,36.0L427.4,32.4L423.7,30.3L423.5,25.0L431.9,23.3L432.4,19.7L437.8,15.8L444.5,6.4L452.8,0.0L361.4,0.0L368.0,4.6L380.4,11.7L394.8,24.2L403.4,28.3L405.3,30.4L417.6,36.8L423.5,41.5L427.2,49.0L428.4,53.7Z " data-id="EURO-ES-VC-A-03053" id="EURO-ES-VC-A-03053"/><path d="M291.0,381.5L294.6,391.2L294.0,392.1L294.7,400.8L299.3,403.8L305.1,408.0L307.8,407.9L307.7,408.6L308.0,409.6L308.4,409.9L308.8,410.2L320.2,409.0L320.9,408.9L321.4,407.7L328.1,404.9L327.0,401.6L330.9,395.8L330.6,394.9L339.1,388.0L338.4,387.1L338.8,383.7L340.9,380.9L347.4,378.1L350.7,376.4L351.2,375.0L347.0,374.5L344.0,370.9L337.9,367.0L327.7,363.8L324.8,364.5L317.4,367.9L315.6,367.8L311.5,374.6L308.9,376.6L305.1,378.2L306.1,380.7L298.9,383.1L296.2,383.2L290.8,381.0L291.0,381.5Z " data-id="EURO-ES-VC-A-03055" id="EURO-ES-VC-A-03055"/><path d="M217.9,385.1L219.8,395.0L220.8,400.0L220.8,400.4L222.9,403.3L225.2,410.0L232.7,412.3L238.1,416.4L240.4,416.9L240.9,416.6L243.6,414.2L248.2,411.6L251.2,410.5L254.4,408.4L255.9,406.0L257.9,405.7L259.7,401.2L265.3,395.6L269.4,390.6L270.1,390.0L270.3,389.5L272.5,385.1L271.0,385.2L267.5,388.4L263.9,392.4L263.4,391.3L267.7,385.1L263.9,385.3L257.8,386.3L257.2,386.1L250.3,387.0L250.1,388.1L256.7,388.1L256.2,390.0L246.4,390.0L245.4,383.6L246.9,383.5L248.9,381.7L258.4,381.6L258.5,380.4L248.7,380.8L248.5,378.4L259.2,378.3L259.3,377.2L255.4,377.1L255.4,376.7L254.1,376.5L246.5,374.8L245.9,374.0L245.6,373.4L244.7,373.8L244.7,374.9L244.1,388.8L242.9,389.2L244.0,375.5L244.1,374.0L241.2,375.7L233.8,379.6L223.8,381.6L218.9,383.1L217.6,384.3L217.9,385.1Z M250.9,395.3L251.9,392.2L255.6,392.2L254.7,394.5L250.9,395.3Z M253.1,387.7L253.1,387.2L257.1,386.6L256.9,387.1L253.1,387.7Z " data-id="EURO-ES-VC-A-03058" id="EURO-ES-VC-A-03058"/><path d="M246.6,280.8L249.9,283.7L252.7,288.8L255.8,293.8L262.3,302.6L266.9,305.1L268.1,306.3L272.2,313.7L276.3,319.7L276.7,319.6L281.8,326.6L284.0,328.3L289.8,335.0L291.3,338.2L291.9,340.8L292.6,341.2L298.2,355.6L299.4,360.8L301.0,369.7L301.4,369.9L301.7,372.2L303.2,375.8L299.0,377.8L291.6,380.6L290.8,381.0L296.2,383.2L298.9,383.1L306.1,380.7L305.1,378.2L308.9,376.6L311.5,374.6L315.6,367.8L317.4,367.9L324.8,364.5L327.7,363.8L337.9,367.0L344.0,370.9L347.0,374.5L351.2,375.0L352.8,375.5L353.7,376.1L353.6,375.6L353.0,372.1L350.4,351.4L340.7,325.7L340.6,321.5L337.8,316.4L338.8,311.1L340.1,308.6L339.5,305.9L340.2,304.8L338.1,302.9L338.7,300.6L338.0,299.2L340.0,299.0L339.8,294.5L337.9,291.2L338.4,290.8L337.1,283.4L337.8,274.6L337.6,271.2L336.3,268.8L335.6,263.8L337.4,258.7L332.4,250.7L330.9,248.6L329.2,249.4L320.0,253.6L315.3,250.2L298.3,252.6L297.6,252.7L296.7,252.9L292.4,253.5L267.0,261.5L263.4,263.9L258.4,266.3L252.1,272.8L245.3,276.4L244.2,277.9L243.9,278.6L246.6,280.8Z " data-id="EURO-ES-VC-A-03059" id="EURO-ES-VC-A-03059"/><path d="M332.8,416.8L335.2,423.8L333.6,427.6L332.9,430.9L333.8,434.3L335.5,438.2L343.1,439.1L346.1,439.3L352.7,439.5L353.7,439.5L355.7,439.5L360.6,430.8L360.7,430.5L360.8,429.7L361.2,427.8L354.0,420.9L353.4,420.4L345.3,417.0L338.3,414.8L332.0,412.7L332.8,416.8Z " data-id="EURO-ES-VC-A-03061" id="EURO-ES-VC-A-03061"/><path d="M368.5,440.3L371.6,439.6L373.8,434.7L375.3,425.8L375.6,425.6L375.2,425.5L363.5,421.6L361.2,427.8L360.8,429.7L360.7,430.5L360.6,430.8L355.7,439.5L368.5,440.3Z " data-id="EURO-ES-VC-A-03062" id="EURO-ES-VC-A-03062"/><path d="M324.4,407.9L325.4,408.7L331.0,408.3L332.0,412.6L332.0,412.7L338.3,414.8L345.3,417.0L353.4,420.4L354.0,420.9L361.2,427.8L363.5,421.6L359.7,420.3L356.6,417.5L367.8,408.7L369.9,406.8L376.1,403.5L381.2,402.2L354.2,376.4L353.7,376.1L352.8,375.5L351.2,375.0L350.7,376.4L347.4,378.1L340.9,380.9L338.8,383.7L338.4,387.1L339.1,388.0L330.6,394.9L330.9,395.8L327.0,401.6L328.1,404.9L321.4,407.7L320.9,408.9L324.4,407.9Z " data-id="EURO-ES-VC-A-03064" id="EURO-ES-VC-A-03064"/><path d="M332.4,250.7L337.4,258.7L335.6,263.8L336.3,268.8L337.6,271.2L337.8,274.6L337.1,283.4L338.4,290.8L337.9,291.2L339.8,294.5L340.0,299.0L338.0,299.2L338.7,300.6L338.1,302.9L340.2,304.8L339.5,305.9L340.1,308.6L338.8,311.1L337.8,316.4L340.6,321.5L340.7,325.7L350.4,351.4L353.0,372.1L353.6,375.6L353.7,376.1L354.2,376.4L381.2,402.2L391.8,402.7L395.1,402.7L409.4,396.8L415.7,395.4L423.2,396.2L425.1,399.8L427.1,410.1L431.1,410.3L432.7,410.3L434.0,410.3L439.8,410.1L439.9,409.9L440.4,406.6L444.5,393.4L449.2,385.0L449.2,385.0L446.6,385.9L443.6,386.0L445.7,379.0L441.7,375.9L440.7,374.3L434.4,374.1L428.9,374.4L424.1,372.5L417.8,372.5L415.7,364.4L423.6,362.6L426.2,361.1L429.5,356.4L433.4,352.0L442.7,344.6L446.5,338.4L446.3,336.2L451.9,338.1L458.5,335.0L463.5,327.9L467.9,328.4L473.6,323.8L477.0,318.8L483.9,317.0L486.2,315.3L490.7,308.8L494.1,304.8L499.3,300.6L499.1,297.8L504.1,296.7L505.6,297.2L512.8,295.4L515.8,297.4L525.4,301.0L531.0,305.8L534.3,313.8L535.0,316.3L537.8,317.1L537.9,317.1L537.9,317.1L536.8,310.6L535.6,307.0L534.5,300.0L534.2,295.4L531.1,270.2L531.1,268.0L531.1,268.0L530.9,268.0L526.9,267.9L522.7,254.3L518.4,243.6L514.0,238.0L510.6,238.3L506.7,240.6L493.5,241.8L486.8,237.5L479.8,229.8L468.8,219.6L459.7,207.4L451.5,202.0L448.9,202.1L438.7,200.1L435.0,203.5L417.7,207.8L412.6,209.8L409.3,213.1L401.3,215.4L392.3,215.9L389.5,217.4L388.6,217.6L387.9,217.7L366.6,231.4L362.1,231.7L358.4,236.0L347.1,244.5L335.8,247.8L330.9,248.6L332.4,250.7Z " data-id="EURO-ES-VC-A-03065" id="EURO-ES-VC-A-03065"/><path d="M271.4,77.4L275.7,81.9L284.1,91.2L294.6,99.0L310.1,115.1L311.4,116.5L311.4,116.2L312.1,113.5L314.4,114.0L318.2,113.2L320.2,114.7L323.1,112.0L328.0,110.9L329.8,110.1L330.2,109.9L330.3,109.3L331.3,101.1L332.0,98.4L331.8,96.4L329.3,92.0L330.3,84.9L325.4,78.4L327.0,76.5L326.1,75.5L329.1,73.5L330.1,71.8L328.3,70.2L327.3,66.8L325.7,65.5L325.3,61.1L324.7,59.7L325.9,57.5L329.4,54.3L326.1,53.7L324.5,52.7L318.3,50.4L313.0,40.3L312.2,38.7L311.5,38.8L300.7,37.9L294.9,38.3L288.0,40.6L275.7,36.7L274.5,36.4L275.7,37.5L279.4,39.7L274.1,49.0L260.4,73.1L271.4,77.4Z " data-id="EURO-ES-VC-A-03066" id="EURO-ES-VC-A-03066"/><path d="M799.6,25.3L799.7,25.2L800.6,25.4L800.9,25.8L801.8,26.0L801.8,26.0L801.5,24.6L797.8,11.1L796.6,3.7L795.7,0.0L762.0,0.0L767.9,5.6L773.3,5.6L776.8,7.1L779.6,10.1L791.6,17.0L795.1,18.7L797.4,18.0L799.2,21.3L800.0,24.8L799.6,25.3Z " data-id="EURO-ES-VC-A-03069" id="EURO-ES-VC-A-03069"/><path d="M352.8,447.9L352.8,451.8L352.8,453.7L353.1,453.5L359.1,454.2L362.1,451.5L365.7,452.5L366.5,451.0L366.7,450.4L374.5,448.9L375.4,446.8L373.7,440.4L377.9,434.9L377.7,434.1L382.7,426.7L383.1,425.7L378.9,426.7L375.6,425.6L375.3,425.8L373.8,434.7L371.6,439.6L368.5,440.3L355.7,439.5L353.7,439.5L352.7,439.5L352.8,447.9Z " data-id="EURO-ES-VC-A-03070" id="EURO-ES-VC-A-03070"/><path d="M202.9,397.5L203.2,398.2L204.5,398.4L209.2,399.3L209.2,398.2L210.3,397.9L210.2,397.3L207.3,384.9L207.0,384.8L206.6,384.7L205.7,384.1L205.3,383.9L203.7,382.7L200.4,383.1L198.0,384.4L197.5,384.3L202.9,397.5Z M250.9,395.3L254.7,394.5L255.6,392.2L251.9,392.2L250.9,395.3Z M217.2,396.7L214.5,387.4L214.3,389.6L216.4,397.6L217.2,396.7Z M253.1,387.7L256.9,387.1L257.1,386.6L253.1,387.2L253.1,387.7Z M255.4,377.1L259.3,377.2L259.2,378.3L248.5,378.4L248.7,380.8L258.5,380.4L258.4,381.6L248.9,381.7L246.9,383.5L245.4,383.6L246.4,390.0L256.2,390.0L256.7,388.1L250.1,388.1L250.3,387.0L257.2,386.1L257.8,386.3L263.9,385.3L267.7,385.1L263.4,391.3L263.9,392.4L267.5,388.4L271.0,385.2L272.5,385.1L270.3,389.5L270.1,390.0L273.1,387.7L274.9,386.5L280.7,383.1L282.4,379.6L283.6,376.5L279.6,375.1L273.0,375.9L257.3,377.0L255.4,376.7L255.4,377.1Z M207.1,370.8L218.5,395.6L219.5,394.5L208.6,370.6L207.6,368.2L206.4,368.9L207.1,370.8Z M244.0,375.5L242.9,389.2L244.1,388.8L244.7,374.9L244.7,373.8L244.1,374.0L244.0,375.5Z " data-id="EURO-ES-VC-A-03074" id="EURO-ES-VC-A-03074"/><path d="M397.7,435.6L397.0,455.9L398.4,464.5L398.4,481.7L398.4,487.8L399.2,487.9L413.3,489.6L418.5,501.3L425.2,503.7L431.2,505.8L431.0,505.7L430.2,495.7L430.9,481.8L432.1,472.2L434.3,446.5L435.8,436.1L438.5,420.9L439.8,410.1L439.8,410.1L434.0,410.3L432.7,410.3L431.1,410.3L427.1,410.1L427.3,410.9L429.1,416.5L430.4,427.3L428.4,428.5L424.2,427.0L401.9,420.7L393.9,422.8L397.7,435.6Z " data-id="EURO-ES-VC-A-03076" id="EURO-ES-VC-A-03076"/><path d="M191.7,229.7L194.3,237.5L197.4,246.3L202.3,258.0L203.7,259.5L205.2,259.2L206.6,259.0L208.8,257.2L211.1,258.7L212.9,257.6L214.1,259.8L216.4,260.8L220.3,260.9L222.2,260.4L225.2,261.2L230.1,261.8L232.5,265.2L234.4,266.7L240.9,274.2L241.1,274.6L241.3,275.3L241.6,275.7L243.9,278.6L244.2,277.9L245.3,276.4L252.1,272.8L258.4,266.3L263.4,263.9L267.0,261.5L292.4,253.5L296.7,252.9L297.6,252.7L297.2,249.5L295.2,235.1L291.1,230.3L291.2,228.2L289.9,225.0L287.5,221.0L286.5,220.2L287.4,218.0L289.1,217.8L280.5,211.5L276.7,212.1L272.3,209.4L272.4,206.5L263.7,201.5L260.8,197.2L243.1,204.1L237.8,206.8L232.3,210.2L227.9,211.6L222.5,214.5L219.9,215.1L211.7,214.4L208.4,215.7L203.1,216.1L196.2,216.1L187.7,214.7L186.4,214.8L191.7,229.7Z " data-id="EURO-ES-VC-A-03077" id="EURO-ES-VC-A-03077"/><path d="M201.5,263.0L200.6,268.3L193.7,283.5L193.2,285.0L199.3,284.4L206.8,286.5L207.3,286.9L207.9,287.2L222.0,288.4L227.6,283.9L230.6,282.8L233.6,278.9L240.1,275.7L241.1,274.6L240.9,274.2L234.4,266.7L232.5,265.2L230.1,261.8L225.2,261.2L222.2,260.4L220.3,260.9L216.4,260.8L214.1,259.8L212.9,257.6L211.1,258.7L208.8,257.2L206.6,259.0L205.2,259.2L203.7,259.5L201.5,263.0Z " data-id="EURO-ES-VC-A-03078" id="EURO-ES-VC-A-03078"/><path d="M255.9,476.0L258.5,477.4L259.0,477.8L259.7,478.8L260.3,479.9L260.9,480.5L266.2,484.9L268.2,485.5L272.1,489.8L275.1,497.1L275.7,505.0L276.4,504.4L277.6,506.3L279.1,505.8L283.0,509.7L284.1,514.1L285.7,513.7L286.5,515.2L291.8,511.8L293.7,505.7L297.9,497.2L297.5,495.0L290.4,487.8L290.1,485.8L288.4,482.0L286.6,481.9L285.1,478.8L276.9,477.0L273.6,471.7L273.0,469.9L270.1,467.7L269.7,466.3L267.1,466.7L265.3,465.2L263.8,467.1L260.0,463.4L255.6,462.1L255.8,463.2L254.7,470.7L256.0,475.5L255.4,475.3L255.9,476.0Z " data-id="EURO-ES-VC-A-03080" id="EURO-ES-VC-A-03080"/><path d="M498.4,67.6L502.9,70.6L508.0,72.5L513.9,72.9L517.3,76.8L520.8,75.4L521.2,75.1L525.0,74.4L527.0,72.6L527.8,70.0L532.0,69.5L537.2,69.4L541.6,73.2L547.6,70.2L549.2,70.3L559.7,65.7L569.5,59.6L574.3,56.1L578.8,55.1L585.0,52.3L585.0,52.1L585.1,50.7L587.0,48.0L585.5,46.0L586.2,42.7L588.5,41.7L592.0,36.8L595.0,35.8L597.0,30.4L595.5,26.5L598.5,24.1L597.6,22.3L597.5,16.6L600.3,16.8L601.6,15.8L604.8,11.2L608.0,10.2L614.1,11.0L620.9,9.8L622.1,9.4L622.2,8.7L624.9,1.5L625.3,0.0L507.2,0.0L507.2,4.0L506.5,6.1L509.0,7.1L510.7,10.2L510.3,12.1L513.7,14.3L513.6,17.2L511.3,24.8L502.3,38.6L503.9,49.0L502.1,55.7L499.8,60.5L498.6,65.2L498.4,67.6Z " data-id="EURO-ES-VC-A-03083" id="EURO-ES-VC-A-03083"/><path d="M367.2,123.0L368.5,138.2L368.3,144.8L362.5,162.0L360.0,163.8L359.3,165.5L360.9,167.2L361.5,171.1L365.6,175.6L366.2,177.0L367.4,183.7L368.5,185.2L374.7,188.5L374.0,191.3L374.8,192.7L372.5,194.6L372.3,195.0L376.4,199.3L378.4,202.5L383.8,208.1L388.1,216.3L388.6,217.6L389.5,217.4L392.3,215.9L401.3,215.4L409.3,213.1L412.6,209.8L417.7,207.8L435.0,203.5L438.7,200.1L437.2,197.6L435.1,194.7L434.2,187.5L426.5,164.8L428.8,161.8L435.3,159.5L435.4,157.7L440.4,152.2L441.8,149.9L434.2,144.8L426.8,141.4L421.0,139.4L416.2,134.0L402.8,122.2L388.9,95.7L386.8,94.2L378.2,94.9L371.5,101.0L367.5,105.1L367.2,123.0Z " data-id="EURO-ES-VC-A-03088" id="EURO-ES-VC-A-03088"/><path d="M162.8,48.9L175.0,74.9L175.7,76.7L178.4,88.7L181.0,92.2L184.4,99.7L179.1,118.7L178.5,124.8L179.0,133.1L176.2,143.3L178.3,152.6L184.3,159.2L189.8,163.4L192.4,174.0L189.0,177.2L189.4,183.1L190.0,183.3L197.1,182.4L206.0,183.2L213.3,182.4L221.5,180.0L223.6,178.3L227.8,176.7L230.5,174.8L239.5,170.2L249.9,166.8L252.1,164.9L254.7,164.5L263.3,159.5L266.9,157.4L275.7,153.8L284.4,149.6L285.9,149.8L290.4,146.0L292.3,145.9L297.4,140.6L300.6,138.6L307.5,128.7L308.2,125.6L313.7,120.9L312.4,117.3L311.4,116.5L310.1,115.1L294.6,99.0L284.1,91.2L275.7,81.9L271.4,77.4L260.4,73.1L243.0,76.7L229.4,73.6L216.2,66.7L204.1,69.7L200.9,64.7L196.3,62.2L181.8,48.9L175.5,43.5L162.4,48.4L162.8,48.9Z " data-id="EURO-ES-VC-A-03089" id="EURO-ES-VC-A-03089"/><path d="M516.8,86.6L510.8,88.0L505.9,95.8L514.2,102.0L529.8,113.0L541.1,120.1L546.6,125.0L549.5,130.1L557.3,143.8L560.2,145.0L561.0,143.5L564.3,141.4L564.2,138.7L568.9,135.7L570.0,136.9L569.1,138.3L569.8,141.3L565.7,145.0L569.9,148.8L575.3,151.1L579.8,150.3L580.2,150.2L580.7,143.2L590.1,138.4L590.7,138.3L594.5,133.9L599.0,133.2L604.1,126.1L605.1,125.6L607.2,119.7L607.1,119.3L606.9,118.7L609.2,97.4L609.2,93.9L608.7,94.0L595.6,95.9L595.4,95.9L588.3,98.8L567.5,87.0L548.0,96.3L529.6,86.9L524.7,84.7L516.8,86.6Z " data-id="EURO-ES-VC-A-03090" id="EURO-ES-VC-A-03090"/><path d="M268.1,158.6L270.8,160.8L278.0,170.4L279.4,170.8L280.8,174.0L282.5,175.3L285.5,175.8L287.0,177.8L287.3,181.7L286.2,184.0L288.3,185.0L291.2,187.2L292.4,188.0L295.7,190.2L300.3,194.7L303.1,193.7L304.8,194.2L306.3,192.5L313.3,190.9L315.6,189.8L323.7,187.6L326.2,186.3L351.2,182.9L359.4,183.8L360.1,183.6L364.7,185.5L364.8,187.2L366.6,190.8L372.0,194.6L372.3,195.0L372.5,194.6L374.8,192.7L374.0,191.3L374.7,188.5L368.5,185.2L367.4,183.7L366.2,177.0L365.6,175.6L361.5,171.1L360.9,167.2L359.3,165.5L360.0,163.8L362.5,162.0L368.3,144.8L368.5,138.2L367.2,123.0L367.5,105.1L349.8,108.9L336.8,109.0L331.3,109.8L330.2,109.9L329.8,110.1L328.0,110.9L323.1,112.0L320.2,114.7L318.2,113.2L314.4,114.0L312.1,113.5L311.4,116.2L311.4,116.5L312.4,117.3L313.7,120.9L308.2,125.6L307.5,128.7L300.6,138.6L297.4,140.6L292.3,145.9L290.4,146.0L285.9,149.8L284.4,149.6L275.7,153.8L266.9,157.4L268.1,158.6Z " data-id="EURO-ES-VC-A-03093" id="EURO-ES-VC-A-03093"/><path d="M667.4,25.2L667.6,25.6L671.3,30.6L672.1,30.9L673.9,32.8L673.9,33.2L674.9,33.3L676.3,33.7L677.8,29.7L686.3,25.6L692.2,23.7L692.5,22.5L696.5,20.9L699.9,21.8L704.6,19.8L707.1,20.1L708.2,18.9L710.9,18.3L713.2,16.7L714.0,15.0L721.4,11.2L725.1,11.7L724.8,10.0L726.7,9.1L726.7,7.6L730.3,4.1L733.6,1.9L734.9,0.0L708.7,0.0L701.5,4.4L699.6,8.4L693.6,7.7L686.8,9.1L679.9,11.9L675.4,17.8L669.7,22.3L667.3,21.6L666.5,23.5L667.4,25.2Z " data-id="EURO-ES-VC-A-03098" id="EURO-ES-VC-A-03098"/><path d="M377.4,611.7L377.5,611.3L377.2,611.5L377.4,611.7Z M136.7,401.4L138.4,408.9L141.3,422.2L141.5,422.8L141.3,430.8L141.5,440.4L144.3,447.1L146.1,453.7L147.4,461.1L148.7,463.8L155.6,475.3L156.7,476.8L157.0,477.3L159.2,480.8L163.2,482.3L165.1,484.8L165.7,484.6L167.4,487.1L172.0,494.7L178.4,504.7L178.4,506.1L180.4,507.7L186.6,516.4L190.5,522.1L190.8,522.7L192.0,526.1L196.8,537.3L214.8,564.5L223.8,586.2L226.2,585.0L230.7,584.4L232.0,584.9L236.1,584.8L239.0,582.8L245.3,579.5L252.4,577.2L257.9,576.7L260.0,577.1L263.9,576.8L266.7,577.5L267.3,583.5L269.6,589.7L272.3,593.5L279.1,595.7L281.2,597.7L280.9,601.7L284.0,603.8L286.7,604.5L291.6,607.9L294.6,607.7L298.5,610.3L300.5,613.2L304.2,615.6L309.5,617.4L310.7,620.7L316.4,616.0L318.0,615.4L323.7,617.4L328.2,618.5L327.6,619.8L331.8,621.6L329.9,625.9L331.9,629.9L334.4,633.3L339.6,635.3L344.1,635.3L348.9,639.6L352.4,642.2L353.6,642.3L353.6,642.3L353.9,638.4L354.9,633.2L357.5,631.2L362.1,622.2L365.7,622.5L368.6,618.9L372.0,617.9L373.2,619.9L376.8,620.8L377.9,617.6L376.4,611.3L377.3,604.5L378.4,603.8L379.9,595.1L385.7,590.6L389.5,591.4L389.5,591.4L351.4,562.3L350.8,561.7L350.0,560.9L349.2,560.1L339.4,588.7L329.0,595.4L324.8,596.8L310.3,600.2L282.9,580.8L286.3,540.0L288.6,534.3L295.9,514.3L306.7,513.1L309.1,512.8L306.7,503.4L305.1,497.6L306.5,493.2L303.6,480.5L295.0,488.3L293.0,485.7L290.1,485.8L290.4,487.8L297.5,495.0L297.9,497.2L293.7,505.7L291.8,511.8L286.5,515.2L285.7,513.7L284.1,514.1L283.0,509.7L279.1,505.8L277.6,506.3L276.4,504.4L275.7,505.0L275.1,497.1L272.1,489.8L268.2,485.5L266.2,484.9L260.9,480.5L260.3,479.9L259.6,480.3L256.0,481.8L252.0,480.9L249.4,478.7L250.9,474.8L255.1,475.0L255.4,475.3L256.0,475.5L254.7,470.7L255.8,463.2L255.6,462.1L260.0,463.4L263.8,467.1L265.3,465.2L267.1,466.7L269.7,466.3L270.1,467.7L273.0,469.9L273.6,471.7L276.9,477.0L285.1,478.8L286.6,481.9L288.4,482.0L286.4,468.9L286.5,468.7L279.8,456.2L280.0,454.1L285.2,449.1L282.8,443.5L290.3,437.8L295.4,441.2L297.9,441.3L297.4,439.4L296.1,433.2L306.0,411.4L307.8,411.1L308.8,410.2L308.4,409.9L308.0,409.6L307.7,408.6L307.8,407.9L305.1,408.0L303.8,408.1L299.7,409.0L295.0,410.8L292.4,412.4L287.1,412.9L279.3,419.2L276.2,422.8L274.9,426.7L263.3,431.8L260.5,432.8L256.2,432.9L253.8,431.1L250.8,431.5L246.8,427.6L245.8,426.2L244.8,426.7L245.5,428.6L244.8,430.1L247.5,434.3L245.1,435.9L243.4,434.5L240.1,435.2L240.1,437.7L237.2,434.4L234.5,438.1L233.0,439.0L231.3,436.2L233.8,434.8L234.8,436.5L235.9,435.9L234.7,434.0L236.8,431.3L234.8,427.7L227.3,432.2L220.6,417.9L219.0,415.8L216.0,407.4L215.9,414.0L209.3,415.4L208.5,414.8L204.4,407.2L198.0,400.7L196.1,399.5L195.8,399.1L195.6,399.3L189.0,402.0L184.9,402.8L182.9,404.9L177.8,407.3L167.3,396.9L167.6,392.9L161.5,388.3L160.9,387.0L158.1,375.1L157.9,372.7L157.7,373.1L148.0,387.3L144.9,391.6L137.1,400.0L136.6,401.0L136.7,401.4Z M247.9,491.2L246.2,489.5L243.4,489.6L241.3,482.5L239.2,482.1L239.6,480.1L238.9,475.6L234.6,472.0L235.2,471.3L233.2,470.0L232.2,470.5L233.5,464.8L235.6,463.4L240.4,464.3L245.4,463.8L245.9,470.6L247.3,471.6L247.7,474.3L248.7,475.5L246.6,479.1L246.5,481.2L249.5,484.7L251.9,489.4L249.4,491.0L247.9,491.2Z M278.2,438.5L275.4,438.2L274.0,434.3L275.7,432.4L276.9,432.4L276.7,425.9L277.3,424.3L279.9,424.6L280.0,423.3L286.5,427.0L287.8,430.3L284.2,430.6L281.5,432.7L284.0,434.3L284.6,436.0L278.2,438.5Z M298.7,451.4L293.3,451.7L295.3,459.1L300.6,464.1L301.8,464.1L299.4,454.4L298.8,451.8L298.8,451.6L299.0,451.1L298.7,451.4Z M161.7,367.2L163.6,366.0L165.3,367.0L170.5,366.8L175.4,369.5L178.1,372.9L179.7,375.7L181.3,380.7L185.0,386.8L186.8,386.6L189.4,387.5L191.4,385.8L193.2,385.6L197.0,384.1L197.5,384.3L198.0,384.4L200.4,383.1L203.7,382.7L205.3,383.9L205.7,384.1L205.1,381.8L202.7,371.7L204.8,370.2L205.8,369.3L206.4,368.9L207.6,368.2L209.2,367.5L211.5,366.4L216.3,377.6L217.5,381.9L217.6,384.3L218.9,383.1L223.8,381.6L233.8,379.6L241.2,375.7L244.1,374.0L244.7,373.8L245.6,373.4L245.2,372.9L242.4,366.7L239.0,360.0L238.2,357.4L232.8,347.0L228.3,339.6L223.0,333.3L217.7,330.6L214.1,324.3L209.3,321.2L208.1,314.8L208.9,313.0L206.4,310.0L204.1,306.5L205.5,301.1L208.2,301.1L209.1,300.0L209.8,291.2L207.8,287.5L207.3,286.9L206.8,286.5L199.3,284.4L193.2,285.0L193.7,283.5L200.6,268.3L201.5,263.0L203.7,259.5L202.3,258.0L197.4,246.3L194.3,237.5L191.7,229.7L186.4,214.8L185.3,215.7L182.0,217.2L180.1,220.2L175.6,222.2L173.0,223.6L173.7,226.5L176.4,236.7L186.3,253.2L189.3,267.3L189.1,276.7L188.6,286.6L181.5,303.5L174.3,334.0L173.3,341.1L169.3,349.9L168.5,350.8L166.5,355.5L165.4,356.1L161.4,366.4L160.9,367.7L161.7,367.2Z " data-id="EURO-ES-VC-A-03099" id="EURO-ES-VC-A-03099"/><path d="M312.2,38.7L313.0,40.3L318.3,50.4L324.5,52.7L326.1,53.7L329.4,54.3L325.9,57.5L324.7,59.7L325.3,61.1L325.7,65.5L327.3,66.8L328.3,70.2L330.1,71.8L329.1,73.5L326.1,75.5L327.0,76.5L325.4,78.4L330.3,84.9L329.3,92.0L331.8,96.4L332.0,98.4L331.3,101.1L330.3,109.3L330.2,109.9L331.3,109.8L336.8,109.0L349.8,108.9L367.5,105.1L371.5,101.0L378.2,94.9L386.8,94.2L388.9,95.7L402.6,88.5L413.4,84.2L416.5,81.9L419.4,78.8L421.7,77.8L424.7,72.8L425.4,68.7L426.4,68.0L426.9,64.9L428.9,61.1L428.1,60.1L427.8,54.2L428.4,53.7L427.2,49.0L423.5,41.5L417.6,36.8L405.3,30.4L403.4,28.3L394.8,24.2L380.4,11.7L368.0,4.6L361.4,0.0L354.7,0.0L346.9,9.7L341.7,13.6L330.5,25.9L329.4,25.7L321.6,29.9L321.4,34.3L313.1,38.6L312.2,38.7Z " data-id="EURO-ES-VC-A-03104" id="EURO-ES-VC-A-03104"/><path d="M93.4,109.9L102.0,114.4L105.3,115.6L99.5,118.0L99.3,124.5L97.4,144.1L98.3,151.9L97.7,162.2L97.5,177.8L100.3,198.4L100.3,198.7L112.2,199.2L120.0,199.3L121.2,197.6L122.2,198.1L126.7,194.8L130.1,193.8L135.9,190.3L137.4,188.0L140.5,187.2L145.2,188.1L143.8,192.2L143.8,195.5L149.0,189.8L153.3,190.3L155.5,189.1L161.8,187.3L162.8,188.9L162.1,190.9L163.5,191.3L173.4,182.3L176.6,182.4L178.6,179.9L179.1,180.4L183.4,180.6L178.9,182.9L179.4,185.0L181.1,186.9L180.0,192.4L178.2,193.6L180.1,195.4L179.6,198.4L181.6,198.7L183.2,195.8L184.7,196.3L185.8,193.6L181.7,191.7L184.2,189.2L185.4,185.4L187.1,185.8L187.3,185.3L187.3,184.8L189.4,183.1L189.0,177.2L192.4,174.0L189.8,163.4L184.3,159.2L178.3,152.6L176.2,143.3L179.0,133.1L178.5,124.8L179.1,118.7L184.4,99.7L181.0,92.2L178.4,88.7L175.7,76.7L175.0,74.9L162.8,48.9L162.4,48.4L161.7,48.9L160.9,49.7L154.0,51.9L154.2,52.3L139.7,71.6L133.8,78.2L120.9,90.6L107.8,102.1L102.0,106.4L93.2,109.4L92.8,109.5L93.4,109.9Z " data-id="EURO-ES-VC-A-03105" id="EURO-ES-VC-A-03105"/><path d="M278.2,438.5L284.6,436.0L284.0,434.3L281.5,432.7L284.2,430.6L287.8,430.3L286.5,427.0L280.0,423.3L279.9,424.6L277.3,424.3L276.7,425.9L276.9,432.4L275.7,432.4L274.0,434.3L275.4,438.2L278.2,438.5Z " data-id="EURO-ES-VC-A-03109" id="EURO-ES-VC-A-03109"/><path d="M196.1,399.5L198.0,400.7L204.4,407.2L208.5,414.8L209.3,415.4L215.9,414.0L216.0,407.4L219.0,415.8L220.6,417.9L227.3,432.2L234.8,427.7L236.8,431.3L234.7,434.0L235.9,435.9L234.8,436.5L233.8,434.8L231.3,436.2L233.0,439.0L234.5,438.1L237.2,434.4L240.1,437.7L240.1,435.2L243.4,434.5L245.1,435.9L247.5,434.3L244.8,430.1L245.5,428.6L244.8,426.7L245.8,426.2L246.0,426.1L247.1,424.9L245.1,423.9L241.3,420.3L240.7,417.7L240.4,416.9L238.1,416.4L232.7,412.3L225.2,410.0L222.9,403.3L220.8,400.4L220.8,400.0L219.1,400.1L217.4,399.5L216.8,399.0L216.7,398.5L216.4,397.6L216.0,397.9L215.3,398.7L214.0,399.3L210.7,397.9L210.3,397.9L209.2,398.2L209.2,399.3L204.5,398.4L203.2,398.2L202.8,398.2L201.8,398.4L198.5,398.1L196.5,398.7L195.8,399.1L196.1,399.5Z " data-id="EURO-ES-VC-A-03111" id="EURO-ES-VC-A-03111"/><path d="M622.1,9.4L622.5,10.2L624.2,13.9L626.2,15.9L626.2,16.4L626.1,17.2L626.6,17.0L630.5,13.4L636.6,14.8L636.5,13.3L638.5,13.0L638.8,13.6L639.7,13.9L644.4,14.0L647.3,12.1L651.0,13.1L652.7,16.9L655.6,18.8L655.8,20.8L663.2,21.4L666.9,24.9L667.4,25.2L666.5,23.5L667.3,21.6L669.7,22.3L675.4,17.8L679.9,11.9L686.8,9.1L693.6,7.7L699.6,8.4L701.5,4.4L708.7,0.0L625.3,0.0L624.9,1.5L622.2,8.7L622.1,9.4Z " data-id="EURO-ES-VC-A-03112" id="EURO-ES-VC-A-03112"/><path d="M346.3,466.1L351.7,464.3L355.0,466.3L360.5,473.8L360.6,475.1L362.9,475.8L363.6,479.0L364.8,480.9L366.0,485.6L365.2,489.2L362.4,489.4L362.3,490.0L362.6,492.4L367.0,497.9L374.3,502.6L375.1,502.9L375.3,502.6L377.6,497.4L383.6,489.3L396.1,488.0L398.4,487.8L398.4,481.7L398.4,464.5L397.0,455.9L397.7,435.6L393.9,422.8L383.1,425.7L382.7,426.7L377.7,434.1L377.9,434.9L373.7,440.4L375.4,446.8L374.5,448.9L366.7,450.4L366.5,451.0L367.9,453.7L372.9,463.4L371.8,470.0L360.9,472.7L358.8,472.1L352.9,462.5L349.4,455.6L352.0,454.2L352.8,453.7L352.8,451.8L352.8,447.9L352.7,439.5L346.1,439.3L346.2,443.5L346.3,453.7L345.6,454.4L343.4,452.8L339.2,456.2L339.0,461.9L342.4,462.3L346.0,466.4L346.3,466.1Z " data-id="EURO-ES-VC-A-03113" id="EURO-ES-VC-A-03113"/><path d="M187.7,214.7L196.2,216.1L203.1,216.1L208.4,215.7L211.7,214.4L219.9,215.1L222.5,214.5L227.9,211.6L232.3,210.2L237.8,206.8L243.1,204.1L260.8,197.2L267.7,196.2L278.0,192.3L279.8,192.5L285.6,190.1L292.4,188.0L291.2,187.2L288.3,185.0L286.2,184.0L287.3,181.7L287.0,177.8L285.5,175.8L282.5,175.3L280.8,174.0L279.4,170.8L278.0,170.4L270.8,160.8L268.1,158.6L266.9,157.4L263.3,159.5L254.7,164.5L252.1,164.9L249.9,166.8L239.5,170.2L230.5,174.8L227.8,176.7L223.6,178.3L221.5,180.0L213.3,182.4L206.0,183.2L197.1,182.4L190.0,183.3L189.4,183.1L187.3,184.8L187.3,185.3L187.1,185.8L186.3,188.8L186.8,199.6L183.3,208.0L184.2,211.1L186.4,214.8L187.7,214.7Z " data-id="EURO-ES-VC-A-03114" id="EURO-ES-VC-A-03114"/><path d="M175.5,43.5L181.8,48.9L196.3,62.2L200.9,64.7L204.1,69.7L216.2,66.7L229.4,73.6L243.0,76.7L260.4,73.1L274.1,49.0L279.4,39.7L275.7,37.5L274.5,36.4L271.7,32.1L269.1,28.4L266.9,22.2L265.6,20.6L266.4,13.7L266.6,11.4L266.0,11.7L261.8,12.9L257.3,10.2L244.3,0.0L239.7,0.0L236.2,1.4L231.0,5.1L222.4,12.8L208.3,21.7L204.4,24.0L202.5,27.1L198.3,29.8L195.4,32.3L189.0,33.8L179.9,39.0L175.5,43.5Z " data-id="EURO-ES-VC-A-03116" id="EURO-ES-VC-A-03116"/><path d="M375.2,425.5L375.6,425.6L378.9,426.7L383.1,425.7L393.9,422.8L401.9,420.7L424.2,427.0L428.4,428.5L430.4,427.3L429.1,416.5L427.3,410.9L427.1,410.1L425.1,399.8L423.2,396.2L415.7,395.4L409.4,396.8L395.1,402.7L391.8,402.7L381.2,402.2L376.1,403.5L369.9,406.8L367.8,408.7L356.6,417.5L359.7,420.3L363.5,421.6L375.2,425.5Z " data-id="EURO-ES-VC-A-03118" id="EURO-ES-VC-A-03118"/><path d="M582.8,150.5L585.5,150.9L588.6,152.9L591.0,156.5L599.7,160.8L604.9,157.2L607.5,155.2L607.7,154.5L609.0,149.6L609.8,144.0L609.6,141.9L616.3,133.0L616.5,132.2L613.9,123.3L612.9,122.0L607.7,119.4L607.1,119.3L607.2,119.7L605.1,125.6L604.1,126.1L599.0,133.2L594.5,133.9L590.7,138.3L590.1,138.4L580.7,143.2L580.2,150.2L582.8,150.5Z " data-id="EURO-ES-VC-A-03119" id="EURO-ES-VC-A-03119"/><path d="M306.7,513.1L295.9,514.3L288.6,534.3L286.3,540.0L282.9,580.8L310.3,600.2L324.8,596.8L329.0,595.4L339.4,588.7L349.2,560.1L349.0,558.0L348.9,556.4L347.2,540.2L346.6,534.3L346.1,529.0L343.4,530.6L336.2,534.9L334.5,534.8L330.8,534.1L330.5,533.9L328.0,532.4L322.1,528.2L319.5,526.9L312.4,519.4L310.9,518.7L309.3,513.3L309.1,512.8L306.7,513.1Z " data-id="EURO-ES-VC-A-03120" id="EURO-ES-VC-A-03120"/><path d="M473.4,74.6L476.9,80.4L477.0,82.0L481.2,85.4L485.7,85.9L489.6,87.2L491.7,89.2L496.7,96.1L499.8,101.4L501.0,108.1L502.4,111.9L507.6,114.6L509.4,118.4L507.1,125.7L507.3,127.8L505.9,131.0L503.1,132.6L502.0,134.9L502.9,137.2L506.2,141.2L505.7,146.2L506.1,148.4L507.9,148.9L511.5,151.7L517.9,155.2L519.6,156.5L531.7,162.7L534.1,165.1L543.7,165.8L547.6,165.8L550.5,160.5L552.2,151.8L549.7,150.0L551.2,146.0L552.4,146.5L554.4,144.6L556.3,146.8L557.1,144.5L557.3,143.8L549.5,130.1L546.6,125.0L541.1,120.1L529.8,113.0L514.2,102.0L505.9,95.8L510.8,88.0L516.8,86.6L524.7,84.7L523.9,79.4L522.8,78.7L523.0,76.9L521.2,75.1L520.8,75.4L517.3,76.8L513.9,72.9L508.0,72.5L502.9,70.6L498.4,67.6L488.5,70.1L485.7,71.4L477.0,74.1L474.0,74.2L473.3,74.3L473.4,74.6Z " data-id="EURO-ES-VC-A-03122" id="EURO-ES-VC-A-03122"/><path d="M266.6,11.4L266.4,13.7L265.6,20.6L266.9,22.2L269.1,28.4L271.7,32.1L274.5,36.4L275.7,36.7L288.0,40.6L294.9,38.3L300.7,37.9L311.5,38.8L312.2,38.7L313.1,38.6L321.4,34.3L321.6,29.9L329.4,25.7L330.5,25.9L341.7,13.6L346.9,9.7L354.7,0.0L267.8,0.0L267.8,0.4L266.6,11.4Z " data-id="EURO-ES-VC-A-03123" id="EURO-ES-VC-A-03123"/><path d="M445.6,46.9L445.6,47.6L445.6,50.5L446.3,55.3L449.1,59.6L449.6,63.3L452.9,66.0L454.5,70.1L458.3,72.1L472.8,74.2L473.3,74.3L474.0,74.2L477.0,74.1L485.7,71.4L488.5,70.1L498.4,67.6L498.6,65.2L499.8,60.5L502.1,55.7L503.9,49.0L502.3,38.6L511.3,24.8L513.6,17.2L513.7,14.3L510.3,12.1L510.7,10.2L509.0,7.1L506.5,6.1L507.2,4.0L507.2,0.0L452.8,0.0L444.5,6.4L437.8,15.8L432.4,19.7L431.9,23.3L423.5,25.0L423.7,30.3L427.4,32.4L428.0,36.0L430.4,38.5L435.3,42.1L439.5,44.1L441.7,44.0L445.2,46.6L445.6,46.9Z " data-id="EURO-ES-VC-A-03129" id="EURO-ES-VC-A-03129"/><path d="M346.6,534.3L347.2,540.2L348.9,556.4L349.0,558.0L349.2,560.1L350.0,560.9L350.8,561.7L351.4,562.3L389.5,591.4L389.6,591.2L389.8,584.2L390.7,579.7L390.7,576.4L392.8,570.5L395.9,563.7L397.2,562.9L400.3,564.7L398.1,562.2L402.2,558.9L406.1,558.4L408.9,560.7L407.4,560.8L408.1,564.5L402.8,568.8L410.1,559.8L416.1,556.8L419.2,557.4L424.2,550.1L426.1,550.8L427.7,546.7L427.5,545.3L428.7,541.2L427.8,540.6L429.1,537.0L432.5,534.7L429.6,525.7L429.3,509.9L429.8,507.7L431.2,505.8L431.2,505.8L425.2,503.7L418.5,501.3L413.3,489.6L399.2,487.9L398.4,487.8L396.1,488.0L383.6,489.3L377.6,497.4L375.3,502.6L375.1,502.9L376.8,503.2L379.9,504.9L369.0,511.5L365.6,515.3L363.7,514.4L363.3,515.9L361.2,517.3L355.3,514.4L355.1,514.9L360.9,517.7L355.2,524.4L348.5,527.6L346.1,529.0L346.6,534.3Z " data-id="EURO-ES-VC-A-03133" id="EURO-ES-VC-A-03133"/><path d="M673.9,33.2L674.3,34.5L675.1,37.4L679.7,40.0L679.4,41.3L681.3,44.1L681.3,48.7L685.1,50.2L684.7,51.3L687.6,51.4L688.7,50.5L692.2,52.8L692.0,54.1L695.4,57.0L694.7,61.0L695.5,61.5L697.0,66.1L697.0,66.3L697.2,66.2L707.9,60.4L711.9,60.4L712.3,59.0L716.4,58.3L723.3,54.1L729.3,53.0L736.1,50.1L740.8,50.4L745.3,49.4L754.4,42.3L757.0,41.0L760.4,40.4L762.3,41.6L767.5,37.9L778.0,34.3L780.8,33.6L785.4,34.6L789.1,32.7L790.1,33.8L795.7,33.2L798.4,29.4L799.6,25.3L799.6,25.3L800.0,24.8L799.2,21.3L797.4,18.0L795.1,18.7L791.6,17.0L779.6,10.1L776.8,7.1L773.3,5.6L767.9,5.6L762.0,0.0L734.9,0.0L733.6,1.9L730.3,4.1L726.7,7.6L726.7,9.1L724.8,10.0L725.1,11.7L721.4,11.2L714.0,15.0L713.2,16.7L710.9,18.3L708.2,18.9L707.1,20.1L704.6,19.8L699.9,21.8L696.5,20.9L692.5,22.5L692.2,23.7L686.3,25.6L677.8,29.7L676.3,33.7L674.9,33.3L673.9,33.2Z " data-id="EURO-ES-VC-A-03139" id="EURO-ES-VC-A-03139"/><path d="M266.6,11.4L267.8,0.4L267.8,0.0L244.3,0.0L257.3,10.2L261.8,12.9L266.0,11.7L266.6,11.4Z M154.0,51.9L160.9,49.7L161.7,48.9L162.4,48.4L175.5,43.5L179.9,39.0L189.0,33.8L195.4,32.3L198.3,29.8L202.5,27.1L204.4,24.0L208.3,21.7L222.4,12.8L231.0,5.1L236.2,1.4L239.7,0.0L155.4,0.0L152.5,12.9L144.8,26.8L149.2,38.5L151.2,47.0L153.5,51.1L154.0,51.9Z " data-id="EURO-ES-VC-A-03140" id="EURO-ES-VC-A-03140"/><path d="M346.6,680.1L346.7,679.9L346.6,680.0L346.6,680.1Z M346.7,681.3L346.7,681.2L346.7,681.2L346.7,681.3Z M346.7,680.8L346.6,680.6L346.6,680.6L346.7,680.8Z M346.8,680.5L346.8,680.4L346.7,680.4L346.8,680.5Z M224.7,588.3L240.7,608.7L273.4,645.3L276.3,646.8L278.0,648.7L278.4,649.2L283.0,655.0L283.9,656.1L285.2,657.5L285.4,657.9L285.9,658.3L287.2,659.8L294.0,665.6L310.3,669.8L314.1,670.5L320.8,677.6L330.0,684.0L335.2,685.1L339.3,685.1L345.7,682.3L345.8,681.9L347.1,663.7L349.8,662.5L352.2,654.2L352.6,647.5L353.5,642.5L353.6,642.3L352.4,642.2L348.9,639.6L344.1,635.3L339.6,635.3L334.4,633.3L331.9,629.9L329.9,625.9L331.8,621.6L327.6,619.8L328.2,618.5L323.7,617.4L318.0,615.4L316.4,616.0L310.7,620.7L309.5,617.4L304.2,615.6L300.5,613.2L298.5,610.3L294.6,607.7L291.6,607.9L286.7,604.5L284.0,603.8L280.9,601.7L281.2,597.7L279.1,595.7L272.3,593.5L269.6,589.7L267.3,583.5L266.7,577.5L263.9,576.8L260.0,577.1L257.9,576.7L252.4,577.2L245.3,579.5L239.0,582.8L236.1,584.8L232.0,584.9L230.7,584.4L226.2,585.0L223.8,586.2L224.7,588.3Z " data-id="EURO-ES-VC-A-03902" id="EURO-ES-VC-A-03902"/><path d="M330.8,534.1L334.5,534.8L336.2,534.9L343.4,530.6L346.1,529.0L348.5,527.6L355.2,524.4L360.9,517.7L355.1,514.9L355.3,514.4L361.2,517.3L363.3,515.9L363.7,514.4L365.6,515.3L369.0,511.5L379.9,504.9L376.8,503.2L375.1,502.9L374.3,502.6L367.0,497.9L362.6,492.4L362.3,490.0L362.4,489.4L362.4,488.3L362.2,478.6L361.3,477.2L357.0,481.7L356.3,482.9L356.2,484.5L355.8,485.6L348.9,497.3L347.6,498.8L345.5,503.2L342.3,508.4L340.8,509.5L332.4,512.5L330.7,512.7L330.5,515.9L328.9,521.6L330.4,532.6L330.5,533.9L330.8,534.1Z " data-id="EURO-ES-VC-A-03903" id="EURO-ES-VC-A-03903"/><path d="M291.2,342.1L282.9,350.2L276.5,358.5L272.3,363.1L281.1,365.7L278.4,368.0L280.9,371.6L278.7,373.1L288.0,376.4L288.7,371.4L292.5,368.2L294.8,368.8L298.3,372.2L301.4,369.9L301.0,369.7L299.4,360.8L298.2,355.6L292.6,341.2L291.9,340.8L291.2,342.1Z " data-id="EURO-ES-VC-A-03904" id="EURO-ES-VC-A-03904"/><path d="M60.9,251.6L64.0,276.3L64.6,289.7L69.9,304.3L71.8,310.2L74.6,314.4L79.7,331.2L80.2,331.2L85.4,338.6L88.8,346.1L92.1,350.2L93.1,354.0L99.3,361.0L104.7,368.4L115.3,379.0L130.7,395.2L136.6,401.0L137.1,400.0L144.9,391.6L148.0,387.3L157.7,373.1L157.9,372.7L160.9,367.7L161.4,366.4L165.4,356.1L166.5,355.5L168.5,350.8L169.3,349.9L173.3,341.1L174.3,334.0L181.5,303.5L188.6,286.6L189.1,276.7L189.3,267.3L186.3,253.2L176.4,236.7L173.7,226.5L173.0,223.6L172.9,223.3L156.3,212.9L143.0,206.1L121.8,199.9L120.0,199.3L112.2,199.2L100.3,198.7L98.9,199.8L95.4,202.7L86.2,212.2L83.0,213.6L79.2,216.7L74.2,222.0L72.3,223.1L57.5,227.3L57.0,227.9L60.9,251.6Z " data-id="EURO-ES-MC-MU-30001" id="EURO-ES-MC-MU-30001"/><path d="M2.2,271.1L3.7,267.1L4.6,265.0L9.9,259.9L11.8,257.6L13.6,255.4L14.0,254.3L10.6,250.7L5.7,243.3L0.0,241.6L0.0,271.4L2.1,271.1L2.2,271.1Z " data-id="EURO-ES-MC-MU-30002" id="EURO-ES-MC-MU-30002"/><path d="M0.0,576.0L11.2,581.9L14.2,583.0L19.1,573.0L17.8,570.5L8.7,574.1L9.8,571.9L9.1,569.1L15.7,564.4L12.0,555.3L9.1,556.6L1.3,554.0L2.5,551.2L0.0,549.2L0.0,576.0Z " data-id="EURO-ES-MC-MU-30005" id="EURO-ES-MC-MU-30005"/><path d="M0.0,492.4L1.7,488.6L0.9,487.4L0.0,492.4Z " data-id="EURO-ES-MC-MU-30007" id="EURO-ES-MC-MU-30007"/><path d="M165.2,485.5L160.7,486.3L159.0,490.1L157.4,490.7L156.2,489.5L153.8,490.6L156.4,495.7L153.3,501.5L155.8,502.1L162.8,509.8L164.1,510.7L162.8,513.6L166.5,520.5L171.3,530.4L177.0,528.1L184.1,524.5L190.3,522.2L190.5,522.1L186.6,516.4L180.4,507.7L178.4,506.1L178.4,504.7L172.0,494.7L167.4,487.1L165.7,484.6L165.2,485.5Z " data-id="EURO-ES-MC-MU-30010" id="EURO-ES-MC-MU-30010"/><path d="M2.2,271.1L2.1,271.1L0.0,271.4L0.0,283.8L2.1,271.2L2.2,271.1Z " data-id="EURO-ES-MC-MU-30011" id="EURO-ES-MC-MU-30011"/><path d="M13.4,313.5L19.3,331.9L31.0,357.8L49.4,390.4L57.3,396.0L59.9,402.1L60.7,404.9L62.8,406.2L60.5,407.0L61.1,409.7L63.1,410.5L62.7,412.6L64.0,419.6L64.4,420.2L64.8,420.5L74.4,424.0L79.3,422.6L83.1,423.7L86.3,424.1L87.5,424.5L88.9,423.7L111.0,418.4L122.3,414.7L123.1,414.2L137.6,420.6L141.3,422.2L138.4,408.9L136.7,401.4L136.6,401.0L130.7,395.2L115.3,379.0L104.7,368.4L99.3,361.0L93.1,354.0L92.1,350.2L88.8,346.1L85.4,338.6L80.2,331.2L79.7,331.2L74.6,314.4L71.8,310.2L69.9,304.3L64.6,289.7L64.0,276.3L60.9,251.6L57.0,227.9L56.7,228.3L53.9,232.1L52.0,232.4L41.7,238.6L40.6,239.6L35.5,241.0L35.9,242.1L32.2,245.1L28.7,244.6L24.4,246.9L23.4,249.5L16.0,253.1L14.9,255.3L13.9,255.3L13.6,255.4L11.8,257.6L9.9,259.9L4.6,265.0L3.7,267.1L2.2,271.1L13.4,313.5Z " data-id="EURO-ES-MC-MU-30020" id="EURO-ES-MC-MU-30020"/><path d="M13.6,255.4L13.9,255.3L14.9,255.3L16.0,253.1L23.4,249.5L24.4,246.9L28.7,244.6L32.2,245.1L35.9,242.1L35.5,241.0L40.6,239.6L41.7,238.6L52.0,232.4L53.9,232.1L56.7,228.3L57.0,227.9L57.5,227.3L72.3,223.1L74.2,222.0L79.2,216.7L83.0,213.6L86.2,212.2L95.4,202.7L98.9,199.8L100.3,198.7L100.3,198.4L97.5,177.8L97.7,162.2L98.3,151.9L97.4,144.1L99.3,124.5L99.5,118.0L105.3,115.6L102.0,114.4L93.4,109.9L92.8,109.5L80.7,106.7L77.5,105.7L71.0,100.6L64.5,98.3L57.8,95.2L52.8,88.0L46.2,76.8L32.8,59.8L24.5,48.5L11.2,30.0L1.2,15.3L0.0,13.8L0.0,241.6L5.7,243.3L10.6,250.7L14.0,254.3L13.6,255.4Z " data-id="EURO-ES-MC-MU-30022" id="EURO-ES-MC-MU-30022"/><path d="M64.4,420.2L64.0,419.6L62.7,412.6L63.1,410.5L61.1,409.7L60.5,407.0L62.8,406.2L60.7,404.9L59.9,402.1L57.3,396.0L49.4,390.4L31.0,357.8L19.3,331.9L13.4,313.5L2.2,271.1L2.1,271.2L0.0,283.8L0.9,487.4L1.7,488.6L0.0,492.4L0.0,502.3L0.0,510.4L2.6,515.2L0.0,515.5L0.2,522.0L0.7,522.1L1.2,522.5L1.7,523.5L0.0,527.3L0.0,531.7L7.4,532.5L11.7,530.9L14.2,526.4L16.0,520.8L18.8,520.8L20.3,519.4L23.5,520.3L29.9,512.5L29.4,509.1L30.0,507.5L27.7,502.9L29.4,501.4L28.3,498.2L32.8,496.6L33.8,493.0L37.3,488.8L38.0,485.3L41.7,484.5L43.7,481.8L42.2,473.2L42.4,472.6L48.4,470.8L47.1,462.9L60.1,456.2L59.8,453.0L60.6,451.1L59.5,445.0L61.2,442.3L61.1,439.7L64.1,421.2L64.4,420.2Z " data-id="EURO-ES-MC-MU-30027" id="EURO-ES-MC-MU-30027"/><path d="M0.7,522.1L0.1,522.4L0.0,522.5L0.0,527.3L1.7,523.5L1.2,522.5L0.7,522.1Z M231.8,686.1L232.4,685.8L238.5,682.7L246.0,679.5L251.6,680.2L254.3,678.5L258.6,674.6L260.8,670.8L269.1,664.8L275.7,665.1L277.7,660.0L278.3,656.7L276.6,651.5L277.6,649.0L278.0,648.7L276.3,646.8L273.4,645.3L240.7,608.7L224.7,588.3L223.8,586.2L214.8,564.5L196.8,537.3L192.0,526.1L190.8,522.7L190.5,522.1L190.3,522.2L184.1,524.5L177.0,528.1L171.3,530.4L166.5,520.5L162.8,513.6L164.1,510.7L162.8,509.8L155.8,502.1L153.3,501.5L156.4,495.7L153.8,490.6L156.2,489.5L157.4,490.7L159.0,490.1L160.7,486.3L165.2,485.5L165.7,484.6L165.1,484.8L163.2,482.3L159.2,480.8L157.0,477.3L156.7,476.8L155.4,477.4L148.7,482.2L128.1,496.0L122.7,487.1L121.8,484.3L117.4,477.4L113.2,473.4L107.8,472.4L105.5,473.4L97.0,469.9L96.2,461.5L93.7,455.2L94.7,452.9L97.5,452.3L92.4,441.4L91.3,440.9L89.4,436.4L84.5,431.6L85.0,428.3L87.6,426.7L87.9,425.8L87.5,424.5L86.3,424.1L83.1,423.7L79.3,422.6L74.4,424.0L64.8,420.5L64.4,420.2L64.1,421.2L61.1,439.7L61.2,442.3L59.5,445.0L60.6,451.1L59.8,453.0L60.1,456.2L47.1,462.9L48.4,470.8L42.4,472.6L42.2,473.2L43.7,481.8L41.7,484.5L38.0,485.3L37.3,488.8L33.8,493.0L32.8,496.6L28.3,498.2L29.4,501.4L27.7,502.9L30.0,507.5L29.4,509.1L29.9,512.5L23.5,520.3L20.3,519.4L18.8,520.8L16.0,520.8L14.2,526.4L11.7,530.9L7.4,532.5L0.0,531.7L0.0,549.2L2.5,551.2L1.3,554.0L9.1,556.6L12.0,555.3L15.7,564.4L9.1,569.1L9.8,571.9L8.7,574.1L17.8,570.5L19.1,573.0L14.2,583.0L11.2,581.9L0.0,576.0L0.0,699.0L148.0,699.0L147.6,696.8L151.1,690.5L159.4,685.1L163.4,680.1L167.6,684.3L170.5,688.7L176.1,699.0L209.4,699.0L212.7,698.2L219.0,695.4L224.4,692.2L226.3,692.0L231.7,686.1L231.8,686.1Z " data-id="EURO-ES-MC-MU-30030" id="EURO-ES-MC-MU-30030"/><path d="M285.4,657.9L285.2,657.5L283.9,656.1L283.0,655.0L278.4,649.2L278.0,648.7L277.6,649.0L276.6,651.5L278.3,656.7L277.7,660.0L275.7,665.1L269.1,664.8L260.8,670.8L258.6,674.6L254.3,678.5L251.6,680.2L246.0,679.5L238.5,682.7L232.4,685.8L231.8,686.1L231.9,686.2L233.6,690.6L237.0,695.2L238.5,699.0L308.1,699.0L309.8,694.1L304.5,690.8L301.3,687.4L297.6,684.2L300.6,677.1L300.7,675.8L285.1,661.9L285.9,660.2L285.5,658.2L285.4,657.9Z " data-id="EURO-ES-MC-MU-30035" id="EURO-ES-MC-MU-30035"/><path d="M345.7,682.3L339.3,685.1L335.2,685.1L330.0,684.0L320.8,677.6L314.1,670.5L310.3,669.8L294.0,665.6L287.2,659.8L285.9,658.3L285.4,657.9L285.5,658.2L285.9,660.2L285.1,661.9L300.7,675.8L300.6,677.1L297.6,684.2L301.3,687.4L304.5,690.8L309.8,694.1L308.1,699.0L347.9,699.0L346.8,692.9L346.3,690.6L345.7,682.4L345.7,682.3Z M347.2,683.7L346.9,683.1L347.0,683.6L347.2,683.7Z " data-id="EURO-ES-MC-MU-30036" id="EURO-ES-MC-MU-30036"/><path d="M176.1,699.0L170.5,688.7L167.6,684.3L163.4,680.1L159.4,685.1L151.1,690.5L147.6,696.8L148.0,699.0L176.1,699.0Z M231.8,686.1L231.7,686.1L226.3,692.0L224.4,692.2L219.0,695.4L212.7,698.2L209.4,699.0L238.5,699.0L237.0,695.2L233.6,690.6L231.9,686.2L231.8,686.1Z " data-id="EURO-ES-MC-MU-30037" id="EURO-ES-MC-MU-30037"/><path d="M0.0,515.5L2.6,515.2L0.0,510.4L0.0,515.5Z M0.7,522.1L0.2,522.0L0.0,522.5L0.1,522.4L0.7,522.1Z " data-id="EURO-ES-MC-MU-30038" id="EURO-ES-MC-MU-30038"/><path d="M92.8,109.5L93.2,109.4L102.0,106.4L107.8,102.1L120.9,90.6L133.8,78.2L139.7,71.6L154.2,52.3L154.0,51.9L153.5,51.1L151.2,47.0L149.2,38.5L144.8,26.8L152.5,12.9L155.4,0.0L0.0,0.0L0.0,13.8L1.2,15.3L11.2,30.0L24.5,48.5L32.8,59.8L46.2,76.8L52.8,88.0L57.8,95.2L64.5,98.3L71.0,100.6L77.5,105.7L80.7,106.7L92.8,109.5Z " data-id="EURO-ES-MC-MU-30043" id="EURO-ES-MC-MU-30043"/><path d="M87.9,425.8L87.6,426.7L85.0,428.3L84.5,431.6L89.4,436.4L91.3,440.9L92.4,441.4L97.5,452.3L94.7,452.9L93.7,455.2L96.2,461.5L97.0,469.9L105.5,473.4L107.8,472.4L113.2,473.4L117.4,477.4L121.8,484.3L122.7,487.1L128.1,496.0L148.7,482.2L155.4,477.4L156.7,476.8L155.6,475.3L148.7,463.8L147.4,461.1L146.1,453.7L144.3,447.1L141.5,440.4L141.3,430.8L141.5,422.8L141.3,422.2L137.6,420.6L123.1,414.2L122.3,414.7L111.0,418.4L88.9,423.7L87.5,424.5L87.9,425.8Z " data-id="EURO-ES-MC-MU-30901" id="EURO-ES-MC-MU-30901"/></g><g class="" id="principal"><path d="M573.0,376.7L572.9,376.4L572.7,376.6L573.0,376.7Z M576.7,378.1L576.5,377.5L576.3,377.7L576.7,378.1Z M579.2,377.9L579.2,377.6L579.1,377.7L579.2,377.9Z M578.7,377.8L578.8,377.5L578.6,377.6L578.7,377.8Z M563.6,373.6L563.7,373.6L563.7,373.4L563.6,373.6Z M556.9,373.6L556.1,372.7L556.2,373.4L556.9,373.6Z M516.1,354.6L516.5,354.2L516.4,353.8L516.1,354.6Z M449.3,384.8L455.9,372.9L456.5,370.9L459.7,364.7L464.2,360.0L471.5,353.4L475.2,351.5L476.7,352.0L485.7,349.5L486.8,349.9L495.8,349.5L497.1,353.1L496.5,349.8L498.5,349.4L501.1,350.1L502.0,351.9L499.2,355.3L501.3,353.5L502.5,351.6L508.0,351.0L511.4,351.1L515.9,352.0L516.9,353.3L518.1,351.5L528.8,348.2L531.9,346.4L535.3,343.1L537.2,340.3L540.0,329.2L540.0,323.0L537.9,317.3L537.9,317.1L537.8,317.1L535.0,316.3L534.3,313.8L531.0,305.8L525.4,301.0L515.8,297.4L512.8,295.4L505.6,297.2L504.1,296.7L499.1,297.8L499.3,300.6L494.1,304.8L490.7,308.8L486.2,315.3L483.9,317.0L477.0,318.8L473.6,323.8L467.9,328.4L463.5,327.9L458.5,335.0L451.9,338.1L446.3,336.2L446.5,338.4L442.7,344.6L433.4,352.0L429.5,356.4L426.2,361.1L423.6,362.6L415.7,364.4L417.8,372.5L424.1,372.5L428.9,374.4L434.4,374.1L440.7,374.3L441.7,375.9L445.7,379.0L443.6,386.0L446.6,385.9L449.2,385.0L449.3,384.8Z M565.5,378.5L565.9,378.2L565.0,377.8L565.5,378.5Z M568.0,377.3L571.8,376.1L567.1,373.2L563.7,373.9L560.8,372.4L558.6,374.2L562.0,374.1L564.2,376.2L568.0,377.3Z " data-id="EURO-ES-VC-A-03121" id="EURO-ES-VC-A-03121"/></g></svg>