<?xml version="1.0" encoding="UTF-8" standalone="no"?>
<!-- Created with Inkscape (http://www.inkscape.org/) -->

<svg
   xmlns:dc="http://purl.org/dc/elements/1.1/"
   xmlns:cc="http://creativecommons.org/ns#"
   xmlns:rdf="http://www.w3.org/1999/02/22-rdf-syntax-ns#"
   xmlns:svg="http://www.w3.org/2000/svg"
   xmlns="http://www.w3.org/2000/svg"
   xmlns:sodipodi="http://sodipodi.sourceforge.net/DTD/sodipodi-0.dtd"
   xmlns:inkscape="http://www.inkscape.org/namespaces/inkscape"
   version="1.1"
   id="svg64"
   width="733.33331"
   height="534.66669"
   viewBox="0 0 733.33331 534.66669"
   sodipodi:docname="logoRestauranteBerenguerAnton.svg"
   inkscape:version="0.92.2 5c3e80d, 2017-08-06">
  <metadata
     id="metadata70">
    <rdf:RDF>
      <cc:Work
         rdf:about="">
        <dc:format>image/svg+xml</dc:format>
        <dc:type
           rdf:resource="http://purl.org/dc/dcmitype/StillImage" />
        <dc:title />
      </cc:Work>
    </rdf:RDF>
  </metadata>
  <defs
     id="defs68" />
  <sodipodi:namedview
     pagecolor="#ffffff"
     bordercolor="#666666"
     borderopacity="1"
     objecttolerance="10"
     gridtolerance="10"
     guidetolerance="10"
     inkscape:pageopacity="0"
     inkscape:pageshadow="2"
     inkscape:window-width="1280"
     inkscape:window-height="756"
     id="namedview66"
     showgrid="false"
     inkscape:zoom="1.073566"
     inkscape:cx="354.55748"
     inkscape:cy="192.81534"
     inkscape:window-x="0"
     inkscape:window-y="0"
     inkscape:window-maximized="0"
     inkscape:current-layer="svg64" />
  <path
     style="fill:#000000;stroke-width:0.62524366"
     d="m 406.24501,416.27651 c 0.46369,-0.1758 1.01772,-0.15419 1.23117,0.048 0.21344,0.20223 -0.16595,0.34607 -0.84308,0.31965 -0.74831,-0.0292 -0.90051,-0.17342 -0.38809,-0.36769 z m 11.04036,-1.46859 c -0.73764,-0.49647 -0.53678,-0.5599 0.85675,-0.27058 1.22315,0.25394 1.67961,0.16226 1.39146,-0.27947 -0.28814,-0.44173 0.16832,-0.53341 1.39146,-0.27947 1.11682,0.23187 1.51493,0.17152 1.03016,-0.15616 -0.52307,-0.35358 0.71228,-0.92403 3.65504,-1.68779 2.44484,-0.63454 4.28175,-1.40423 4.08201,-1.71043 -0.20834,-0.31938 0.25311,-0.3714 1.08242,-0.12202 1.08314,0.32571 1.31847,0.23983 0.93859,-0.34251 -0.36902,-0.56572 -0.18941,-0.66176 0.65995,-0.35296 1.60769,0.58451 5.93352,-0.7809 4.74121,-1.49652 -1.18282,-0.70993 -0.39822,-0.68152 1.80838,0.0655 1.5542,0.52614 1.65538,0.49883 0.72009,-0.19435 -0.98039,-0.72661 -0.86429,-0.88319 1.17221,-1.5809 1.2432,-0.42593 2.1081,-0.91868 1.922,-1.095 -0.18611,-0.17633 1.92249,-1.35648 4.68577,-2.62255 5.61197,-2.57128 16.66957,-8.75246 21.57152,-12.05844 1.76645,-1.19133 6.08141,-4.50869 9.58879,-7.37191 5.4405,-4.44128 7.99722,-7.26159 17.40881,-19.20351 9.36668,-11.88496 11.57263,-15.11005 14.6154,-21.36761 4.7352,-9.73811 7.87332,-18.86532 9.81166,-28.53716 0.87208,-4.35145 1.84531,-8.99033 2.16273,-10.30862 0.31743,-1.31829 0.48853,-8.16498 0.38022,-15.21487 -0.21453,-13.96505 -1.51673,-21.90978 -5.15938,-31.47739 -0.93543,-2.45696 -1.7253,-4.80952 -1.75528,-5.22793 -0.03,-0.41841 -0.31243,-0.76074 -0.62768,-0.76074 -0.31527,0 -0.42794,-0.22269 -0.2504,-0.49487 0.46463,-0.71228 -6.54165,-13.65541 -10.10948,-18.67587 -1.98239,-2.7895 -2.34511,-3.52483 -1.05074,-2.13008 2.61301,2.81563 3.20506,3.53834 3.20506,3.91239 0,0.1717 0.82669,1.48413 1.8371,2.91651 5.16202,7.31778 6.58779,9.74701 8.67791,14.78546 2.92178,7.04323 5.26249,15.36097 6.59116,23.42165 1.47549,8.95143 1.45186,25.53214 -0.0499,34.98043 -1.28954,8.11338 -3.66522,16.44083 -4.48076,15.70641 -0.29179,-0.26278 -0.3084,0.20474 -0.0369,1.03894 0.44549,1.3688 0.38863,1.43415 -0.58301,0.67014 -0.98203,-0.77219 -1.0184,-0.70144 -0.41383,0.80513 0.92294,2.29996 0.79688,2.69219 -0.40756,1.26818 -1.05496,-1.24728 -1.02724,-1.00017 0.216,1.92561 0.2911,0.68506 0.18718,0.87036 -0.32117,0.57269 -0.41332,-0.24204 -0.7515,-0.13386 -0.7515,0.24037 0,0.37424 -0.28818,0.51169 -0.6404,0.30544 -0.42329,-0.24786 -0.4294,0.15083 -0.0181,1.17599 0.86582,2.1576 0.21229,3.68889 -1.12763,2.64212 -0.87315,-0.68213 -0.90301,-0.61505 -0.24616,0.55305 0.94691,1.68391 0.94878,2.20763 0.006,1.65553 -0.4615,-0.27024 -0.56714,-0.16682 -0.27971,0.27383 0.54355,0.83327 -0.14588,3.2722 -0.81433,2.88078 -0.25216,-0.14765 -0.5204,0.25918 -0.5961,0.90406 -0.0757,0.64488 -0.19959,1.70013 -0.2753,2.34501 -0.0757,0.64488 -0.41388,1.01075 -0.7515,0.81306 -0.35312,-0.20677 -0.4342,0.0841 -0.19089,0.68488 0.23263,0.57438 0.16752,0.89476 -0.14471,0.71193 -0.68487,-0.40104 -1.49761,1.36812 -0.98765,2.14989 0.19865,0.30453 0.0599,0.55368 -0.30826,0.55368 -0.83194,0 -3.99422,5.79649 -3.44577,6.31612 0.21968,0.20813 0.0831,0.37842 -0.30349,0.37842 -0.38659,0 -1.78042,1.71167 -3.0974,3.80372 -1.31698,2.09204 -2.97811,4.41992 -3.69139,5.17305 -0.71329,0.75314 -1.13537,1.36934 -0.93795,1.36934 0.19742,0 -0.75246,1.15196 -2.11082,2.5599 -1.35837,1.40795 -2.35271,2.67082 -2.20963,2.80637 0.14307,0.13555 -0.59179,0.92563 -1.63302,1.75573 -1.04123,0.8301 -1.75723,1.71765 -1.5911,1.97233 0.69763,1.06947 -15.68111,14.80399 -23.74431,19.91098 -13.04265,8.26082 -32.06605,16.1263 -45.48812,18.80769 -5.14915,1.02867 -4.3998,1.0008 -5.57855,0.20744 z m 58.53561,-27.78466 c 0.799,-0.96527 0.77628,-0.9868 -0.24253,-0.22979 -1.06999,0.79505 -1.41026,1.29483 -0.88158,1.29483 0.13338,0 0.63923,-0.47927 1.12411,-1.06504 z m 14.56605,-12.97409 4.13673,-4.52301 -4.09499,4.14457 c -2.25225,2.27952 -6.26202,6.07715 -8.9106,8.43918 l -4.81561,4.29461 4.77387,-3.91616 c 2.62563,-2.15389 6.6354,-5.95153 8.9106,-8.43919 z m 5.58597,-6.0445 c 0.63946,-0.66945 1.01811,-1.21719 0.84147,-1.21719 -0.17665,0 -0.84436,0.54774 -1.48381,1.21719 -0.63946,0.66946 -1.01811,1.21719 -0.84147,1.21719 0.17665,0 0.84436,-0.54773 1.48381,-1.21719 z m 2.33016,-2.89082 c 0.799,-0.96527 0.77628,-0.9868 -0.24252,-0.22978 -1.07,0.79505 -1.41027,1.29482 -0.88159,1.29482 0.13338,0 0.63923,-0.47927 1.12411,-1.06504 z m 3.46797,-4.29478 c -0.19777,-0.18738 -0.71608,-3.9e-4 -1.15181,0.41554 -0.62967,0.60106 -0.55589,0.67096 0.35959,0.34069 0.63349,-0.22855 0.99,-0.56885 0.79222,-0.75623 z m 3.51592,-4.98629 c 0.37815,-0.66946 0.54302,-1.21719 0.36638,-1.21719 -0.17665,0 -0.63058,0.54773 -1.00873,1.21719 -0.37815,0.66945 -0.54302,1.21719 -0.36637,1.21719 0.17664,0 0.63057,-0.54774 1.00872,-1.21719 z m 11.56227,-20.69222 c 0,-0.33473 -0.30612,-0.6086 -0.68026,-0.6086 -0.37415,0 -0.50161,0.27387 -0.28327,0.6086 0.21835,0.33472 0.52447,0.60859 0.68026,0.60859 0.1558,0 0.28327,-0.27387 0.28327,-0.60859 z m -169.09813,78.0076 c -2.03143,-0.87943 -3.69351,-1.94805 -3.69351,-2.37471 0,-0.90388 1.03842,-1.03706 1.58251,-0.20296 0.2055,0.31503 1.68897,1.19518 3.29661,1.95588 2.72557,1.28969 4.22316,2.41771 3.02756,2.28042 -0.28582,-0.0328 -2.18175,-0.7792 -4.21317,-1.65863 z m -5.789,-2.40835 c -0.62259,-0.12409 -0.93925,-0.52109 -0.70368,-0.8822 0.2458,-0.37681 0.12956,-0.48164 -0.27282,-0.24603 -0.3856,0.22579 -2.23687,-0.26612 -4.11393,-1.09314 -1.87705,-0.82703 -6.30338,-2.51256 -9.8363,-3.74563 -8.50438,-2.96823 -18.99568,-7.60067 -18.59718,-8.21158 0.17491,-0.26815 -0.20146,-0.45046 -0.8364,-0.40515 -1.34488,0.096 -11.14395,-5.03987 -10.75465,-5.63668 0.1444,-0.22135 -0.095,-0.40246 -0.53194,-0.40246 -1.1495,0 -4.2878,-2.0557 -4.2878,-2.80867 0,-0.35201 -0.1802,-0.46929 -0.40045,-0.26062 -0.79256,0.75092 -13.20183,-8.6198 -12.64378,-9.54779 0.22178,-0.36881 0.18156,-0.48163 -0.0894,-0.2507 -0.59931,0.51082 -1.05863,0.17142 -7.56915,-5.59292 -2.83543,-2.51045 -6.57777,-6.20767 -8.31631,-8.21603 -1.73854,-2.00836 -4.18256,-4.80254 -5.43116,-6.20927 -4.40614,-4.96418 -13.32774,-18.02862 -13.83852,-20.2646 -0.1147,-0.50209 -0.3885,-1.04983 -0.60846,-1.21719 -1.7279,-1.31476 -7.70687,-15.25381 -10.18088,-23.73519 -6.41086,-21.97759 -4.20693,-46.77439 5.8542,-65.86687 1.36311,-2.5867 2.47838,-4.84611 2.47838,-5.02091 0,-0.17479 -0.70059,-0.3178 -1.55686,-0.3178 -2.45179,0 -8.07836,-1.36948 -8.07836,-1.96623 0,-0.29699 -0.26575,-0.38437 -0.59056,-0.19418 -0.32481,0.1902 -1.01304,-0.0545 -1.5294,-0.5437 -0.51636,-0.48922 -1.04578,-0.78817 -1.17649,-0.66433 -0.52152,0.49411 -5.37144,-3.18093 -7.55329,-5.72352 -1.27512,-1.48595 -1.88481,-2.46815 -1.35487,-2.18269 0.52994,0.28547 0.22627,-0.14673 -0.67482,-0.96044 -2.41423,-2.18014 -4.97351,-8.84415 -5.76493,-15.01107 -2.39482,-18.66124 8.07478,-35.82422 23.85491,-39.10569 5.80903,-1.20799 17.83676,-0.47891 23.53143,1.42639 10.15813,3.39868 18.70908,9.23939 20.13685,13.75442 0.72519,2.29331 0.53258,7.0279 -0.39508,9.71143 -0.4738,1.3706 -0.30805,1.33 3.16559,-0.77529 2.01606,-1.22189 3.98287,-2.03583 4.37068,-1.80874 0.39344,0.23039 0.52436,0.13579 0.29618,-0.21401 -0.42698,-0.65457 14.84502,-8.28436 16.58218,-8.28436 0.53441,0 0.97165,-0.20647 0.97165,-0.45881 0,-0.44003 3.38297,-1.36127 4.25334,-1.15826 0.23135,0.054 0.60067,-0.17789 0.82072,-0.51522 0.58042,-0.88978 14.68142,-4.70108 22.54691,-6.0941 8.40726,-1.48898 11.2329,-1.82632 20.82497,-2.4862 8.43525,-0.5803 9.03227,-0.51946 35.38048,3.60568 8.479,1.3275 20.90843,3.24935 27.62097,4.27079 11.25678,1.71293 20.8375,4.20825 21.41294,5.57705 0.1185,0.28187 0.45169,0.37415 0.74043,0.20508 0.79295,-0.46432 11.62051,3.99005 11.21394,4.61332 -0.19421,0.29773 0.0529,0.39371 0.54911,0.2133 1.23056,-0.4474 11.42759,4.02013 10.9271,4.78738 -0.21935,0.33627 -0.0844,0.42729 0.2999,0.20226 0.88825,-0.52012 9.25908,3.79866 8.78156,4.5307 -0.1956,0.29986 0.0493,0.39796 0.54429,0.21801 0.50801,-0.1847 2.26115,0.84045 4.02558,2.35395 2.93193,2.51496 3.05851,2.74475 2.04237,3.70749 -1.01614,0.96275 -1.29342,0.93355 -4.47398,-0.47107 -1.86488,-0.82359 -4.60972,-1.83452 -6.09964,-2.24651 -1.50868,-0.41718 -2.53199,-1.02036 -2.30956,-1.36134 0.21966,-0.33675 0.087,-0.42932 -0.29491,-0.20572 -0.38187,0.22361 -2.23314,-0.12985 -4.11392,-0.78547 -3.38841,-1.18114 -8.26928,-1.97901 -48.70517,-7.96178 -11.48197,-1.69883 -25.30049,-3.76228 -30.70782,-4.58543 -9.50808,-1.4474 -10.08919,-1.46794 -17.66457,-0.62429 -27.00137,3.00708 -48.69003,11.35248 -68.25902,26.26484 -17.78582,13.55351 -33.81695,35.66272 -40.34119,55.63625 -3.47929,10.6516 -4.47879,16.66428 -4.45141,26.77817 0.0362,13.39136 2.63294,23.78089 9.27029,37.09109 1.74353,3.49639 3.031,6.70039 2.86105,7.12 -0.16995,0.41962 0.0376,0.64668 0.46122,0.50458 0.42362,-0.14209 1.78192,1.43069 3.01844,3.49507 1.23652,2.06438 5.79918,7.81967 10.13924,12.78953 4.4633,5.11097 7.69873,9.3309 7.44834,9.71474 -0.25908,0.39719 -0.15273,0.50886 0.25644,0.26926 0.38452,-0.22515 2.38032,1.1327 4.4351,3.01745 3.70095,3.3947 3.40255,3.3841 -2.54457,-0.0904 -5.3815,-3.14401 -23.76337,-24.696 -22.59331,-26.48972 0.21167,-0.3245 0.14658,-0.51474 -0.14465,-0.42277 -0.29123,0.092 -0.59574,-0.0435 -0.6767,-0.30104 -0.081,-0.25754 -0.6753,-1.00534 -1.32077,-1.66177 -1.25758,-1.27892 -5.13867,-8.23487 -5.425,-9.72306 -0.0951,-0.49413 -0.50219,-1.23651 -0.9047,-1.64975 -1.17394,-1.20523 -5.31068,-14.02625 -6.34515,-19.66556 -1.40096,-7.63724 -1.84193,-17.25167 -1.06393,-23.19671 1.06743,-8.15662 2.12326,-13.34124 2.65366,-13.03066 0.26623,0.1559 0.34759,-0.39294 0.1808,-1.21962 -0.18339,-0.90893 -0.005,-1.50307 0.45187,-1.50307 0.41533,0 0.59937,-0.2388 0.40899,-0.53067 -0.19039,-0.29186 0.47808,-2.82513 1.48549,-5.6295 5.19599,-14.46431 14.68395,-29.27803 27.3463,-42.69626 5.31547,-5.63278 15.06515,-13.96189 16.77392,-14.3299 0.50253,-0.10822 0.91369,-0.41412 0.91369,-0.67976 0,-0.65908 8.98272,-6.32517 10.02758,-6.32517 0.46038,0 0.99197,-0.38251 1.18133,-0.85003 0.18935,-0.46752 0.63537,-0.67958 0.99116,-0.47125 0.35579,0.20834 0.64689,0.0726 0.64689,-0.30164 0,-0.37423 0.28905,-0.51117 0.64235,-0.30429 0.35329,0.20687 0.64234,0.14838 0.64234,-0.12999 0,-0.6052 4.52565,-2.97851 5.26462,-2.76084 0.28408,0.0837 0.51652,-0.0874 0.51652,-0.38018 0,-0.94644 16.61083,-6.78417 25.32475,-8.90016 9.25027,-2.24623 21.36698,-3.95889 27.96345,-3.95256 2.31107,0.002 7.5261,0.54778 11.58895,1.21236 4.06285,0.66457 9.69946,1.36553 12.52579,1.55768 9.62583,0.65442 31.4554,3.37755 38.54088,4.80778 10.66488,2.15274 11.18056,2.22611 7.70818,1.09673 -1.76646,-0.57453 -3.30869,-1.25768 -3.42719,-1.51811 -0.1185,-0.26043 -0.47982,-0.31871 -0.80294,-0.12951 -0.32311,0.1892 -0.93657,0.13959 -1.36324,-0.11025 -0.42667,-0.24984 -1.36611,-0.52729 -2.08764,-0.61655 -1.41062,-0.17452 -27.65305,-7.28522 -29.254,-7.92672 -0.52994,-0.21235 -1.50707,-0.48561 -2.1714,-0.60725 -0.66434,-0.12164 -3.69943,-0.90638 -6.74466,-1.74387 -9.78459,-2.69095 -29.78324,-4.27051 -42.46471,-3.35401 -45.93025,3.3194 -82.93449,23.34778 -104.82857,56.738 -17.55099,26.76664 -19.4907,59.53519 -5.27997,89.19713 1.16264,2.42677 1.91355,4.41651 1.66868,4.42163 -0.24487,0.005 -0.12118,0.21053 0.27487,0.45645 0.39604,0.24592 1.66098,2.2194 2.81097,4.38551 5.21273,9.81865 15.32266,22.50381 25.98616,32.60545 12.0498,11.4149 26.3387,21.20479 40.49872,27.74728 8.80391,4.06776 10.59173,4.53856 5.27927,1.3902 -2.02037,-1.19734 -3.6734,-2.42974 -3.6734,-2.73867 0,-0.30893 -0.2476,-0.49322 -0.55023,-0.40954 -0.89586,0.24772 -6.56672,-3.84158 -6.17023,-4.44939 0.20004,-0.30667 -0.0549,-0.40538 -0.56653,-0.21936 -0.53484,0.19445 -1.36811,-0.2541 -1.96041,-1.05528 -0.56659,-0.76642 -1.03978,-1.12715 -1.05154,-0.80163 -0.0118,0.32552 -0.5176,0.0308 -1.12411,-0.65492 -0.6065,-0.68574 -1.60858,-1.43027 -2.22684,-1.65453 -0.61826,-0.22427 -1.12411,-0.69576 -1.12411,-1.04776 0,-0.35201 1.51754,0.18988 3.37232,1.20417 1.85478,1.0143 3.2929,2.13567 3.19583,2.49193 -0.0971,0.35626 0.10372,0.48366 0.44621,0.28311 0.55456,-0.32473 6.9486,2.94274 7.75964,3.96532 0.17665,0.22273 0.91933,0.58155 1.65041,0.79739 2.05991,0.60816 5.45333,3.17901 4.92503,3.73119 -0.26022,0.27198 0.0327,0.32254 0.65098,0.11235 0.61826,-0.21019 1.12411,-0.16253 1.12411,0.10591 0,0.26843 0.36132,0.49548 0.80293,0.50456 0.44162,0.009 4.03202,1.85772 7.97867,4.1081 3.94666,2.25039 8.57156,4.47742 10.27757,4.94896 1.70601,0.47155 2.24016,0.74843 1.18701,0.61531 -1.63017,-0.20606 -1.75641,-0.13229 -0.84922,0.49621 1.27873,0.8859 0.65247,2.03149 -0.93732,1.71459 z M 242.78894,239.43954 c -0.47384,-0.72641 9.1286,-14.11972 11.45025,-15.97061 1.05346,-0.83984 1.68249,-1.52699 1.39784,-1.52699 -0.28464,0 0.11176,-0.6162 0.88089,-1.36934 0.76913,-0.75313 3.34574,-3.36475 5.7258,-5.80358 2.59183,-2.65584 4.67956,-4.3062 5.2055,-4.11499 0.48296,0.1756 0.71794,0.0737 0.52217,-0.22641 -0.19578,-0.30012 1.09924,-1.73479 2.87782,-3.18815 2.74285,-2.24133 3.3886,-3.19682 4.25371,-6.29405 0.56098,-2.00836 1.04889,-5.13156 1.08425,-6.94044 0.063,-3.22464 -10e-4,-3.34465 -3.30194,-6.14544 -8.60477,-7.30199 -24.98033,-11.42542 -35.34837,-8.90087 -15.53747,3.78327 -24.84323,22.38337 -20.06132,40.09799 1.41073,5.22607 3.01974,8.49855 5.62942,11.4494 0.98844,1.11766 1.36357,1.81859 0.83364,1.55762 -0.56389,-0.27769 -0.50142,-0.11528 0.1506,0.39156 0.61277,0.47633 0.90182,1.08828 0.64235,1.3599 -0.25948,0.27161 -0.13493,0.31117 0.27677,0.0879 0.4117,-0.22327 1.65059,0.3132 2.75309,1.19215 2.61301,2.08317 10.70624,5.10119 13.31849,4.96656 1.12537,-0.058 1.89444,-0.33799 1.70904,-0.62221 z m 207.89852,-38.79841 c -0.52993,-0.32448 -1.3971,-0.57491 -1.92704,-0.55651 -0.63532,0.0221 -0.52592,0.21163 0.32117,0.55651 1.76588,0.71894 2.78007,0.71894 1.60587,0 z m -3.85408,-1.21719 c -0.52994,-0.32448 -1.39711,-0.5749 -1.92705,-0.5565 -0.63532,0.0221 -0.52591,0.21162 0.32118,0.5565 1.76587,0.71894 2.78006,0.71894 1.60587,0 z M 346.50664,408.97337 c 0.46369,-0.1758 1.01771,-0.15418 1.23117,0.048 0.21344,0.20223 -0.16595,0.34607 -0.84309,0.31965 -0.7483,-0.0292 -0.9005,-0.17341 -0.38808,-0.36769 z M 506.89292,396.3985 c -5.26595,-1.6447 -10.33056,-4.80985 -9.56768,-5.97937 0.19202,-0.29437 -0.012,-0.45995 -0.45341,-0.36798 -0.4414,0.092 -1.49262,-0.99049 -2.33605,-2.40548 -1.21109,-2.0318 -1.38358,-2.79953 -0.8204,-3.65157 0.61008,-0.92301 0.65233,-0.87004 0.29244,0.36669 -0.26114,0.89733 -0.17761,1.30323 0.22023,1.07027 0.3525,-0.20641 1.10611,0.2974 1.67469,1.11956 1.34669,1.9473 1.31235,2.5023 -0.0903,1.46004 -1.02216,-0.7595 -1.04299,-0.73733 -0.22964,0.2445 0.49196,0.59386 1.04347,0.93856 1.22559,0.76602 0.18212,-0.17255 0.71905,-0.009 1.19316,0.36411 0.47413,0.3728 0.86204,0.47383 0.86204,0.22449 0,-0.24933 0.43715,-0.10959 0.97144,0.31053 0.70316,0.5529 0.78324,0.97872 0.28998,1.54182 -0.48607,0.55491 -0.45988,0.90771 0.0913,1.23048 0.4624,0.27076 0.60541,0.19592 0.35606,-0.18635 -0.22921,-0.35136 -0.005,-0.78869 0.49908,-0.97181 0.63216,-0.22984 0.8436,0.0223 0.68268,0.81401 -0.16093,0.79173 0.0505,1.04385 0.68267,0.81401 0.5037,-0.18312 0.74114,-0.60075 0.52763,-0.92805 -0.21349,-0.3273 0.50831,-0.15586 1.60402,0.38098 1.14517,0.56107 2.74561,0.83723 3.7642,0.64951 1.34308,-0.24751 1.46831,-0.20139 0.51737,0.19058 -1.08722,0.44814 -0.96936,0.57119 0.88323,0.92224 1.17582,0.22281 2.89663,0.36906 3.82402,0.32499 1.42984,-0.0679 1.34439,-0.14827 -0.56205,-0.52848 -1.72096,-0.34321 -1.02511,-0.46715 2.96701,-0.52848 12.49595,-0.19196 24.14115,-3.73142 33.00448,-10.03146 1.9431,-1.38115 3.72562,-2.51425 3.96115,-2.51801 0.23552,-0.004 0.66911,-0.25614 0.96352,-0.56085 0.311,-0.32188 0.19885,-0.37058 -0.26765,-0.11623 -1.07967,0.58867 -1.02712,-0.52592 0.0653,-1.3849 2.21461,-1.74139 5.01377,-9.3546 6.86913,-18.68281 1.54426,-7.76407 1.91854,-11.32924 1.97188,-18.78308 0.0627,-8.75761 -0.03,-9.47114 -1.92713,-14.83611 -3.30387,-9.34321 -7.17611,-14.06541 -13.81309,-16.84509 -5.23571,-2.1928 -7.45536,-2.34085 -14.84533,-0.99019 -3.53292,0.6457 -6.51447,1.09134 -6.62568,0.99028 -0.11121,-0.10104 1.29545,-0.65503 3.12593,-1.23106 2.37722,-0.7481 3.07735,-1.20029 2.45042,-1.58265 -0.5397,-0.32914 -0.0353,-0.38185 1.30979,-0.13684 1.57474,0.28683 2.05895,0.20135 1.72855,-0.30515 -0.31684,-0.48573 0.29867,-0.70152 1.98775,-0.6969 3.52485,0.01 7.29002,0.67874 6.92951,1.2314 -0.17011,0.2608 0.20547,0.34663 0.83465,0.19074 1.81613,-0.44997 6.90602,1.93363 10.11681,4.73771 9.74731,8.51265 14.1696,28.66738 10.5124,47.91071 -0.5173,2.72192 -0.91315,3.62365 -1.33585,3.04297 -0.39718,-0.54564 -0.46139,-0.15511 -0.18951,1.15271 0.27054,1.30141 0.16105,1.97794 -0.32011,1.97794 -0.40221,0 -0.56933,0.2483 -0.37136,0.55178 0.19796,0.30348 -0.18825,2.22055 -0.85826,4.26016 -0.67,2.03961 -1.03171,3.71258 -0.80378,3.7177 0.22792,0.005 0.0934,0.21053 -0.29891,0.45645 -0.91939,0.57631 -2.99843,4.40299 -2.39215,4.40299 0.25323,0 -10e-4,0.34234 -0.56497,0.76074 -0.56397,0.41841 -2.25636,2.13009 -3.76086,3.80372 -1.5045,1.67364 -2.98772,3.04297 -3.29606,3.04297 -0.30833,0 -0.82857,0.41081 -1.15609,0.9129 -0.32752,0.50209 -0.89509,0.94712 -1.26127,0.98896 -0.36618,0.0419 -0.97189,0.11031 -1.34603,0.15215 -0.37415,0.0419 -0.47233,0.41841 -0.21819,0.83682 0.25414,0.41841 0.23882,0.57031 -0.034,0.33756 -0.27286,-0.23274 -1.98128,0.35949 -3.79649,1.31607 -1.81521,0.95658 -5.75736,2.49181 -8.76034,3.4116 -4.71973,1.44562 -6.72271,1.69928 -14.77401,1.87094 -6.49286,0.13843 -10.0923,-0.0445 -11.88344,-0.6039 z m -2.19225,-3.02326 c -0.50285,-0.47643 -0.92306,-0.44712 -1.50125,0.10475 -0.6441,0.61477 -0.55972,0.67858 0.42654,0.32259 0.9243,-0.33362 1.09897,-0.24369 0.7037,0.36227 -0.36302,0.55651 -0.27888,0.66147 0.27176,0.33903 0.57433,-0.3363 0.60211,-0.6522 0.0992,-1.12864 z m 32.70378,-2.24397 c 0.52994,-0.32448 0.67447,-0.58995 0.32118,-0.58995 -0.35329,0 -1.07593,0.26547 -1.60587,0.58995 -0.52994,0.32448 -0.67447,0.58995 -0.32118,0.58995 0.3533,0 1.07594,-0.26547 1.60587,-0.58995 z m 5.75266,-2.42076 c 2.08394,-0.99669 3.94928,-2.05791 4.1452,-2.35825 0.28772,-0.44108 -7.60809,3.21178 -8.55963,3.95997 -0.89109,0.70065 1.14566,-0.0383 4.41443,-1.60172 z m 6.5339,-4.12163 c 0.79899,-0.96527 0.77627,-0.9868 -0.24253,-0.22978 -0.61826,0.45939 -1.12411,0.93866 -1.12411,1.06504 0,0.50089 0.52749,0.1785 1.36664,-0.83526 z m 13.83278,-25.25668 c -0.17819,-0.41841 -0.32399,-0.0761 -0.32399,0.76074 0,0.83682 0.1458,1.17915 0.32399,0.76074 0.1782,-0.41841 0.1782,-1.10307 0,-1.52148 z m -23.72391,-52.55469 c -0.21345,-0.20223 -0.76748,-0.22385 -1.23117,-0.048 -0.51242,0.19427 -0.36022,0.33849 0.38809,0.36769 0.67714,0.0264 1.05653,-0.11742 0.84308,-0.31965 z M 347.57717,394.3353 c -4.01821,-1.3665 -6.90107,-3.28299 -8.74679,-5.81476 l -1.4243,-1.95373 1.71993,1.47542 c 2.08596,1.78942 2.27552,1.03245 0.28345,-1.1319 -0.79007,-0.85839 -0.28422,-0.54722 1.1241,0.69149 4.03094,3.54544 8.11196,5.00471 13.80169,4.93514 2.64969,-0.0324 6.24941,-0.48882 7.99938,-1.01428 4.30918,-1.29389 4.46615,-0.8043 0.23584,0.73553 -1.87968,0.68421 -3.03761,1.25829 -2.57316,1.27573 0.46444,0.0175 2.29648,-0.56012 4.0712,-1.28346 2.62093,-1.06825 3.02651,-1.42136 2.16018,-1.8807 -0.58662,-0.31104 -1.84055,-0.40568 -2.78651,-0.21032 -0.94596,0.19536 0.30347,-0.63661 2.77651,-1.84883 3.79712,-1.86125 11.21357,-6.79101 13.48931,-8.96644 0.69197,-0.66147 0.22101,-0.37441 -6.61095,4.02937 -3.91817,2.5256 -12.75549,6.34813 -13.35754,5.77772 -0.11731,-0.11114 3.7495,-2.36263 8.59291,-5.00331 4.8434,-2.64068 9.90073,-5.47914 11.23849,-6.30771 l 2.43231,-1.50648 -1.72766,-1.70854 c -0.95022,-0.93969 -2.01716,-1.53902 -2.37097,-1.33184 -0.36349,0.21285 -0.44394,0.0711 -0.18497,-0.32594 0.26553,-0.40706 0.0686,-0.70263 -0.46818,-0.70263 -0.50958,0 -1.0853,-0.57529 -1.27937,-1.27842 -0.19973,-0.72363 -0.65729,-1.10016 -1.05436,-0.86766 -0.38582,0.22593 -0.62207,0.17918 -0.525,-0.10388 0.0971,-0.28306 -0.87752,-1.74122 -2.16578,-3.24036 -2.76469,-3.21727 -7.28955,-10.84351 -6.74171,-11.36255 0.21013,-0.1991 0.56368,0.0864 0.78566,0.63451 0.22198,0.54808 0.73464,0.81724 1.13923,0.59813 0.40459,-0.21911 0.54087,-0.19277 0.30283,0.0586 -1.00406,1.06 8.41796,14.23644 11.18231,15.63814 l 1.40709,0.71348 -1.18852,-1.7643 -1.1885,-1.76431 1.99261,1.76677 c 1.09593,0.97172 1.85365,1.9798 1.6838,2.24018 -0.16984,0.26037 0.0296,0.67158 0.44326,0.91379 0.4697,0.27504 0.57999,0.17658 0.29374,-0.26224 -0.54265,-0.8319 0.37946,-0.94285 1.25548,-0.15108 0.37316,0.33728 4.3504,-2.1324 10.23766,-6.35712 5.29508,-3.79976 10.20904,-7.04812 10.91992,-7.21856 0.92064,-0.22075 0.64569,0.21851 -0.95573,1.52681 l -2.24822,1.83672 2.71944,-1.63421 c 1.4957,-0.89882 2.56464,-1.87152 2.37544,-2.16157 -0.18919,-0.29005 0.0662,-0.37823 0.56751,-0.19596 0.51123,0.18587 1.8079,-0.51788 2.95275,-1.60258 1.12269,-1.06369 2.19494,-1.78837 2.38278,-1.61039 0.32676,0.30958 2.25066,-0.40105 9.73684,-3.59651 1.86525,-0.79617 3.74411,-1.45178 4.17526,-1.45691 0.50171,-0.006 0.44153,-0.21444 -0.16717,-0.57911 -0.89805,-0.53802 1.60792,-0.46684 9.26821,0.26324 1.70331,0.16234 2.23059,0.0586 1.60587,-0.31583 -0.51158,-0.30664 -2.51995,-0.58968 -4.46305,-0.62898 -3.387,-0.0685 -3.44712,-0.0975 -1.45561,-0.70315 2.28035,-0.69344 9.80613,0.44518 9.80613,1.48363 0,0.30875 0.24163,0.41987 0.53696,0.24694 0.89463,-0.52386 8.367,3.12549 13.87028,6.77397 2.85141,1.89037 8.72532,6.16229 13.05314,9.49314 10.14256,7.80609 10.24472,8.70768 1.41596,12.49632 -10.00812,4.29472 -35.97214,11.49714 -38.59875,10.70729 -0.74711,-0.22466 -1.20257,-0.16961 -1.01212,0.12235 0.44074,0.67565 -8.02689,0.39494 -14.31704,-0.47462 -6.50067,-0.89868 -15.25355,-3.71637 -21.67925,-6.97891 -2.91465,-1.47986 -5.29937,-2.49998 -5.29937,-2.26692 0,0.23306 -0.37432,-0.0613 -0.83183,-0.65408 -0.76548,-0.99185 -1.41876,-0.68671 -8.18994,3.82539 -4.04696,2.69676 -9.96605,6.1636 -13.15354,7.70409 -5.11437,2.47174 -6.39764,2.83339 -10.91991,3.07746 -3.89063,0.20999 -5.90104,0.0125 -8.34966,-0.82022 z m 6.11574,-0.74348 c -5.29573,-0.37786 -8.51014,-1.40575 -11.08445,-3.54453 -0.62042,-0.51547 -1.28744,-0.78618 -1.48227,-0.6016 -0.51669,0.48955 3.12786,2.8125 5.955,3.79557 1.3495,0.46926 4.58569,0.82333 7.25406,0.79368 l 4.81761,-0.0536 -5.45995,-0.38958 z m 80.45409,-4.0808 c -0.44161,-0.16883 -1.16425,-0.16883 -1.60587,0 -0.44161,0.16883 -0.0803,0.30697 0.80294,0.30697 0.88323,0 1.24455,-0.13814 0.80293,-0.30697 z m 7.39094,-4.78139 c 14.64301,-3.85 27.98101,-8.25652 28.80225,-9.51551 0.22158,-0.33968 -0.56869,-1.42948 -1.75616,-2.42177 -2.51216,-2.09925 -0.50493,-1.26711 2.31163,0.95834 l 1.90128,1.50225 -2.8648,1.23126 c -1.57564,0.67719 -2.43121,1.23625 -1.90128,1.24235 0.97024,0.0111 5.13879,-2.16164 5.13879,-2.67852 0,-0.15272 -1.80661,-1.58431 -4.01468,-3.1813 -2.20807,-1.59699 -3.61796,-2.4346 -3.13309,-1.86135 1.26518,1.49577 0.33141,1.28449 -2.10515,-0.47631 -1.15576,-0.83521 -2.31679,-1.31448 -2.58007,-1.06504 -0.26327,0.24944 -0.38233,0.0427 -0.26457,-0.45936 0.12506,-0.53318 -0.24318,-0.91583 -0.88533,-0.91996 -0.60469,-0.004 -1.47186,-0.40147 -1.92705,-0.88354 -0.69201,-0.73288 -0.66478,-0.78158 0.16621,-0.29723 0.54658,0.31858 0.44421,0.10144 -0.2275,-0.48253 -0.67171,-0.58398 -1.46027,-0.92185 -1.75235,-0.75082 -0.29208,0.17103 -0.74022,-0.01 -0.99586,-0.40159 -0.30987,-0.47504 -0.18452,-0.54843 0.37604,-0.22019 0.57312,0.33559 0.68629,0.25543 0.35545,-0.25176 -0.26697,-0.40926 -0.88049,-0.60047 -1.36338,-0.42491 -0.48288,0.17557 -1.07642,0.015 -1.31896,-0.35684 -0.28066,-0.43025 -0.11299,-0.52098 0.46118,-0.24953 0.4962,0.23458 0.18582,-0.0654 -0.68974,-0.66671 -0.87556,-0.60128 -2.10405,-1.5725 -2.72998,-2.15827 -0.62593,-0.58577 -1.27542,-1.07972 -1.44331,-1.09767 -0.16789,-0.018 -2.40808,-0.94761 -4.9782,-2.06592 -2.57011,-1.1183 -6.35422,-2.35922 -8.40913,-2.75759 -3.942,-0.7642 -10.34846,-0.3167 -9.6999,0.67756 0.22475,0.34454 -0.32946,0.40814 -1.3799,0.15835 -1.23244,-0.29307 -1.62131,-0.21175 -1.30516,0.27293 0.28101,0.43079 0.10665,0.56542 -0.46371,0.35806 -0.50273,-0.18278 -1.43653,0.16269 -2.07511,0.76771 -0.63858,0.60502 -1.25397,1.03158 -1.36752,0.9479 -0.64662,-0.4765 -1.74665,0.0412 -3.23277,1.52148 -0.92415,0.9205 -1.44595,1.26284 -1.15956,0.76075 0.28639,-0.5021 -0.0468,-0.36516 -0.74047,0.30429 -1.89371,1.82765 -23.47028,17.0588 -23.97229,16.92232 -0.2394,-0.0651 -0.43528,0.27309 -0.43528,0.75152 0,0.97764 9.00401,5.53747 14.88107,7.53608 5.05733,1.71986 14.60803,3.60165 18.55287,3.65551 2.0074,0.0274 8.56833,-1.38534 18.22549,-3.92444 z m -11.34734,-0.31548 c -0.85117,-0.34018 -1.95657,-1.09047 -2.45644,-1.66731 -0.56571,-0.65282 -0.72792,-0.70413 -0.42962,-0.1359 0.32895,0.62663 0.0506,0.55694 -0.88762,-0.22224 -4.09178,-3.39811 -1.34338,-16.13577 4.48402,-20.78155 1.41681,-1.12951 2.16441,-1.37732 2.75476,-0.91312 0.44562,0.35041 1.35272,0.4696 2.01575,0.26489 0.99487,-0.30716 1.03716,-0.25745 0.24201,0.28448 -0.81686,0.55673 -0.76797,0.66397 0.32117,0.70458 1.10322,0.0411 1.05972,0.13294 -0.30796,0.64996 -4.43171,1.67528 -8.47192,8.01058 -9.36304,14.68182 -0.1234,0.92379 0.0509,1.67962 0.38747,1.67962 0.33651,0 0.61183,0.36835 0.61183,0.81856 0,1.60361 2.62854,3.07933 6.13651,3.44517 1.9549,0.20386 3.49872,0.12058 3.49872,-0.18876 0,-0.3045 0.41491,-0.40278 0.92202,-0.21841 0.50711,0.18437 1.0624,0.008 1.23398,-0.39134 0.23796,-0.55419 0.32399,-0.55116 0.36267,0.0128 0.11879,1.73174 -6.63346,3.13288 -9.52623,1.97676 z m -3.28969,-14.88799 c 0,-0.33473 -0.2802,-0.1978 -0.62267,0.3043 -0.34248,0.50209 -0.62267,1.18676 -0.62267,1.52148 0,0.33473 0.28019,0.1978 0.62267,-0.3043 0.34247,-0.50209 0.62267,-1.18675 0.62267,-1.52148 z m 1.2847,-3.04298 c 0,-0.33472 -0.2802,-0.19779 -0.62268,0.3043 -0.34247,0.50209 -0.62267,1.18676 -0.62267,1.52149 0,0.33473 0.2802,0.19779 0.62267,-0.3043 0.34248,-0.50209 0.62268,-1.18676 0.62268,-1.52149 z m 5.72307,-4.42167 c 0.92288,0.68255 0.9423,0.65048 0.17087,-0.28215 -1.10765,-1.33909 -2.66271,-0.6302 -4.64188,2.11606 -1.40046,1.94323 -1.38227,1.93756 1.00171,-0.31243 2.06266,-1.94673 2.58475,-2.1757 3.4693,-1.52148 z m 5.04255,26.26769 c -0.21344,-0.20223 -0.76747,-0.22385 -1.23117,-0.048 -0.51242,0.19427 -0.36021,0.33849 0.38809,0.36769 0.67714,0.0264 1.05653,-0.11742 0.84308,-0.31965 z m 7.21678,-1.79649 c 3.55946,-1.24282 1.41501,-0.99496 -2.86755,0.33144 -2.11975,0.65653 -2.85274,1.02896 -1.62888,0.82764 1.22386,-0.20133 3.24725,-0.72292 4.49643,-1.15908 z m 8.6151,-2.46873 c 1.6719,-0.53974 2.92871,-1.0866 2.79291,-1.21526 -0.13579,-0.12865 -1.81353,0.29294 -3.72831,0.93687 -1.91478,0.64394 -3.17159,1.19081 -2.79291,1.21526 0.37868,0.0245 2.05642,-0.39713 3.72831,-0.93687 z m 8.76497,-3.05071 c 1.43497,-0.54399 2.49465,-1.09744 2.35484,-1.22991 -0.1398,-0.13246 -1.52481,0.29329 -3.07779,0.94609 -3.4389,1.44556 -2.89982,1.6572 0.72295,0.28382 z m 9.57228,-4.23807 c 1.08698,-0.86658 1.97633,-1.77361 1.97633,-2.01564 0,-0.24202 -0.93943,-1.05926 -2.08763,-1.81608 l -2.08763,-1.37604 1.80364,1.567 c 2.01417,1.74991 1.85359,2.35671 -1.07079,4.0462 -1.10965,0.64108 -1.67841,1.16662 -1.2639,1.16787 0.41451,0.001 1.64301,-0.70674 2.72998,-1.57331 z m -73.82074,-11.20978 c 1.23652,-1.05576 0.44161,-0.62457 -1.76646,0.95821 -2.20807,1.58279 -4.01467,2.99297 -4.01467,3.13375 0,0.37683 3.20023,-1.88833 5.78113,-4.09196 z m 65.90575,2.8957 c 0.25414,-0.41841 0.22553,-0.55772 -0.0636,-0.30958 -0.2891,0.24814 -0.98582,0.11121 -1.54826,-0.3043 -0.90481,-0.66842 -0.92105,-0.63275 -0.14104,0.30958 1.05074,1.26939 1.15563,1.2876 1.75288,0.3043 z m -1.48037,-2.56741 c -0.63475,-0.82629 -1.39756,-1.51096 -1.69513,-1.52149 -1.07238,-0.0379 -3.58017,-2.30416 -3.13069,-2.82915 0.25299,-0.29548 0.20356,-0.33993 -0.10986,-0.0988 -0.31341,0.24117 -1.46964,-0.14942 -2.56939,-0.86795 -1.09975,-0.71853 -1.76218,-1.05277 -1.47207,-0.74276 0.54156,0.57871 9.59812,7.42326 9.94066,7.51273 0.10482,0.0274 -0.32877,-0.6263 -0.96352,-1.4526 z m -10.1373,-7.00314 c -0.44589,-0.68355 -7.72914,-4.61626 -9.64489,-5.2079 -0.70658,-0.21822 0.88323,0.74634 3.53291,2.14346 2.64969,1.39712 5.09222,2.79177 5.42785,3.09921 0.80049,0.73329 1.1728,0.71437 0.68413,-0.0348 z M 353.53232,391.9454 c 0.44161,-0.16883 1.16425,-0.16883 1.60587,0 0.44161,0.16883 0.0803,0.30697 -0.80294,0.30697 -0.88322,0 -1.24455,-0.13814 -0.80293,-0.30697 z m -55.81312,-8.15339 -1.51645,-1.25331 1.76646,1.01901 c 0.97155,0.56046 1.76646,1.12445 1.76646,1.25331 0,0.47522 -0.53668,0.20401 -2.01647,-1.01901 z m 38.63031,-1.75374 c 0,-0.31497 0.28575,-0.74 0.63499,-0.9445 0.36412,-0.21322 0.47181,0.0311 0.25245,0.57267 -0.42703,1.05434 -0.88744,1.24725 -0.88744,0.37183 z m 156.73293,0.0359 c 0,-0.33473 0.28905,-0.77786 0.64235,-0.98473 0.35329,-0.20687 0.64234,-0.10226 0.64234,0.23247 0,0.33472 -0.28905,0.77785 -0.64234,0.98472 -0.3533,0.20687 -0.64235,0.10226 -0.64235,-0.23246 z m -157.32457,-2.25263 c 0.0308,-0.70898 0.18303,-0.85319 0.38808,-0.3677 0.18556,0.43933 0.16274,0.96425 -0.0507,1.16648 -0.21345,0.20223 -0.36526,-0.15723 -0.33737,-0.79878 z m -0.59164,-4.51374 c 0,-0.83682 0.1458,-1.17915 0.324,-0.76075 0.17819,0.41841 0.17819,1.10308 0,1.52149 -0.1782,0.41841 -0.324,0.0761 -0.324,-0.76074 z m 39.90299,-8.67248 c -2.08905,-2.15115 -5.31276,-7.27465 -4.93836,-7.8486 0.1864,-0.28577 0.0187,-0.51957 -0.37275,-0.51957 -0.39141,0 -1.22875,-1.09426 -1.86074,-2.43169 -0.63199,-1.33742 -1.38685,-2.22749 -1.67745,-1.97793 -0.2906,0.24956 -0.30046,0.0808 -0.0219,-0.37503 0.27854,-0.45584 0.21667,-1.00358 -0.13749,-1.21719 -0.35417,-0.21363 -0.85856,-1.34695 -1.12085,-2.51849 -0.26231,-1.17154 -0.33357,-1.99315 -0.15836,-1.82578 0.1752,0.16736 2.26406,3.5907 4.64191,7.60743 2.37785,4.01672 5.02649,8.46707 5.88586,9.88966 1.75872,2.91133 1.69912,3.2138 -0.23986,1.21719 z m 39.0044,-11.37682 c 1.7497,-1.33412 1.33922,-1.6477 -0.76209,-0.5822 -0.96926,0.49147 -1.20197,0.4884 -0.87583,-0.0116 0.24428,-0.37448 1.85936,-1.36034 3.58908,-2.1908 3.3949,-1.62992 5.32965,-2.06628 2.3279,-0.52502 -1.00278,0.51488 -1.67791,1.07384 -1.50029,1.24213 0.17762,0.16829 0.95057,-0.0123 1.71767,-0.40123 0.7671,-0.38897 1.48987,-0.61656 1.60616,-0.50576 0.11629,0.1108 -1.57054,1.10089 -3.74851,2.20019 -2.17798,1.0993 -3.23731,1.44773 -2.35409,0.77428 z m -46.51284,-21.78793 c -0.20821,-0.19726 -0.37856,-1.27156 -0.37856,-2.38732 0,-2.03076 0.069,-2.07958 3.21174,-2.27349 0.52993,-0.0327 1.05589,-0.67566 1.16878,-1.4288 0.16717,-1.11523 -0.10102,-1.36933 -1.44528,-1.36933 -1.12522,0 -1.65055,0.32928 -1.65055,1.03461 0,0.77059 -0.18568,0.85868 -0.72764,0.3452 -1.25206,-1.18627 -0.18975,-2.3475 2.10165,-2.29736 l 2.15891,0.0472 0.18248,4.23887 0.18249,4.23887 -2.21273,0.1051 c -1.21699,0.0578 -2.38307,-0.0563 -2.59129,-0.25359 z m 3.95729,-2.28589 c 0,-1.19583 -0.32653,-1.52149 -1.52558,-1.52149 -1.19905,0 -1.52558,0.32566 -1.52558,1.52149 0,1.19583 0.32653,1.52149 1.52558,1.52149 1.19905,0 1.52558,-0.32566 1.52558,-1.52149 z m 3.49813,-1.29836 c -0.13256,-4.57429 0.31877,-5.21689 3.24652,-4.62232 1.17054,0.23771 1.6078,2.57341 0.48176,2.57341 -0.35329,0 -0.64235,-0.4108 -0.64235,-0.91289 0,-0.50209 -0.5649,-0.91289 -1.25534,-0.91289 -1.09939,0 -1.28327,0.51037 -1.48006,4.10801 l -0.22472,4.10801 z m 6.42348,-3e-5 c -0.11834,-4.08377 -0.0386,-4.35715 1.34372,-4.60752 0.80824,-0.14639 1.81994,-0.15549 2.24822,-0.0202 0.93341,0.29476 1.05416,2.57885 0.13634,2.57885 -0.35329,0 -0.64235,-0.4108 -0.64235,-0.91289 0,-0.50209 -0.5649,-0.91289 -1.25534,-0.91289 -1.09939,0 -1.28327,0.51037 -1.48006,4.10801 l -0.22472,4.10801 z m 6.75635,3.66018 c -0.70912,-0.67186 -0.54203,-8.13554 0.18367,-8.2043 4.29668,-0.40709 4.17526,-0.52478 4.17526,4.04716 v 4.22973 l -1.95013,0.18099 c -1.07257,0.0995 -2.15653,-0.0145 -2.4088,-0.25358 z m 3.39541,-4.18757 c 0,-3.10094 -0.1103,-3.34727 -1.49881,-3.34727 -1.38851,0 -1.49881,0.24633 -1.49881,3.34727 0,3.10093 0.1103,3.34727 1.49881,3.34727 1.38851,0 1.49881,-0.24634 1.49881,-3.34727 z m 3.67042,4.18757 c -0.25227,-0.23902 -0.45868,-2.16907 -0.45868,-4.28901 0,-2.99038 0.216,-3.86959 0.96352,-3.92205 3.58837,-0.25184 3.85892,-0.17537 4.05936,1.14738 0.11289,0.74504 -0.1039,1.35462 -0.48177,1.35462 -0.37786,0 -0.68702,-0.4108 -0.68702,-0.91289 0,-0.50716 -0.57098,-0.91289 -1.2847,-0.91289 -1.12897,0 -1.28469,0.40573 -1.28469,3.34727 0,2.94154 0.15572,3.34727 1.28469,3.34727 0.71372,0 1.2847,-0.40573 1.2847,-0.91289 0,-0.50209 0.30916,-0.9129 0.68702,-0.9129 0.37787,0 0.59466,0.61621 0.48177,1.36934 -0.15377,1.02578 -0.69454,1.41475 -2.1554,1.55033 -1.07257,0.0995 -2.15653,-0.0145 -2.4088,-0.25358 z m 7.2495,-3.77373 c 0,-3.78075 0.14238,-4.26302 1.34665,-4.5614 2.20962,-0.54747 3.14979,0.16499 3.14979,2.38689 0,1.88867 -0.16452,2.06496 -1.92705,2.06496 -1.62728,0 -1.92704,0.23668 -1.92704,1.52149 0,1.2032 0.32474,1.52149 1.55234,1.52149 0.85378,0 1.71586,-0.34234 1.91571,-0.76075 0.19986,-0.4184 0.29385,-0.213 0.20886,0.45645 -0.11286,0.88902 -0.71595,1.26861 -2.23689,1.4079 l -2.08237,0.19071 z m 3.73818,-2.44687 c 0.16494,-1.05607 -0.11897,-1.31424 -1.44529,-1.31424 -1.17229,0 -1.65054,0.32329 -1.65054,1.11575 0,1.42336 0.45901,1.84428 1.81025,1.66004 0.59417,-0.081 1.17268,-0.73871 1.28558,-1.46155 z m 3.32765,2.37324 c 0,-4.17675 0.0446,-4.29608 1.60587,-4.29608 0.88323,0 1.82266,-0.0108 2.08763,-0.0241 0.26497,-0.0133 0.57413,0.53447 0.68702,1.21719 0.1129,0.68272 -0.1039,1.2413 -0.48176,1.2413 -0.37786,0 -0.61476,-0.32607 -0.52643,-0.7246 0.0883,-0.39853 -0.34527,-0.82941 -0.96353,-0.95752 -0.97322,-0.20165 -1.12411,0.25838 -1.12411,3.42736 0,2.01315 -0.28905,3.82953 -0.64234,4.03641 -0.40506,0.23718 -0.64235,-1.21088 -0.64235,-3.91995 z m 6.42348,-0.0359 c 0,-2.43437 0.27529,-4.26016 0.64235,-4.26016 0.36705,0 0.64235,1.82579 0.64235,4.26016 0,2.43438 -0.2753,4.26017 -0.64235,4.26017 -0.36706,0 -0.64235,-1.82579 -0.64235,-4.26017 z m 3.63181,3.84671 c -0.76443,-0.72427 -0.449,-4.45277 0.38286,-4.5255 0.44162,-0.0386 1.092,-0.13383 1.44529,-0.2116 0.35329,-0.0778 1.00367,-0.18311 1.44528,-0.2341 0.44162,-0.051 0.80294,-0.64043 0.80294,-1.30988 0,-0.88142 -0.42824,-1.21719 -1.55235,-1.21719 -0.85378,0 -1.68138,0.34233 -1.8391,0.76074 -0.15772,0.41841 -0.52386,0.55078 -0.81364,0.29415 -0.80007,-0.70852 0.44432,-1.55799 2.59922,-1.77433 l 1.92704,-0.19346 0.18405,4.26017 0.18404,4.26016 -2.17278,0.14441 c -1.19503,0.0794 -2.36181,-0.0347 -2.59285,-0.25357 z m 4.07637,-2.32522 c 0,-1.21719 -0.32118,-1.52149 -1.60587,-1.52149 -1.2847,0 -1.60587,0.3043 -1.60587,1.52149 0,1.21719 0.32117,1.52149 1.60587,1.52149 1.28469,0 1.60587,-0.3043 1.60587,-1.52149 z m 8.99287,-1.52149 v -4.26016 h 2.24822 c 1.81998,0 2.24822,0.23185 2.24822,1.21719 0,0.66945 -0.28906,1.21719 -0.64235,1.21719 -0.35329,0 -0.64235,-0.43088 -0.64235,-0.95751 0,-0.57011 -0.43775,-0.87765 -1.08191,-0.76011 -0.89841,0.16392 -1.05412,0.84241 -0.91808,4.00048 0.10311,2.39379 -0.091,3.80309 -0.52396,3.80309 -0.42332,0 -0.68779,-1.63816 -0.68779,-4.26017 z m 6.88215,3.88328 c -0.25226,-0.23902 -0.45867,-2.16907 -0.45867,-4.28901 v -3.85443 h 1.92704 c 1.05988,0 2.14384,0 2.40881,0 0.26497,0 0.48176,0.89007 0.48176,1.97793 0,1.72435 -0.24706,2.01695 -1.92704,2.28223 -2.46574,0.38936 -2.85964,2.79034 -0.52709,3.21281 0.96881,0.17547 1.49061,-0.02 1.49061,-0.55852 0,-0.45568 0.31025,-0.8285 0.68944,-0.8285 0.3792,0 0.59363,0.47927 0.4765,1.06504 -0.21895,1.09512 -3.66226,1.8443 -4.56136,0.99245 z m 3.39542,-6.14287 c 0,-1.05724 -0.36475,-1.39197 -1.5168,-1.39197 -1.2599,0 -1.46625,0.25048 -1.2184,1.47893 0.39916,1.9783 2.7352,1.90404 2.7352,-0.087 z m 3.67041,6.14287 c -0.68982,-0.65358 -0.55118,-2.66609 0.18368,-2.66609 0.35329,0 0.64234,0.41081 0.64234,0.9129 0,0.50716 0.57098,0.91289 1.2847,0.91289 1.86749,0 1.57395,-1.48699 -0.64235,-3.25388 -2.03432,-1.62182 -2.58907,-3.99699 -0.96352,-4.12533 3.48102,-0.27484 4.17526,-0.0598 4.17526,1.29326 0,0.66945 -0.28905,1.21719 -0.64235,1.21719 -0.35329,0 -0.64234,-0.4108 -0.64234,-0.91289 0,-0.50716 -0.57098,-0.91289 -1.2847,-0.91289 -1.89918,0 -1.55997,1.59652 0.67129,3.15948 2.67254,1.87206 2.47155,4.36492 -0.3732,4.62894 -1.07257,0.0995 -2.15654,-0.0145 -2.40881,-0.25358 z m 8.05244,-0.0262 c -0.51537,-0.19703 -0.80293,-1.59658 -0.80293,-3.90782 0,-1.99484 -0.2865,-3.60085 -0.64235,-3.60085 -0.35329,0 -0.64235,-0.29004 -0.64235,-0.64452 0,-0.35448 0.28906,-0.47525 0.64235,-0.26838 0.36431,0.21333 0.64235,-0.29798 0.64235,-1.18127 0,-0.85657 0.28905,-1.5574 0.64234,-1.5574 0.35329,0 0.64235,0.66184 0.64235,1.47077 0,0.80892 0.36132,1.60891 0.80294,1.77774 0.64234,0.24557 0.64234,0.31657 0,0.35501 -0.97915,0.0586 -1.13834,6.74259 -0.16059,6.74259 0.35329,0 0.64235,0.27387 0.64235,0.60859 0,0.64749 -0.468,0.70194 -1.76646,0.20554 z m 3.82051,-2.2486 c 0.17789,-2.31005 0.34223,-2.51855 1.96062,-2.4875 1.42664,0.0274 1.76646,-0.23605 1.76646,-1.36934 0,-0.9975 -0.37146,-1.40323 -1.2847,-1.40323 -0.70658,0 -1.28469,0.27386 -1.28469,0.60859 0,0.33473 -0.31026,0.6086 -0.68945,0.6086 -0.37919,0 -0.59583,-0.4606 -0.4814,-1.02355 0.14757,-0.726 0.86151,-1.02408 2.4559,-1.02537 l 2.24786,-0.002 0.18617,4.25274 0.18618,4.25274 -2.62856,0.0548 -2.62855,0.0548 0.19416,-2.5214 z m 3.72708,-0.087 c 0,-1.21719 -0.32117,-1.52149 -1.60587,-1.52149 -1.2847,0 -1.60587,0.3043 -1.60587,1.52149 0,1.21719 0.32117,1.52149 1.60587,1.52149 1.2847,0 1.60587,-0.3043 1.60587,-1.52149 z m 3.63181,2.32522 c -0.68564,-0.64962 -0.48117,-8.10687 0.22228,-8.10687 0.35686,0 0.64235,1.62292 0.64235,3.65157 0,3.47033 0.0782,3.65157 1.57521,3.65157 1.47972,0 1.58905,-0.23063 1.80328,-3.80372 l 0.22806,-3.80372 0.12248,4.26017 0.12248,4.26016 -2.14803,0.14441 c -1.18142,0.0794 -2.33707,-0.0347 -2.56811,-0.25357 z m 7.41392,-3.62361 c -0.11835,-4.08377 -0.0386,-4.35715 1.34371,-4.60752 0.80824,-0.14639 1.81994,-0.15549 2.24822,-0.0202 0.92121,0.29094 1.06006,2.57887 0.1565,2.57887 -0.3422,0 -0.4558,-0.4108 -0.25245,-0.91289 0.26935,-0.66503 -0.077,-0.91289 -1.2755,-0.91289 -1.58074,0 -1.65406,0.16106 -1.86996,4.10801 l -0.22471,4.10802 -0.12581,-4.34136 z m 6.29767,1.63932 c 0,-1.85091 0.28806,-2.47561 1.27895,-2.77358 0.70342,-0.21152 1.57059,-0.21382 1.92704,-0.005 0.37141,0.21726 0.6481,-0.28562 0.6481,-1.17813 0,-1.15167 -0.33469,-1.5574 -1.2847,-1.5574 -0.70658,0 -1.2847,0.27386 -1.2847,0.60859 0,0.33473 -0.28905,0.6086 -0.64234,0.6086 -0.3533,0 -0.64235,-0.41081 -0.64235,-0.9129 0,-0.65931 0.71372,-0.91289 2.56939,-0.91289 h 2.56939 v 4.1604 4.16039 l -2.56939,0.0954 -2.56939,0.0954 z m 3.85409,-0.34093 c 0,-1.21719 -0.32118,-1.52149 -1.60587,-1.52149 -1.2847,0 -1.60587,0.3043 -1.60587,1.52149 0,1.21719 0.32117,1.52149 1.60587,1.52149 1.28469,0 1.60587,-0.3043 1.60587,-1.52149 z m 3.21135,-1.67363 -3.8e-4,-4.41232 2.40919,0.0622 2.40919,0.0623 0.0504,4.50221 0.0504,4.50221 -0.24038,-4.10801 c -0.22781,-3.89389 -0.32251,-4.10801 -1.81687,-4.10801 -1.5121,0 -1.57652,0.16164 -1.57652,3.95586 0,2.23152 -0.28,3.95587 -0.64234,3.95587 -0.36914,0 -0.64251,-1.87674 -0.64274,-4.41231 z m 8.35091,0.50716 c 0,-2.55376 -0.27786,-4.01197 -0.80293,-4.21383 -0.58821,-0.22613 -0.60809,-0.44313 -0.0743,-0.81146 0.40074,-0.27653 0.87306,-1.05052 1.0496,-1.71997 0.24844,-0.94215 0.3378,-0.84332 0.39548,0.43735 0.0543,1.20566 0.33591,1.55949 1.03803,1.30422 0.52994,-0.19267 0.96352,-0.0472 0.96352,0.3234 0,0.37054 -0.43358,0.67371 -0.96352,0.67371 -0.73967,0 -0.96352,0.77765 -0.96352,3.34727 0,2.56962 0.22385,3.34727 0.96352,3.34727 0.52994,0 0.96352,0.27387 0.96352,0.60859 0,0.33473 -0.57811,0.6086 -1.28469,0.6086 -1.15122,0 -1.2847,-0.40573 -1.2847,-3.90515 z m 4.49644,-0.24551 c 0,-3.92173 0.10637,-4.24704 1.46952,-4.49393 2.3521,-0.42601 3.02692,0.0879 3.02692,2.30506 0,1.90467 -0.1619,2.07936 -1.92705,2.07936 -1.62728,0 -1.92704,0.23668 -1.92704,1.52149 0,1.2032 0.32474,1.52149 1.55234,1.52149 0.85378,0 1.71586,-0.34234 1.91571,-0.76075 0.19986,-0.4184 0.29385,-0.213 0.20886,0.45645 -0.11286,0.88902 -0.71595,1.26861 -2.23689,1.4079 l -2.08237,0.19071 z m 3.85409,-2.609 c 0,-0.82315 -0.45849,-1.15207 -1.60587,-1.15207 -1.15437,0 -1.60587,0.32796 -1.60587,1.16647 0,0.64156 0.36132,1.28588 0.80293,1.43184 1.31912,0.43595 2.40881,-0.21829 2.40881,-1.44624 z m -153.62965,0.98692 c 3.20189,-0.94667 4.47575,-1.91253 7.90981,-5.99736 3.80412,-4.52503 3.32083,-4.95632 -2.82315,-2.5194 -5.97975,2.37178 -9.12884,5.04166 -8.664,7.34556 0.15866,0.78636 0.0412,1.28494 -0.26108,1.10795 -1.28828,-0.75436 -0.51907,-4.04876 1.3268,-5.68246 1.65637,-1.46597 11.09724,-5.5222 12.85291,-5.5222 0.36443,0 0.84348,-0.68278 1.06454,-1.51729 0.22107,-0.8345 0.58789,-1.40799 0.81517,-1.27442 0.22729,0.13358 0.31231,-1.11151 0.18896,-2.76686 l -0.22429,-3.00972 -1.79633,2.68367 c -1.93227,2.88678 -4.15562,4.66743 -5.82782,4.66743 -1.36504,0 -3.16318,-1.91506 -3.1879,-3.3952 -0.0188,-1.12551 -0.046,-1.12371 -0.72603,0.0479 -1.66836,2.87434 -5.15381,4.209 -6.83414,2.61696 -1.18018,-1.11817 -0.92851,-2.95458 0.83505,-6.09334 1.77804,-3.16453 1.97771,-4.13105 0.85341,-4.13105 -1.16078,0 -6.12534,5.17663 -7.61147,7.93663 -1.3853,2.57273 -3.01789,3.67083 -3.76188,2.53028 -0.28021,-0.42956 -0.76915,-0.46427 -1.38045,-0.098 -1.26506,0.75798 -4.2695,0.7351 -5.80641,-0.0442 -0.75039,-0.38044 -1.24247,-1.27117 -1.24247,-2.24896 v -1.619 l -2.17426,2.249 c -2.5731,2.66156 -4.60148,2.90952 -5.66749,0.69281 -0.64676,-1.34489 -0.46861,-2.09372 1.31196,-5.51479 2.19807,-4.22323 2.17264,-5.1009 -0.14776,-5.1009 -1.19374,0 -1.9536,0.93813 -4.12922,5.09801 -2.99532,5.72718 -4.79893,7.23587 -8.31643,6.95658 -1.74199,-0.13831 -2.59402,-0.59225 -3.27286,-1.74369 -1.06871,-1.81273 -0.5757,-5.49994 0.92558,-6.92233 0.52867,-0.5009 0.94624,-1.06033 0.92793,-1.24318 -0.0989,-0.98719 2.27711,-3.38693 4.2169,-4.25906 2.91666,-1.31132 4.76339,-0.75606 4.76339,1.43223 0,2.09252 -2.81273,4.74713 -6.19048,5.84248 -2.28112,0.73974 -2.49717,1.00625 -2.67903,3.30471 -0.22034,2.78482 0.64451,3.50515 3.4169,2.84589 2.90496,-0.69079 7.1563,-7.92297 9.15311,-15.57087 0.70241,-2.69022 2.72298,-3.32409 2.72298,-0.85422 0,0.91869 -0.47839,2.17117 -1.06308,2.7833 -1.01543,1.06308 -0.92905,1.11296 1.92704,1.11296 1.64457,0 2.99012,0.20821 2.99012,0.4627 0,0.25448 -1.00817,2.65082 -2.24037,5.3252 -2.55357,5.54226 -2.70321,6.38565 -1.13195,6.37984 1.25674,-0.005 3.49611,-2.854 5.63531,-7.1703 2.31484,-4.67073 6.66115,-7.55232 9.34133,-6.1933 1.61455,0.81867 1.56758,1.77116 -0.21211,4.30099 -1.02991,1.46401 -2.34231,2.33453 -4.49389,2.98082 -2.63982,0.79294 -3.09123,1.17365 -3.43567,2.89749 -0.46766,2.34065 0.54631,3.79705 2.64357,3.79705 1.69917,0 5.40104,-3.63016 6.67618,-6.54686 0.47453,-1.0854 1.13382,-1.97346 1.4651,-1.97346 0.33128,0 0.45572,-0.22475 0.27653,-0.49945 -0.17918,-0.27469 0.2331,-1.37016 0.91618,-2.43438 0.91785,-1.42998 1.70541,-1.9325 3.01786,-1.92561 0.99291,0.005 1.45429,0.20645 1.04645,0.45644 -0.40119,0.24592 -1.6608,1.94699 -2.79913,3.78016 l -2.06969,3.33302 2.89587,-2.52904 c 2.80882,-2.45305 8.00079,-5.40585 8.5651,-4.87119 0.15304,0.145 -0.88667,2.54596 -2.31046,5.33547 -2.65273,5.19725 -3.24341,7.8749 -1.73716,7.8749 1.29241,0 3.29442,-2.32961 5.57956,-6.49261 3.50516,-6.38559 7.66954,-8.90513 11.93064,-7.21828 1.20636,0.47756 2.19338,1.15614 2.19338,1.50794 0,0.96464 -1.09555,0.7673 -1.51699,-0.27324 -1.14427,-2.82525 -7.22982,1.18419 -9.98655,6.57961 -1.67529,3.27884 -1.56488,4.90821 0.35021,5.16831 1.61478,0.21932 5.59791,-3.87532 6.77827,-6.96802 0.84568,-2.21582 2.36179,-3.1114 3.23285,-1.90969 0.59031,0.81438 0.2246,6.71751 -0.54167,8.74341 -0.33445,0.88422 0.048,0.73517 1.57892,-0.61531 1.11115,-0.9802 3.33728,-4.19814 4.94695,-7.15099 2.7349,-5.01703 3.05829,-5.36881 4.93544,-5.36881 h 2.00878 l -1.32693,1.36934 c -1.90195,1.96275 -5.3205,8.67391 -5.3205,10.44499 0,4.12462 3.24343,1.42967 7.70408,-6.4013 2.53532,-4.45092 3.15598,-5.13531 4.82019,-5.31514 1.80857,-0.19544 1.85476,-0.14689 0.86849,0.91289 -1.296,1.39256 -4.39492,7.19689 -5.1183,9.58665 -0.35105,1.15971 -0.2843,2.07596 0.19074,2.61827 0.60023,0.68523 1.11423,0.48211 2.87744,-1.13705 2.54996,-2.34165 2.90933,-1.64046 0.42063,0.82069 -2.19002,2.16577 -4.51182,2.24873 -5.33767,0.19073 -0.33463,-0.83391 -0.41391,-1.99784 -0.17617,-2.58653 0.23774,-0.58867 -0.73731,0.0936 -2.16678,1.51621 -1.42947,1.42259 -3.18651,2.58653 -3.90454,2.58653 -1.69348,0 -2.98655,-1.50253 -2.57532,-2.99248 0.50658,-1.83534 -4.62973,3.474 -6.4275,6.64404 -1.92345,3.39166 -6.14373,7.57166 -8.89223,8.80738 -1.13785,0.51158 -3.03684,0.91182 -4.21997,0.88942 l -2.15114,-0.0407 2.78211,-0.82256 z m -40.0291,-21.01081 c 2.03316,-1.19054 4.10417,-4.51629 3.29172,-5.28605 -0.83974,-0.79561 -3.57729,1.05456 -5.52124,3.73153 -1.63266,2.24829 -1.81118,2.77709 -0.93751,2.77709 0.59353,0 2.01869,-0.55016 3.16703,-1.22257 z m 22.14472,0.31315 c 3.07814,-1.50813 5.31357,-5.78512 3.02367,-5.78512 -0.98129,0 -4.46126,3.35018 -5.53149,5.3252 -0.89337,1.64862 -0.18393,1.77873 2.50782,0.45992 z m 95.07461,20.99304 c 0,-0.33472 0.72264,-0.60859 1.60587,-0.60859 0.88323,0 1.60587,0.27387 1.60587,0.60859 0,0.33473 -0.72264,0.6086 -1.60587,0.6086 -0.88323,0 -1.60587,-0.27387 -1.60587,-0.6086 z m -10.91992,-4.75832 c 0,-0.73551 1.21866,-1.59305 1.66413,-1.17099 0.16168,0.15318 -0.14661,0.62494 -0.68508,1.04835 -0.61048,0.48003 -0.97905,0.5262 -0.97905,0.12264 z m 12.26396,-6.85975 c -2.33815,-1.3472 -2.90807,-3.15111 -2.46341,-7.79718 0.33894,-3.54153 2.51654,-8.43915 5.33591,-12.00094 l 1.50345,-1.89935 -2.53882,-1.93304 c -2.07276,-1.57819 -2.53883,-2.31882 -2.53883,-4.03445 0,-1.15578 0.30854,-2.10141 0.68564,-2.10141 0.3771,0 0.51656,0.50471 0.30992,1.12157 -0.41187,1.22948 1.53502,3.96757 3.54622,4.98737 1.027,0.52075 1.93663,0.0562 5.50234,-2.80968 9.2095,-7.40212 19.99188,-9.65783 24.35089,-5.09428 2.75663,2.88598 0.71144,6.91677 -4.84699,9.5528 -3.24104,1.53702 -4.14321,1.67544 -10.91992,1.67544 -4.06285,0 -8.12139,-0.19622 -9.01896,-0.43606 -1.48878,-0.3978 -1.86969,-0.071 -4.34164,3.7244 -2.7675,4.24922 -5.2675,10.17944 -5.2675,12.49498 0,3.81433 4.15945,5.11508 8.95084,2.79914 3.43029,-1.65805 10.01855,-8.02309 13.85463,-13.38523 1.76567,-2.46808 3.57148,-4.60148 4.01291,-4.74089 1.3607,-0.42974 0.90758,2.34121 -0.71214,4.35497 -4.32466,5.37672 -6.89649,13.76107 -4.74101,15.45597 2.35667,1.85308 5.69406,-1.19526 10.7705,-9.83767 2.15432,-3.66765 3.29163,-5.00427 4.3844,-5.15276 l 1.47552,-0.2005 -1.47834,2.43369 c -0.81309,1.33853 -1.65393,2.33088 -1.86854,2.20521 -0.21461,-0.12567 -0.43224,0.1018 -0.48362,0.50549 -0.33825,2.65743 -0.64264,3.46801 -2.27534,6.05917 -1.20368,1.91029 -2.2574,2.89083 -3.10661,2.89083 -0.7068,0 -2.12172,0.56442 -3.14426,1.25429 -1.27193,0.8581 -2.61839,1.19451 -4.26273,1.06504 -3.08389,-0.24282 -3.94632,-2.13901 -2.98826,-6.57017 l 0.6538,-3.02394 -3.25798,2.89956 c -6.33536,5.63839 -11.57089,7.5607 -15.08207,5.53763 z m 22.78662,-21.29299 c 7.08458,-1.21849 11.33358,-4.84711 10.28978,-8.78739 -0.24385,-0.92053 -1.12519,-1.81783 -2.16039,-2.19953 -2.5294,-0.93264 -8.59914,-0.26003 -11.94637,1.32381 -2.74688,1.29977 -10.97558,8.41423 -10.38224,8.97639 1.3091,1.24031 8.85784,1.6054 14.19922,0.68672 z M 257.3407,316.46361 c -1.84934,-0.9068 -2.28248,-1.48955 -2.44129,-3.28455 -0.23328,-2.63671 0.77917,-3.58571 4.30322,-4.03355 2.00398,-0.25467 3.49793,0.0943 6.93044,1.61895 l 4.37576,1.9436 1.70982,-1.93342 c 0.9404,-1.06339 2.9638,-4.10481 4.49644,-6.75872 4.27889,-7.40932 8.6446,-13.94764 11.21901,-16.8022 l 2.3327,-2.58652 -6.98842,0.009 c -8.08331,0.011 -13.02748,0.95218 -17.21449,3.277 -5.50339,3.05572 -8.05309,8.9994 -4.89869,11.41945 2.88764,2.21539 8.19995,0.69472 9.67761,-2.77027 0.53847,-1.26266 0.54883,-1.26067 0.58883,0.11312 0.0824,2.82933 -4.48646,5.29861 -8.45402,4.56908 -7.10654,-1.30671 -6.51221,-10.2896 0.95505,-14.43489 4.77871,-2.65281 9.51787,-3.47309 19.10195,-3.30629 6.30423,0.10972 9.11012,-0.0728 10.27757,-0.66863 1.56439,-0.7984 1.57714,-0.78885 0.49329,0.36988 -1.07926,1.15382 -1.01715,1.22196 2.07316,2.27483 4.31353,1.46962 7.33995,4.70926 6.79794,7.27689 -0.61302,2.90403 -3.29159,5.11027 -7.21405,5.94195 l -3.43719,0.72879 2.57314,1.0915 c 8.27671,3.51087 7.70718,11.14748 -1.13325,15.1956 -4.14781,1.89932 -10.95387,1.92323 -17.32918,0.0609 l -4.65034,-1.35845 -2.65804,1.28478 c -3.77337,1.82388 -8.6599,2.1479 -11.48697,0.7617 z m 10.40362,-1.7835 2.12216,-1.05052 -4.08881,-1.75435 c -4.57544,-1.96315 -6.90197,-1.99405 -8.21482,-0.10911 -0.78368,1.12518 -0.72354,1.47065 0.51593,2.96358 1.27921,1.54081 1.67394,1.65953 4.4732,1.34542 1.68859,-0.18948 4.02514,-0.81723 5.19234,-1.39502 z m 22.09313,0.69731 c 4.91017,-1.94379 7.26829,-4.63249 7.30606,-8.33027 0.0295,-2.88733 -2.27681,-4.78994 -7.98975,-6.59118 -2.31071,-0.72855 -4.03574,-1.57843 -3.8334,-1.88863 0.20235,-0.31019 2.17916,-0.52677 4.39292,-0.48129 2.21377,0.0455 4.57954,-0.20191 5.25726,-0.54976 2.04543,-1.04985 4.64625,-3.98002 5.1098,-5.75688 0.36003,-1.38005 0.0756,-1.99164 -1.62686,-3.49842 -1.13474,-1.00431 -2.97253,-2.06853 -4.08399,-2.36496 -2.5472,-0.67933 -2.27461,-0.99026 -10.37135,11.83049 -3.53291,5.59418 -7.64512,11.46824 -9.13823,13.05346 l -2.71476,2.88221 3.3571,0.96356 c 6.27053,1.79976 11.02422,2.04239 14.3352,0.73167 z m 96.48418,-0.77693 c -1.53861,-1.68505 -1.77537,-3.6996 -0.71973,-6.12411 2.25354,-5.17576 7.08108,-8.81791 9.83617,-7.42091 0.71068,0.36036 1.29216,1.22069 1.29216,1.91184 0,1.32187 -3.84809,5.39508 -5.09691,5.39508 -0.40091,0 0.29283,-0.84998 1.54164,-1.88883 2.27984,-1.89654 3.14382,-4.80571 1.42723,-4.80571 -0.94153,0 -3.55863,2.49427 -5.21401,4.96931 -1.02724,1.53587 -1.02312,1.6372 0.0774,1.90733 0.90111,0.22119 0.82961,0.30116 -0.31818,0.3559 -1.35696,0.0647 -1.46414,0.31177 -1.28469,2.96142 0.16538,2.44195 0.41429,2.92029 1.60307,3.08058 2.4294,0.32759 4.59847,-1.67947 7.26008,-6.71779 1.41555,-2.67955 2.57372,-5.251 2.57372,-5.71434 0,-0.46332 0.21679,-0.84364 0.48176,-0.84514 0.26497,-10e-4 0.53555,-0.98817 0.60128,-2.19261 0.13935,-2.55319 0.42926,-2.95443 1.77982,-2.46341 1.30491,0.47443 1.26547,2.7543 -0.0718,4.15438 -1.01563,1.06329 -0.9277,1.11296 1.97033,1.11296 2.85034,0 3.00636,0.0826 2.58518,1.36934 -0.24653,0.75314 -1.27771,2.93627 -2.2915,4.8514 -1.99183,3.76269 -2.35196,5.95116 -0.97932,5.95116 1.07373,0 2.31014,-1.33933 4.49464,-4.86876 1.96561,-3.17577 2.2913,-2.83984 0.46604,0.48069 -2.54926,4.63766 -5.7281,6.67048 -7.62322,4.87494 -1.22926,-1.16467 -0.90753,-3.16 1.08947,-6.75686 1.96912,-3.54667 1.75828,-4.68472 -0.86791,-4.68472 -1.02281,0 -1.66523,0.84333 -2.85272,3.74485 -0.84295,2.05967 -2.53719,4.79834 -3.76498,6.08595 -1.82985,1.91899 -2.66417,2.3411 -4.62743,2.3411 -1.48234,0 -2.7657,-0.40589 -3.36758,-1.06504 z m 79.26831,0.33472 c -1.22052,-1.15638 -0.89778,-3.62872 0.81829,-6.26852 2.901,-4.46254 1.85506,-5.20607 -2.39019,-1.69917 l -2.73183,2.25671 2.1449,-2.18952 c 1.96475,-2.00561 8.23461,-5.77744 8.76633,-5.27366 0.12417,0.11765 -0.90473,2.40421 -2.28644,5.08125 -3.6253,7.02398 -3.29631,10.43122 0.62334,6.45571 1.68499,-1.70902 2.37633,-3.01549 5.08857,-9.61628 l 1.29809,-3.15917 -1.39392,-0.25737 -1.39391,-0.25737 1.40519,-0.0829 c 0.98465,-0.0581 1.93233,-1.00051 3.16655,-3.14901 1.20349,-2.09502 2.05875,-2.958 2.70033,-2.72474 0.7467,0.27147 0.78389,0.16432 0.18161,-0.52325 -0.60647,-0.69236 -0.41096,-1.12281 0.98131,-2.16042 0.95627,-0.71268 2.05112,-1.19881 2.43298,-1.0803 1.22295,0.37957 1.11541,3.14708 -0.23859,6.13987 -1.58394,3.50099 -1.57128,3.26236 -0.19122,3.60405 0.88691,0.21959 0.83372,0.29322 -0.25209,0.34892 -0.84584,0.0434 -2.32007,1.24327 -3.82549,3.11357 -1.34712,1.67364 -2.66538,3.04298 -2.92947,3.04298 -0.62388,0 -1.81705,4.08591 -1.82166,6.23809 -0.004,2.23785 1.95876,2.24079 4.14569,0.006 0.89752,-0.91708 1.63186,-1.36523 1.63186,-0.99589 0,1.2049 -3.35049,3.88049 -4.85932,3.88049 -2.11012,0 -3.66681,-1.69769 -3.28624,-3.5839 0.30267,-1.50016 0.27691,-1.51531 -0.6127,-0.36039 -3.03841,3.94457 -5.32116,4.96754 -7.17197,3.21398 z m 14.8785,-12.67577 c 1.07578,-1.7303 1.08849,-1.90326 0.12609,-1.71446 -0.58872,0.11549 -1.64294,1.4249 -2.34273,2.90981 -1.15367,2.44802 -1.16543,2.60793 -0.12609,1.71446 0.63043,-0.54195 1.68466,-1.85136 2.34273,-2.90981 z m 3.28913,-5.44012 c 2.94597,-5.50811 1.38374,-6.85463 -1.74063,-1.50028 -1.9919,3.4136 -2.19519,4.52302 -0.82877,4.52302 0.52399,0 1.68022,-1.36023 2.5694,-3.02274 z m -0.64446,18.21779 c -1.5148,-2.3222 -1.48573,-4.38139 0.10118,-7.16717 3.23848,-5.68511 8.24025,-8.48953 10.51325,-5.89465 1.44275,1.64705 0.44983,6.71561 -1.84577,9.42206 -1.92138,2.26528 -1.96363,2.42362 -0.80349,3.01188 1.89369,0.96023 4.05545,-1.067 7.47397,-7.00881 1.64647,-2.86177 3.39223,-5.34815 3.87948,-5.5253 2.02768,-0.73721 1.9882,0.2993 -0.14279,3.74859 l -2.25597,3.65157 2.78763,-2.52288 c 2.58231,-2.33706 8.05316,-5.47162 8.61716,-4.93726 0.1348,0.12771 -0.90492,2.40105 -2.31046,5.05187 -2.65043,4.9986 -3.28352,8.18992 -1.62472,8.18992 1.02549,0 3.45446,-2.82917 5.14301,-5.99035 0.59769,-1.11897 1.2429,-1.88651 1.43379,-1.70565 0.45155,0.42782 -2.11917,4.48925 -4.19713,6.63096 -1.71627,1.76892 -3.82646,2.15855 -5.10908,0.94332 -1.18681,-1.12444 -0.92458,-3.07456 0.83506,-6.21009 0.88322,-1.57383 1.60587,-3.12089 1.60587,-3.4379 0,-2.11596 -4.40022,1.51594 -7.83697,6.46855 l -2.7067,3.90058 -3.23928,-0.37764 c -1.7816,-0.2077 -3.90022,-0.37091 -4.70803,-0.36271 -1.11512,0.0113 -1.30577,-0.17112 -0.79185,-0.75782 0.37229,-0.42502 0.49504,-1.22176 0.27278,-1.77054 -0.22227,-0.54878 -0.0257,-1.42982 0.43688,-1.95787 0.76198,-0.86989 0.91856,-0.85961 1.6664,0.10938 0.74248,0.96204 0.95966,0.78192 2.16183,-1.79299 2.4865,-5.32577 0.4832,-8.32858 -3.27839,-4.91411 -3.78425,3.43502 -5.70394,9.86871 -3.33475,11.17613 0.96527,0.53268 0.87986,0.62295 -0.60443,0.63884 -0.95071,0.0102 -1.91302,-0.26428 -2.13848,-0.60991 z m -69.95184,-8.28934 c -0.52507,-1.2964 0.60215,-1.48233 6.17911,-1.0192 5.7736,0.47947 5.71232,0.54415 -1.22897,1.29723 -3.56843,0.38715 -4.70662,0.32322 -4.95014,-0.27803 z m 78.63647,-9.04662 c 0,-0.60183 6.82135,-4.55363 7.86019,-4.55363 1.76878,0 1.33318,1.0877 -0.86739,2.16586 -2.43017,1.19066 -6.9928,2.74862 -6.9928,2.38777 z"
     id="path74"
     inkscape:connector-curvature="0"
     inkscape:export-xdpi="90"
     inkscape:export-ydpi="90" />
</svg>
