<svg xmlns="http://www.w3.org/2000/svg" xmlns:xlink="http://www.w3.org/1999/xlink" viewBox="0 0 829.46 586.47"><defs><style>.cls-1{fill:#fff;}.cls-2{fill:url(#radial-gradient);}.cls-3{fill:url(#radial-gradient-2);}.cls-4{fill:url(#radial-gradient-3);}</style><radialGradient id="radial-gradient" cx="405.17" cy="130.33" r="80.82" gradientUnits="userSpaceOnUse"><stop offset="0" stop-color="#f6dfa4"/><stop offset="1" stop-color="#c89211"/></radialGradient><radialGradient id="radial-gradient-2" cx="406.06" cy="434.76" r="74.65" xlink:href="#radial-gradient"/><radialGradient id="radial-gradient-3" cx="308.17" cy="234.41" r="14.39" xlink:href="#radial-gradient"/></defs><title>Recurso 2</title><g id="Capa_2" data-name="Capa 2"><g id="Capa_1-2" data-name="Capa 1"><rect class="cls-1" width="829.46" height="586.47"/><path class="cls-2" d="M441.71,81.41l23-38.83H346.09L361.9,72.39l5.3-2.82-11.14-21h98.1l-17.77,30a73.62,73.62,0,1,0,5.32,2.8ZM405.17,212.09A67.23,67.23,0,0,1,370.36,87.34l33.54,59.09,30-50.49-5.16-3L404,134.45l-28.37-50a67.23,67.23,0,1,1,29.54,127.63Z"/><rect class="cls-3" x="300.56" y="430.76" width="211" height="8"/><path d="M144.74,257.39a20.75,20.75,0,0,1,1.6-8,19.32,19.32,0,0,1,4.72-6.78,23.5,23.5,0,0,1,7.78-4.72,29.72,29.72,0,0,1,10.77-1.8,30.25,30.25,0,0,1,10.83,1.8,22.71,22.71,0,0,1,7.78,4.72,19.66,19.66,0,0,1,4.65,6.78,20.56,20.56,0,0,1,1.6,8V398.32A21.14,21.14,0,0,1,193,406a19.32,19.32,0,0,1-4.59,6.85,24.28,24.28,0,0,1-7.78,5,28.82,28.82,0,0,1-11,1.92,29.67,29.67,0,0,1-11-1.86,23.43,23.43,0,0,1-7.78-4.92,19,19,0,0,1-4.58-6.91,21.51,21.51,0,0,1-1.47-7.71ZM161.9,397.92a6.84,6.84,0,0,0,1.86,4.72q1.86,2.06,6,2.06t5.78-2.06a7,7,0,0,0,1.8-4.72v-140a6.84,6.84,0,0,0-1.86-4.72c-1.24-1.38-3.19-2.06-5.85-2.06s-4.72.68-5.92,2.06a7,7,0,0,0-1.79,4.72Z"/><path d="M265.39,390.75a1.85,1.85,0,0,1-2.27,2.27h-5.2a4.68,4.68,0,0,1-3.31-1.32,4.33,4.33,0,0,1-1.42-3.31V345.17a4.85,4.85,0,0,0-1.33-3.36,5.33,5.33,0,0,0-4.16-1.47h-5.39v48.05a4.27,4.27,0,0,1-1.47,3.31,4.84,4.84,0,0,1-3.35,1.32h-5.2a2.33,2.33,0,0,1-1.75-.47,2.73,2.73,0,0,1-.43-1.8V268.18a2.75,2.75,0,0,1,.43-1.8,2.38,2.38,0,0,1,1.75-.47h15.6a21.38,21.38,0,0,1,7.8,1.28,15.9,15.9,0,0,1,5.44,3.4,13.5,13.5,0,0,1,3.22,4.87,16,16,0,0,1,1,5.68v42.08q0,8.52-6,12.3,6,2.64,6,9.55ZM242.31,276.41v53.43h5.86a4.33,4.33,0,0,0,4-2.22,7.14,7.14,0,0,0,.8-2.17,12.19,12.19,0,0,0,.24-2.42v-41.8a4.85,4.85,0,0,0-1.33-3.36,5.36,5.36,0,0,0-4.16-1.46Z"/><path d="M312.42,390.28a2.43,2.43,0,0,1-2.75,2.74h-6.8c-1.77,0-2.65-.91-2.65-2.74V270.64a4.33,4.33,0,0,1,1.46-3.45,5,5,0,0,1,3.36-1.28h5.2c.95,0,1.55.16,1.8.47a2.87,2.87,0,0,1,.38,1.71Z"/><path d="M365.12,264a21.11,21.11,0,0,1,7.24,1.18,16.43,16.43,0,0,1,5.53,3.26,14.67,14.67,0,0,1,3.5,4.83,14.15,14.15,0,0,1,1.23,5.86v40.29c0,1.26-.73,1.89-2.18,1.89H375a6.31,6.31,0,0,1-1.47-.19,4.61,4.61,0,0,1-1.46-.61,3.87,3.87,0,0,1-1.14-1.14,2.85,2.85,0,0,1-.47-1.65V279.62a4.76,4.76,0,0,0-1.37-3.35,6.49,6.49,0,0,0-8.23,0,4.72,4.72,0,0,0-1.37,3.35v99.69a4.72,4.72,0,0,0,1.32,3.31,5.47,5.47,0,0,0,4.16,1.42q3,0,4.26-1.56a5.1,5.1,0,0,0,1.23-3.17V345.07h-1.23c-1.77,0-3-.5-3.64-1.51a8.28,8.28,0,0,1-1-4.54v-2.93c0-1.58.73-2.37,2.18-2.37h13.81c1.38,0,2.08.66,2.08,2v44a14.71,14.71,0,0,1-1.23,6,13.49,13.49,0,0,1-3.6,4.83,17,17,0,0,1-5.67,3.16,22.59,22.59,0,0,1-7.38,1.14,21.69,21.69,0,0,1-7.28-1.14,16.27,16.27,0,0,1-5.49-3.16,13.92,13.92,0,0,1-3.49-4.83,14.71,14.71,0,0,1-1.23-6V279.15a14.42,14.42,0,0,1,1.23-6,13.31,13.31,0,0,1,3.59-4.77,17.71,17.71,0,0,1,5.63-3.22A21.64,21.64,0,0,1,365.12,264Z"/><path d="M448.46,265.91c1.45,0,2.17.82,2.17,2.46v1.8a6.68,6.68,0,0,1-1.46,4.63,5.3,5.3,0,0,1-4.12,1.61h-10.5v48.42h12.11c1.45,0,2.17.79,2.17,2.37v1.89a6.61,6.61,0,0,1-1.46,4.63,5.3,5.3,0,0,1-4.12,1.61h-8.7v47.19h10.5a5.38,5.38,0,0,1,4.12,1.56,6.66,6.66,0,0,1,1.46,4.69v1.79c0,1.64-.72,2.46-2.17,2.46H425.1a3.49,3.49,0,0,1-2.27-.47,2.54,2.54,0,0,1-.48-1.8V268.18a2.81,2.81,0,0,1,.43-1.8,2.38,2.38,0,0,1,1.75-.47Z"/><path d="M522.13,390.75a2.6,2.6,0,0,1-.47,1.75,2.4,2.4,0,0,1-1.8.52h-5a4.83,4.83,0,0,1-3.22-1.13,5.21,5.21,0,0,1-1.7-3l-12.2-74.43,1.7,73.77a4.22,4.22,0,0,1-1.37,3.5,5.12,5.12,0,0,1-3.55,1.32h-5a2.36,2.36,0,0,1-1.79-.52,2.54,2.54,0,0,1-.48-1.75V268.09a2.87,2.87,0,0,1,.38-1.71c.25-.31.85-.47,1.8-.47h5.29a4.39,4.39,0,0,1,3,1.09,5.23,5.23,0,0,1,1.61,3l12.29,74.43-1.7-73.77a4.08,4.08,0,0,1,1.37-3.45,5,5,0,0,1,3.36-1.28H520c.94,0,1.54.16,1.79.47a2.87,2.87,0,0,1,.38,1.71Z"/><path d="M594.16,265.91c1.45,0,2.17.82,2.17,2.46v1.8a6.63,6.63,0,0,1-1.46,4.63,5.3,5.3,0,0,1-4.12,1.61H580.26v48.42h12.1c1.45,0,2.18.79,2.18,2.37v1.89a6.62,6.62,0,0,1-1.47,4.63,5.3,5.3,0,0,1-4.11,1.61h-8.7v47.19h10.49a5.38,5.38,0,0,1,4.12,1.56,6.61,6.61,0,0,1,1.46,4.69v1.79c0,1.64-.72,2.46-2.17,2.46H570.8a3.49,3.49,0,0,1-2.27-.47,2.54,2.54,0,0,1-.47-1.8V268.18a2.82,2.82,0,0,1,.42-1.8,2.41,2.41,0,0,1,1.75-.47Z"/><path d="M657.29,416.82A31.08,31.08,0,0,1,647,415.25a22.24,22.24,0,0,1-7.64-4.38,18.53,18.53,0,0,1-4.78-6.67,21,21,0,0,1-1.63-8.3V356.42q0-2.61,2.88-2.61h7.71a8.54,8.54,0,0,1,2,.26,6.33,6.33,0,0,1,2,.85,5.34,5.34,0,0,1,1.57,1.57,4,4,0,0,1,.65,2.28v36.61a6.48,6.48,0,0,0,1.83,4.57q1.83,2,5.63,2t5.75-2a6.48,6.48,0,0,0,1.83-4.57,119.56,119.56,0,0,0-2.35-24.25,187.34,187.34,0,0,0-5.95-21.9q-3.6-10.59-7.72-20.92t-7.71-21.44a195.4,195.4,0,0,1-5.95-23.33,140.83,140.83,0,0,1-2.35-26.61,19.94,19.94,0,0,1,1.7-8.23,19.39,19.39,0,0,1,4.84-6.6,23,23,0,0,1,7.64-4.45A29.18,29.18,0,0,1,657,236a30.15,30.15,0,0,1,10.2,1.63,24.5,24.5,0,0,1,7.85,4.45,18.73,18.73,0,0,1,5,6.6,19.94,19.94,0,0,1,1.7,8.23v40.79c0,1.75-1,2.62-3,2.62h-7.59a8.53,8.53,0,0,1-4.11-1.18,4.1,4.1,0,0,1-2.16-3.92V257.59A6.73,6.73,0,0,0,663,253q-1.83-2-5.75-2T651.53,253a6.82,6.82,0,0,0-1.83,4.58,105.85,105.85,0,0,0,2.36,22.75,185.43,185.43,0,0,0,6,21.11q3.59,10.4,7.71,20.78T673.43,344a200.58,200.58,0,0,1,6,24.12,153.18,153.18,0,0,1,2.35,27.78,20.37,20.37,0,0,1-1.7,8.3,19.16,19.16,0,0,1-4.83,6.67,22.16,22.16,0,0,1-7.72,4.38A31.18,31.18,0,0,1,657.29,416.82Z"/><path class="cls-4" d="M307.82,221.51c0,.42-15.4,25.8-15.4,25.8h31.49Z"/><path d="M276.63,469.38a1.05,1.05,0,0,1,.75-.2h2.2a2.1,2.1,0,0,1,1.43.56,1.81,1.81,0,0,1,.62,1.4v47.52h4.46c1.57,0,2.36.88,2.36,2.65v.76c0,.7-.3,1-.92,1H277.38a1,1,0,0,1-.75-.22,1.17,1.17,0,0,1-.17-.74v-52A1.18,1.18,0,0,1,276.63,469.38Z"/><path d="M291.26,474.84a6.07,6.07,0,0,1,.49-2.41,5.78,5.78,0,0,1,1.42-2.05,7.09,7.09,0,0,1,2.35-1.42,9,9,0,0,1,3.25-.54A9.19,9.19,0,0,1,302,469a6.89,6.89,0,0,1,2.35,1.42,6,6,0,0,1,1.4,2.05,6.24,6.24,0,0,1,.48,2.41v42.53a6.44,6.44,0,0,1-.44,2.31,5.83,5.83,0,0,1-1.38,2.07,7.08,7.08,0,0,1-2.35,1.5,8.65,8.65,0,0,1-3.33.59,8.79,8.79,0,0,1-3.33-.57,6.89,6.89,0,0,1-2.35-1.48,5.69,5.69,0,0,1-1.38-2.09,6.39,6.39,0,0,1-.45-2.33Zm5.18,42.41a2.08,2.08,0,0,0,.56,1.43,2.36,2.36,0,0,0,1.81.62,2.21,2.21,0,0,0,1.74-.62,2.12,2.12,0,0,0,.55-1.43V475a2.06,2.06,0,0,0-.57-1.43,2.85,2.85,0,0,0-3.55,0,2.12,2.12,0,0,0-.54,1.43Z"/><path d="M311.29,523.11a1.57,1.57,0,0,1-.91-.18,1,1,0,0,1-.22-.78v-52a1.17,1.17,0,0,1,.18-.76,1,1,0,0,1,.75-.2h6.62a9.11,9.11,0,0,1,3.31.54,7.17,7.17,0,0,1,2.31,1.42,5.49,5.49,0,0,1,1.36,2.07,6.78,6.78,0,0,1,.44,2.43v41a5.91,5.91,0,0,1-2,4.82,8.48,8.48,0,0,1-5.54,1.68Zm6.54-4.45a1.92,1.92,0,0,0,1.6-.64,2.19,2.19,0,0,0,.53-1.41V475.68a2.06,2.06,0,0,0-.57-1.43,2.27,2.27,0,0,0-1.76-.62h-2.29v45Z"/><path d="M336.45,468.37a8.83,8.83,0,0,1,3.07.51,6.83,6.83,0,0,1,2.35,1.38,6.22,6.22,0,0,1,1.48,2.05,5.94,5.94,0,0,1,.52,2.49v17.09c0,.54-.3.8-.92.8h-2.33a2.45,2.45,0,0,1-.62-.08,1.9,1.9,0,0,1-.62-.26,1.57,1.57,0,0,1-.48-.48,1.18,1.18,0,0,1-.2-.7V475a2.07,2.07,0,0,0-.58-1.43,2.78,2.78,0,0,0-3.5,0A2.07,2.07,0,0,0,334,475v42.29a2,2,0,0,0,.56,1.41,2.34,2.34,0,0,0,1.77.6,2.06,2.06,0,0,0,2.33-2V502.77h-.53a1.73,1.73,0,0,1-1.54-.64,3.57,3.57,0,0,1-.42-1.93V499c0-.67.31-1,.92-1H343c.59,0,.88.28.88.84v18.67a6.17,6.17,0,0,1-.52,2.54,5.67,5.67,0,0,1-1.52,2,7.32,7.32,0,0,1-2.41,1.35,9.65,9.65,0,0,1-3.13.48,9.28,9.28,0,0,1-3.09-.48,6.93,6.93,0,0,1-2.33-1.35,5.8,5.8,0,0,1-1.48-2,6.18,6.18,0,0,1-.53-2.54V474.8a6.07,6.07,0,0,1,.53-2.53,5.65,5.65,0,0,1,1.52-2,7.64,7.64,0,0,1,2.39-1.36A9,9,0,0,1,336.45,468.37Z"/><path d="M358.8,469.18c.62,0,.93.35.93,1V471a2.79,2.79,0,0,1-.63,2,2.2,2.2,0,0,1-1.74.68H352.9v20.55H358c.62,0,.92.33.92,1V496a2.78,2.78,0,0,1-.62,2,2.22,2.22,0,0,1-1.74.68h-3.7v20h4.46a2.26,2.26,0,0,1,1.74.66,2.8,2.8,0,0,1,.63,2v.76c0,.7-.31,1-.93,1h-9.91c-.51,0-.83-.06-1-.2a1,1,0,0,1-.2-.76v-52a1.17,1.17,0,0,1,.18-.76,1,1,0,0,1,.74-.2Z"/><path d="M379.91,468.37a8.78,8.78,0,0,1,3.09.51,6.83,6.83,0,0,1,2.33,1.38,6.22,6.22,0,0,1,1.48,2.05,5.94,5.94,0,0,1,.52,2.49v17.09c0,.54-.29.8-.88.8h-2.33a2.64,2.64,0,0,1-1.26-.36,1.22,1.22,0,0,1-.66-1.16V475a2,2,0,0,0-.6-1.43,2.37,2.37,0,0,0-1.77-.62,2.24,2.24,0,0,0-1.73.62,2.1,2.1,0,0,0-.56,1.43v42.29a2,2,0,0,0,.56,1.41,2.34,2.34,0,0,0,1.77.6,2.13,2.13,0,0,0,1.79-.66,2.24,2.24,0,0,0,.5-1.35V501.16a1.2,1.2,0,0,1,.2-.7,1.57,1.57,0,0,1,.48-.48,1.9,1.9,0,0,1,.62-.26,2.45,2.45,0,0,1,.62-.08h2.33c.62,0,.92.25.92.76v17.06a6.17,6.17,0,0,1-.52,2.54,5.85,5.85,0,0,1-1.5,2,7.13,7.13,0,0,1-2.39,1.35,9.65,9.65,0,0,1-3.13.48,9.28,9.28,0,0,1-3.09-.48,6.93,6.93,0,0,1-2.33-1.35,5.92,5.92,0,0,1-1.48-2,6.17,6.17,0,0,1-.52-2.54V474.8a6.06,6.06,0,0,1,.52-2.53,6,6,0,0,1,1.5-2,7.32,7.32,0,0,1,2.39-1.36A9.13,9.13,0,0,1,379.91,468.37Z"/><path d="M391.27,474.84a6.24,6.24,0,0,1,.48-2.41,5.91,5.91,0,0,1,1.42-2.05,7.09,7.09,0,0,1,2.35-1.42,9,9,0,0,1,3.25-.54A9.19,9.19,0,0,1,402,469a6.8,6.8,0,0,1,2.35,1.42,6,6,0,0,1,1.41,2.05,6.24,6.24,0,0,1,.48,2.41v42.53a6.44,6.44,0,0,1-.44,2.31,5.86,5.86,0,0,1-1.39,2.07,7.08,7.08,0,0,1-2.35,1.5,8.58,8.58,0,0,1-3.33.59,8.86,8.86,0,0,1-3.33-.57,6.89,6.89,0,0,1-2.35-1.48,5.69,5.69,0,0,1-1.38-2.09,6.37,6.37,0,0,1-.44-2.33Zm5.18,42.41a2,2,0,0,0,.56,1.43,2.32,2.32,0,0,0,1.8.62,2.22,2.22,0,0,0,1.75-.62,2.11,2.11,0,0,0,.54-1.43V475a2.1,2.1,0,0,0-.56-1.43,2.29,2.29,0,0,0-1.77-.62,2.26,2.26,0,0,0-1.78.62,2.12,2.12,0,0,0-.54,1.43Z"/><path d="M417.55,523.88a9.65,9.65,0,0,1-3.15-.48,7,7,0,0,1-2.35-1.35,5.63,5.63,0,0,1-1.46-2,6.33,6.33,0,0,1-.5-2.54V505.34c0-.54.29-.81.88-.81h2.37a2.93,2.93,0,0,1,.62.08,2,2,0,0,1,.62.26,1.72,1.72,0,0,1,.48.49,1.18,1.18,0,0,1,.21.7v11.23a2,2,0,0,0,.56,1.41,2.25,2.25,0,0,0,1.72.6,2.32,2.32,0,0,0,1.77-.6,2,2,0,0,0,.56-1.41,36.69,36.69,0,0,0-.72-7.44,56.26,56.26,0,0,0-1.83-6.72q-1.09-3.25-2.37-6.42t-2.36-6.58a59.63,59.63,0,0,1-1.83-7.17,43.32,43.32,0,0,1-.72-8.16,6,6,0,0,1,2-4.56,7.22,7.22,0,0,1,2.35-1.36,8.87,8.87,0,0,1,3.07-.51,9.09,9.09,0,0,1,3.13.51,7.53,7.53,0,0,1,2.41,1.36,5.8,5.8,0,0,1,1.53,2,6.22,6.22,0,0,1,.52,2.53v12.52c0,.53-.31.8-.93.8h-2.32a2.67,2.67,0,0,1-1.27-.36,1.26,1.26,0,0,1-.66-1.21V475a2.1,2.1,0,0,0-.56-1.43,2.29,2.29,0,0,0-1.77-.62,2.2,2.2,0,0,0-1.76.64,2.07,2.07,0,0,0-.56,1.41,32.57,32.57,0,0,0,.72,7,58.83,58.83,0,0,0,1.82,6.48c.74,2.13,1.53,4.25,2.37,6.38s1.63,4.36,2.37,6.68a62.72,62.72,0,0,1,1.82,7.41,46.28,46.28,0,0,1,.73,8.53,6.34,6.34,0,0,1-.52,2.54,6,6,0,0,1-1.49,2,6.84,6.84,0,0,1-2.37,1.35A9.61,9.61,0,0,1,417.55,523.88Z"/><path d="M441.47,469.18c.62,0,.92.35.92,1V471a2.78,2.78,0,0,1-.62,2,2.28,2.28,0,0,1-1.74.66h-2.37V522a1,1,0,0,1-1.12,1.12h-3a1.1,1.1,0,0,1-.85-.26,1.25,1.25,0,0,1-.24-.86V473.63h-2.57c-1.58,0-2.37-.88-2.37-2.65v-.76c0-.69.31-1,.93-1Z"/><path d="M457,522.19a1.16,1.16,0,0,1-.1.72c-.09.14-.33.2-.7.2h-2.45a2,2,0,0,1-1.38-.52,1.9,1.9,0,0,1-.63-1.4l-.48-7.31h-4.49l-.48,7.31a1.93,1.93,0,0,1-2,1.92h-2.45c-.4,0-.65-.06-.74-.2a1.16,1.16,0,0,1-.1-.72l4.41-51.89a1.1,1.1,0,0,1,.48-.92,2.52,2.52,0,0,1,1.09-.2h4a2.4,2.4,0,0,1,1.09.2c.24.13.38.44.44.92Zm-10-12.6H451l-2-32.83Z"/><path d="M483.77,522.15a.78.78,0,0,1-1,1h-2.2a2,2,0,0,1-1.41-.56,1.83,1.83,0,0,1-.6-1.4V502.81a2.1,2.1,0,0,0-.56-1.43,2.29,2.29,0,0,0-1.77-.62H474v20.39a1.79,1.79,0,0,1-.63,1.4,2,2,0,0,1-1.42.56h-2.21a1,1,0,0,1-.74-.2,1.15,1.15,0,0,1-.18-.76v-52a1.17,1.17,0,0,1,.18-.76,1,1,0,0,1,.74-.2h6.62a9.07,9.07,0,0,1,3.31.54,6.68,6.68,0,0,1,2.31,1.44,5.85,5.85,0,0,1,1.37,2.07,6.85,6.85,0,0,1,.44,2.41V493.5a5.71,5.71,0,0,1-2.53,5.21,4.09,4.09,0,0,1,2.53,4.06ZM474,473.63v22.68h2.48a1.94,1.94,0,0,0,1-.26,2,2,0,0,0,.66-.69,3.07,3.07,0,0,0,.34-.92,5,5,0,0,0,.1-1V475.68a2.1,2.1,0,0,0-.56-1.43,2.29,2.29,0,0,0-1.77-.62Z"/><path d="M492.84,522a1,1,0,0,1-1.17,1.16h-2.89c-.75,0-1.12-.38-1.12-1.16V471.18a1.85,1.85,0,0,1,.62-1.46,2.12,2.12,0,0,1,1.43-.54h2.2c.41,0,.66.07.77.2a1.23,1.23,0,0,1,.16.72Z"/><path d="M504.39,468.37a8.78,8.78,0,0,1,3.09.51,6.83,6.83,0,0,1,2.33,1.38,6.25,6.25,0,0,1,1.49,2.05,6.1,6.1,0,0,1,.52,2.49v17.09c0,.54-.3.8-.88.8h-2.33a2.7,2.7,0,0,1-1.27-.36,1.22,1.22,0,0,1-.66-1.16V475a2,2,0,0,0-.6-1.43,2.37,2.37,0,0,0-1.77-.62,2.22,2.22,0,0,0-1.72.62A2.05,2.05,0,0,0,502,475v42.29a2,2,0,0,0,.56,1.41,2.3,2.3,0,0,0,1.76.6,2.13,2.13,0,0,0,1.79-.66,2.24,2.24,0,0,0,.5-1.35V501.16a1.27,1.27,0,0,1,.2-.7,1.82,1.82,0,0,1,.48-.48,2,2,0,0,1,.63-.26,2.35,2.35,0,0,1,.62-.08h2.33c.61,0,.92.25.92.76v17.06a6.34,6.34,0,0,1-.52,2.54,5.76,5.76,0,0,1-1.51,2,7,7,0,0,1-2.39,1.35,9.61,9.61,0,0,1-3.13.48,9.28,9.28,0,0,1-3.09-.48,6.89,6.89,0,0,1-2.32-1.35,5.82,5.82,0,0,1-1.49-2,6.17,6.17,0,0,1-.52-2.54V474.8a6.06,6.06,0,0,1,.52-2.53,5.87,5.87,0,0,1,1.51-2,7.27,7.27,0,0,1,2.38-1.36A9.13,9.13,0,0,1,504.39,468.37Z"/><path d="M530.44,522.19a1.24,1.24,0,0,1-.1.72c-.1.14-.33.2-.7.2h-2.45a2,2,0,0,1-1.39-.52,1.89,1.89,0,0,1-.62-1.4l-.48-7.31h-4.49l-.49,7.31a1.88,1.88,0,0,1-.6,1.4,1.91,1.91,0,0,1-1.36.52h-2.45c-.4,0-.65-.06-.74-.2a1.09,1.09,0,0,1-.1-.72l4.41-51.89a1.05,1.05,0,0,1,.48-.92,2.52,2.52,0,0,1,1.09-.2h4a2.33,2.33,0,0,1,1.08.2,1.11,1.11,0,0,1,.44.92Zm-10-12.6h4.09l-2-32.83Z"/></g></g></svg>