<svg xmlns="http://www.w3.org/2000/svg" xmlns:xlink="http://www.w3.org/1999/xlink" viewBox="0 0 829.46 586.47"><defs><style>.cls-1{fill:url(#radial-gradient);}.cls-2{fill:url(#radial-gradient-2);}.cls-3{fill:#fff;}.cls-4{fill:url(#radial-gradient-3);}</style><radialGradient id="radial-gradient" cx="407.13" cy="130.33" r="80.82" gradientUnits="userSpaceOnUse"><stop offset="0" stop-color="#f6dfa4"/><stop offset="1" stop-color="#c89211"/></radialGradient><radialGradient id="radial-gradient-2" cx="408.01" cy="434.76" r="74.65" xlink:href="#radial-gradient"/><radialGradient id="radial-gradient-3" cx="310.12" cy="234.41" r="14.39" xlink:href="#radial-gradient"/></defs><title>Recurso 2</title><g id="Capa_2" data-name="Capa 2"><g id="Capa_1-2" data-name="Capa 1"><rect width="829.46" height="586.47"/><path class="cls-1" d="M443.66,81.41l23-38.83H348l15.82,29.81,5.3-2.82L358,48.58h98.09l-17.77,30a73.64,73.64,0,1,0,5.32,2.8ZM407.13,212.09A67.23,67.23,0,0,1,372.32,87.34l33.53,59.09,30-50.49-5.17-3L406,134.45l-28.38-50a67.24,67.24,0,1,1,29.55,127.63Z"/><rect class="cls-2" x="302.51" y="430.76" width="211" height="8"/><path class="cls-3" d="M146.7,257.39a20.74,20.74,0,0,1,1.59-8,19.45,19.45,0,0,1,4.72-6.78,23.7,23.7,0,0,1,7.78-4.72,29.72,29.72,0,0,1,10.77-1.8,30.3,30.3,0,0,1,10.84,1.8,22.8,22.8,0,0,1,7.78,4.72,19.94,19.94,0,0,1,4.65,6.78,20.74,20.74,0,0,1,1.59,8V398.32A20.93,20.93,0,0,1,195,406a19.16,19.16,0,0,1-4.58,6.85,24.39,24.39,0,0,1-7.78,5,28.87,28.87,0,0,1-11,1.92,29.65,29.65,0,0,1-11-1.86,23.23,23.23,0,0,1-7.78-4.92,19,19,0,0,1-4.59-6.91,21.49,21.49,0,0,1-1.46-7.71Zm17.15,140.53a6.84,6.84,0,0,0,1.86,4.72c1.24,1.37,3.24,2.06,6,2.06s4.59-.69,5.79-2.06a7,7,0,0,0,1.79-4.72v-140a6.84,6.84,0,0,0-1.86-4.72c-1.24-1.38-3.19-2.06-5.85-2.06s-4.72.68-5.91,2.06a7,7,0,0,0-1.8,4.72Z"/><path class="cls-3" d="M267.34,390.75a2.59,2.59,0,0,1-.47,1.8,2.56,2.56,0,0,1-1.8.47h-5.2a4.7,4.7,0,0,1-3.31-1.32,4.33,4.33,0,0,1-1.42-3.31V345.17a4.89,4.89,0,0,0-1.32-3.36,5.35,5.35,0,0,0-4.16-1.47h-5.4v48.05a4.26,4.26,0,0,1-1.46,3.31,4.89,4.89,0,0,1-3.36,1.32h-5.2a2.35,2.35,0,0,1-1.75-.47,2.79,2.79,0,0,1-.43-1.8V268.18a2.81,2.81,0,0,1,.43-1.8,2.4,2.4,0,0,1,1.75-.47h15.6a21.48,21.48,0,0,1,7.81,1.28,16,16,0,0,1,5.43,3.4,13.24,13.24,0,0,1,3.22,4.87,16,16,0,0,1,1,5.68v42.08q0,8.52-6,12.3,6,2.64,6,9.55ZM244.26,276.41v53.43h5.87a4.33,4.33,0,0,0,4-2.22,6.88,6.88,0,0,0,.8-2.17,12.19,12.19,0,0,0,.24-2.42v-41.8a4.89,4.89,0,0,0-1.32-3.36,5.38,5.38,0,0,0-4.16-1.46Z"/><path class="cls-3" d="M314.37,390.28a2.42,2.42,0,0,1-2.74,2.74h-6.81c-1.77,0-2.65-.91-2.65-2.74V270.64a4.33,4.33,0,0,1,1.47-3.45,4.94,4.94,0,0,1,3.35-1.28h5.21c.94,0,1.54.16,1.79.47a2.87,2.87,0,0,1,.38,1.71Z"/><path class="cls-3" d="M367.08,264a21,21,0,0,1,7.23,1.18,16.33,16.33,0,0,1,5.53,3.26,14.53,14.53,0,0,1,3.5,4.83,14.15,14.15,0,0,1,1.23,5.86v40.29c0,1.26-.72,1.89-2.17,1.89h-5.49a6.16,6.16,0,0,1-1.46-.19,4.57,4.57,0,0,1-1.47-.61,4,4,0,0,1-1.14-1.14,2.93,2.93,0,0,1-.47-1.65V279.62a4.76,4.76,0,0,0-1.37-3.35,6.49,6.49,0,0,0-8.23,0,4.76,4.76,0,0,0-1.37,3.35v99.69a4.68,4.68,0,0,0,1.33,3.31,5.47,5.47,0,0,0,4.16,1.42c2,0,3.43-.52,4.25-1.56a5.1,5.1,0,0,0,1.23-3.17V345.07h-1.23c-1.76,0-3-.5-3.64-1.51a8.38,8.38,0,0,1-1-4.54v-2.93c0-1.58.72-2.37,2.17-2.37h13.81c1.39,0,2.08.66,2.08,2v44a14.71,14.71,0,0,1-1.23,6,13.58,13.58,0,0,1-3.59,4.83,17.1,17.1,0,0,1-5.68,3.16,22.48,22.48,0,0,1-7.37,1.14,21.79,21.79,0,0,1-7.29-1.14,16.13,16.13,0,0,1-5.48-3.16,14.08,14.08,0,0,1-3.5-4.83,14.71,14.71,0,0,1-1.23-6V279.15a14.42,14.42,0,0,1,1.23-6,13.55,13.55,0,0,1,3.59-4.77,17.94,17.94,0,0,1,5.63-3.22A21.69,21.69,0,0,1,367.08,264Z"/><path class="cls-3" d="M450.41,265.91c1.45,0,2.18.82,2.18,2.46v1.8a6.63,6.63,0,0,1-1.47,4.63,5.3,5.3,0,0,1-4.11,1.61h-10.5v48.42h12.1c1.45,0,2.18.79,2.18,2.37v1.89a6.62,6.62,0,0,1-1.47,4.63,5.3,5.3,0,0,1-4.11,1.61h-8.7v47.19H447a5.37,5.37,0,0,1,4.11,1.56,6.61,6.61,0,0,1,1.47,4.69v1.79c0,1.64-.73,2.46-2.18,2.46H427.05a3.49,3.49,0,0,1-2.27-.47,2.54,2.54,0,0,1-.47-1.8V268.18a2.82,2.82,0,0,1,.42-1.8,2.41,2.41,0,0,1,1.75-.47Z"/><path class="cls-3" d="M524.08,390.75a2.55,2.55,0,0,1-.47,1.75,2.36,2.36,0,0,1-1.79.52h-5a4.78,4.78,0,0,1-3.21-1.13,5.22,5.22,0,0,1-1.71-3l-12.2-74.43,1.71,73.77a4.25,4.25,0,0,1-1.37,3.5,5.14,5.14,0,0,1-3.55,1.32h-5a2.37,2.37,0,0,1-1.8-.52,2.55,2.55,0,0,1-.47-1.75V268.09a2.88,2.88,0,0,1,.37-1.71,2.41,2.41,0,0,1,1.8-.47h5.3a4.38,4.38,0,0,1,3,1.09,5.18,5.18,0,0,1,1.61,3l12.3,74.43-1.71-73.77a4.09,4.09,0,0,1,1.38-3.45,4.94,4.94,0,0,1,3.35-1.28h5.3c1,0,1.54.16,1.8.47a2.88,2.88,0,0,1,.37,1.71Z"/><path class="cls-3" d="M596.11,265.91c1.45,0,2.18.82,2.18,2.46v1.8a6.63,6.63,0,0,1-1.47,4.63,5.3,5.3,0,0,1-4.11,1.61h-10.5v48.42h12.11c1.45,0,2.17.79,2.17,2.37v1.89a6.66,6.66,0,0,1-1.46,4.63,5.3,5.3,0,0,1-4.12,1.61h-8.7v47.19h10.5a5.37,5.37,0,0,1,4.11,1.56,6.61,6.61,0,0,1,1.47,4.69v1.79c0,1.64-.73,2.46-2.18,2.46H572.75a3.51,3.51,0,0,1-2.27-.47,2.59,2.59,0,0,1-.47-1.8V268.18a2.75,2.75,0,0,1,.43-1.8,2.38,2.38,0,0,1,1.75-.47Z"/><path class="cls-3" d="M659.24,416.82A31,31,0,0,1,649,415.25a22.2,22.2,0,0,1-7.65-4.38,18.51,18.51,0,0,1-4.77-6.67,21,21,0,0,1-1.64-8.3V356.42q0-2.61,2.88-2.61h7.71a8.62,8.62,0,0,1,2,.26,6.42,6.42,0,0,1,2,.85,5.46,5.46,0,0,1,1.57,1.57,4,4,0,0,1,.65,2.28v36.61a6.48,6.48,0,0,0,1.83,4.57q1.83,2,5.62,2t5.75-2a6.48,6.48,0,0,0,1.83-4.57,118.85,118.85,0,0,0-2.35-24.25,185.39,185.39,0,0,0-6-21.9q-3.6-10.59-7.71-20.92t-7.71-21.44a195.4,195.4,0,0,1-6-23.33,140.8,140.8,0,0,1-2.36-26.61,19.94,19.94,0,0,1,1.7-8.23,19.39,19.39,0,0,1,4.84-6.6,23,23,0,0,1,7.65-4.45A29.14,29.14,0,0,1,659,236a30.09,30.09,0,0,1,10.19,1.63A24.39,24.39,0,0,1,677,242.1a18.76,18.76,0,0,1,5,6.6,19.94,19.94,0,0,1,1.7,8.23v40.79c0,1.75-1,2.62-3,2.62H673.1a8.57,8.57,0,0,1-4.12-1.18,4.1,4.1,0,0,1-2.16-3.92V257.59A6.73,6.73,0,0,0,665,253q-1.83-2-5.75-2c-2.62,0-4.53.7-5.75,2.09a6.82,6.82,0,0,0-1.83,4.58A105.86,105.86,0,0,0,654,280.34a187.51,187.51,0,0,0,6,21.11q3.6,10.4,7.71,20.78T675.39,344a202.51,202.51,0,0,1,5.94,24.12,153.15,153.15,0,0,1,2.36,27.78,20.37,20.37,0,0,1-1.7,8.3,19.31,19.31,0,0,1-4.84,6.67,22.11,22.11,0,0,1-7.71,4.38A31.24,31.24,0,0,1,659.24,416.82Z"/><path class="cls-4" d="M309.77,221.51c0,.42-15.39,25.8-15.39,25.8h31.48Z"/><path class="cls-3" d="M278.59,469.38a1,1,0,0,1,.74-.2h2.21a2.07,2.07,0,0,1,1.42.56,1.79,1.79,0,0,1,.63,1.4v47.52H288c1.58,0,2.37.88,2.37,2.65v.76c0,.7-.31,1-.92,1H279.33a.93.93,0,0,1-.74-.22,1.16,1.16,0,0,1-.18-.74v-52A1.17,1.17,0,0,1,278.59,469.38Z"/><path class="cls-3" d="M293.22,474.84a6.24,6.24,0,0,1,.48-2.41,5.91,5.91,0,0,1,1.42-2.05,7.09,7.09,0,0,1,2.35-1.42,9,9,0,0,1,3.25-.54A9.19,9.19,0,0,1,304,469a6.89,6.89,0,0,1,2.35,1.42,6,6,0,0,1,1.41,2.05,6.24,6.24,0,0,1,.48,2.41v42.53a6.44,6.44,0,0,1-.44,2.31,5.86,5.86,0,0,1-1.39,2.07,7.08,7.08,0,0,1-2.35,1.5,8.58,8.58,0,0,1-3.33.59,8.86,8.86,0,0,1-3.33-.57,6.89,6.89,0,0,1-2.35-1.48,5.69,5.69,0,0,1-1.38-2.09,6.37,6.37,0,0,1-.44-2.33Zm5.17,42.41a2,2,0,0,0,.57,1.43,2.32,2.32,0,0,0,1.8.62,2.23,2.23,0,0,0,1.75-.62,2.11,2.11,0,0,0,.54-1.43V475a2.1,2.1,0,0,0-.56-1.43,2.31,2.31,0,0,0-1.77-.62,2.26,2.26,0,0,0-1.78.62,2.14,2.14,0,0,0-.55,1.43Z"/><path class="cls-3" d="M313.24,523.11a1.55,1.55,0,0,1-.9-.18c-.15-.12-.22-.38-.22-.78v-52a1.17,1.17,0,0,1,.18-.76,1,1,0,0,1,.74-.2h6.62a9.07,9.07,0,0,1,3.31.54,7.06,7.06,0,0,1,2.31,1.42,5.52,5.52,0,0,1,1.37,2.07,7,7,0,0,1,.44,2.43v41a5.91,5.91,0,0,1-2,4.82,8.46,8.46,0,0,1-5.54,1.68Zm6.54-4.45a2,2,0,0,0,1.61-.64,2.18,2.18,0,0,0,.52-1.41V475.68a2.1,2.1,0,0,0-.56-1.43,2.31,2.31,0,0,0-1.77-.62h-2.29v45Z"/><path class="cls-3" d="M338.4,468.37a8.79,8.79,0,0,1,3.07.51,6.73,6.73,0,0,1,2.35,1.38,6.25,6.25,0,0,1,1.49,2.05,6.1,6.1,0,0,1,.52,2.49v17.09c0,.54-.31.8-.92.8h-2.33a2.35,2.35,0,0,1-.62-.08,2,2,0,0,1-.63-.26,1.82,1.82,0,0,1-.48-.48,1.25,1.25,0,0,1-.2-.7V475a2,2,0,0,0-.58-1.43,2.3,2.3,0,0,0-1.75-.62,2.28,2.28,0,0,0-1.74.62A2,2,0,0,0,336,475v42.29a2,2,0,0,0,.56,1.41,2.3,2.3,0,0,0,1.76.6,2.18,2.18,0,0,0,1.81-.66,2.15,2.15,0,0,0,.52-1.35V502.77h-.52a1.75,1.75,0,0,1-1.55-.64,3.57,3.57,0,0,1-.42-1.93V499c0-.67.31-1,.93-1H345c.58,0,.88.28.88.84v18.67a6.34,6.34,0,0,1-.52,2.54,5.69,5.69,0,0,1-1.53,2,7.32,7.32,0,0,1-2.41,1.35,9.61,9.61,0,0,1-3.13.48,9.28,9.28,0,0,1-3.09-.48,6.89,6.89,0,0,1-2.32-1.35,5.82,5.82,0,0,1-1.49-2,6.17,6.17,0,0,1-.52-2.54V474.8a6.06,6.06,0,0,1,.52-2.53,5.8,5.8,0,0,1,1.53-2,7.48,7.48,0,0,1,2.38-1.36A9.13,9.13,0,0,1,338.4,468.37Z"/><path class="cls-3" d="M360.76,469.18c.61,0,.92.35.92,1V471a2.84,2.84,0,0,1-.62,2,2.24,2.24,0,0,1-1.75.68h-4.45v20.55H360c.62,0,.93.33.93,1V496a2.78,2.78,0,0,1-.63,2,2.2,2.2,0,0,1-1.74.68h-3.69v20h4.45a2.3,2.3,0,0,1,1.75.66,2.84,2.84,0,0,1,.62,2v.76c0,.7-.31,1-.92,1h-9.92a1.46,1.46,0,0,1-1-.2,1.08,1.08,0,0,1-.2-.76v-52a1.17,1.17,0,0,1,.18-.76,1,1,0,0,1,.74-.2Z"/><path class="cls-3" d="M381.87,468.37a8.86,8.86,0,0,1,3.09.51,6.88,6.88,0,0,1,2.32,1.38,6.25,6.25,0,0,1,1.49,2.05,6.1,6.1,0,0,1,.52,2.49v17.09c0,.54-.3.8-.88.8h-2.33a2.7,2.7,0,0,1-1.27-.36,1.22,1.22,0,0,1-.66-1.16V475a2,2,0,0,0-.6-1.43,2.37,2.37,0,0,0-1.77-.62,2.22,2.22,0,0,0-1.72.62,2.05,2.05,0,0,0-.56,1.43v42.29a2,2,0,0,0,.56,1.41,2.3,2.3,0,0,0,1.76.6,2.11,2.11,0,0,0,1.79-.66,2.24,2.24,0,0,0,.5-1.35V501.16a1.27,1.27,0,0,1,.2-.7,1.82,1.82,0,0,1,.48-.48,2,2,0,0,1,.63-.26,2.35,2.35,0,0,1,.62-.08h2.33c.61,0,.92.25.92.76v17.06a6.34,6.34,0,0,1-.52,2.54,5.76,5.76,0,0,1-1.51,2,7.08,7.08,0,0,1-2.38,1.35,9.71,9.71,0,0,1-3.14.48,9.28,9.28,0,0,1-3.09-.48,6.89,6.89,0,0,1-2.32-1.35,5.82,5.82,0,0,1-1.49-2,6.17,6.17,0,0,1-.52-2.54V474.8a6.06,6.06,0,0,1,.52-2.53,5.87,5.87,0,0,1,1.51-2,7.27,7.27,0,0,1,2.38-1.36A9.15,9.15,0,0,1,381.87,468.37Z"/><path class="cls-3" d="M393.22,474.84a6.24,6.24,0,0,1,.48-2.41,5.81,5.81,0,0,1,1.43-2.05,7.09,7.09,0,0,1,2.35-1.42,9,9,0,0,1,3.25-.54A9.19,9.19,0,0,1,404,469a6.75,6.75,0,0,1,2.34,1.42,5.88,5.88,0,0,1,1.41,2.05,6.24,6.24,0,0,1,.48,2.41v42.53a6.44,6.44,0,0,1-.44,2.31,5.83,5.83,0,0,1-1.38,2.07,7.18,7.18,0,0,1-2.35,1.5,8.65,8.65,0,0,1-3.33.59,8.79,8.79,0,0,1-3.33-.57,6.89,6.89,0,0,1-2.35-1.48,5.85,5.85,0,0,1-1.39-2.09,6.59,6.59,0,0,1-.44-2.33Zm5.18,42.41a2.08,2.08,0,0,0,.56,1.43,2.34,2.34,0,0,0,1.81.62,2.21,2.21,0,0,0,1.74-.62,2.11,2.11,0,0,0,.54-1.43V475a2.05,2.05,0,0,0-.56-1.43,2.85,2.85,0,0,0-3.55,0,2.12,2.12,0,0,0-.54,1.43Z"/><path class="cls-3" d="M419.51,523.88a9.56,9.56,0,0,1-3.15-.48,6.84,6.84,0,0,1-2.35-1.35,5.77,5.77,0,0,1-1.47-2,6.5,6.5,0,0,1-.5-2.54V505.34c0-.54.3-.81.89-.81h2.36a2.85,2.85,0,0,1,.62.08,2.2,2.2,0,0,1,.63.26,2,2,0,0,1,.48.49,1.25,1.25,0,0,1,.2.7v11.23a2,2,0,0,0,.56,1.41,2.27,2.27,0,0,0,1.73.6,2.3,2.3,0,0,0,1.76-.6,2,2,0,0,0,.56-1.41,36.69,36.69,0,0,0-.72-7.44,58.19,58.19,0,0,0-1.82-6.72q-1.11-3.25-2.37-6.42t-2.37-6.58a61.57,61.57,0,0,1-1.83-7.17,43.32,43.32,0,0,1-.72-8.16,6.22,6.22,0,0,1,.52-2.53,6.07,6.07,0,0,1,1.49-2,7,7,0,0,1,2.35-1.36,8.79,8.79,0,0,1,3.07-.51,9.13,9.13,0,0,1,3.13.51,7.48,7.48,0,0,1,2.4,1.36,5.8,5.8,0,0,1,1.53,2,6.06,6.06,0,0,1,.52,2.53v12.52c0,.53-.31.8-.92.8h-2.33a2.64,2.64,0,0,1-1.26-.36,1.27,1.27,0,0,1-.67-1.21V475a2.05,2.05,0,0,0-.56-1.43,2.27,2.27,0,0,0-1.76-.62,2.23,2.23,0,0,0-1.77.64,2.12,2.12,0,0,0-.56,1.41,32.57,32.57,0,0,0,.72,7,56.76,56.76,0,0,0,1.83,6.48c.73,2.13,1.52,4.25,2.37,6.38s1.63,4.36,2.36,6.68a60.8,60.8,0,0,1,1.83,7.41,47.2,47.2,0,0,1,.72,8.53,6.17,6.17,0,0,1-.52,2.54,5.82,5.82,0,0,1-1.49,2,6.88,6.88,0,0,1-2.36,1.35A9.65,9.65,0,0,1,419.51,523.88Z"/><path class="cls-3" d="M443.42,469.18c.62,0,.93.35.93,1V471a2.82,2.82,0,0,1-.62,2,2.3,2.3,0,0,1-1.75.66h-2.37V522a1,1,0,0,1-1.12,1.12h-3a1.08,1.08,0,0,1-.84-.26,1.25,1.25,0,0,1-.24-.86V473.63h-2.57c-1.58,0-2.37-.88-2.37-2.65v-.76c0-.69.31-1,.92-1Z"/><path class="cls-3" d="M458.91,522.19a1.09,1.09,0,0,1-.1.72c-.09.14-.32.2-.7.2h-2.45a2,2,0,0,1-1.38-.52,1.86,1.86,0,0,1-.62-1.4l-.48-7.31h-4.5l-.48,7.31a1.91,1.91,0,0,1-2,1.92h-2.44c-.41,0-.65-.06-.75-.2a1.24,1.24,0,0,1-.1-.72l4.42-51.89a1.05,1.05,0,0,1,.48-.92,2.51,2.51,0,0,1,1.08-.2H453a2.33,2.33,0,0,1,1.08.2,1.11,1.11,0,0,1,.44.92Zm-10-12.6H453l-2.05-32.83Z"/><path class="cls-3" d="M485.72,522.15a1.08,1.08,0,0,1-.2.76,1.05,1.05,0,0,1-.76.2h-2.21a2,2,0,0,1-1.4-.56,1.84,1.84,0,0,1-.61-1.4V502.81a2.05,2.05,0,0,0-.56-1.43,2.27,2.27,0,0,0-1.76-.62h-2.29v20.39a1.81,1.81,0,0,1-.62,1.4,2.05,2.05,0,0,1-1.43.56h-2.2a1,1,0,0,1-.75-.2,1.15,1.15,0,0,1-.18-.76v-52a1.17,1.17,0,0,1,.18-.76,1,1,0,0,1,.75-.2h6.62a9.15,9.15,0,0,1,3.31.54,6.88,6.88,0,0,1,2.31,1.44,5.82,5.82,0,0,1,1.36,2.07,6.85,6.85,0,0,1,.44,2.41V493.5a5.69,5.69,0,0,1-2.53,5.21,4.07,4.07,0,0,1,2.53,4.06Zm-9.79-48.52v22.68h2.49a1.93,1.93,0,0,0,1-.26,2,2,0,0,0,.66-.69,2.82,2.82,0,0,0,.34-.92,5,5,0,0,0,.1-1V475.68a2.05,2.05,0,0,0-.56-1.43,2.27,2.27,0,0,0-1.76-.62Z"/><path class="cls-3" d="M494.79,522a1,1,0,0,1-1.16,1.16h-2.89a1,1,0,0,1-1.13-1.16V471.18a1.83,1.83,0,0,1,.63-1.46,2.08,2.08,0,0,1,1.42-.54h2.21a1,1,0,0,1,.76.2,1.16,1.16,0,0,1,.16.72Z"/><path class="cls-3" d="M506.35,468.37a8.78,8.78,0,0,1,3.09.51,6.92,6.92,0,0,1,2.33,1.38,6.22,6.22,0,0,1,1.48,2.05,5.94,5.94,0,0,1,.52,2.49v17.09c0,.54-.29.8-.88.8h-2.33a2.64,2.64,0,0,1-1.26-.36,1.22,1.22,0,0,1-.66-1.16V475a2,2,0,0,0-.61-1.43,2.36,2.36,0,0,0-1.76-.62,2.24,2.24,0,0,0-1.73.62A2.1,2.1,0,0,0,504,475v42.29a2,2,0,0,0,.56,1.41,2.34,2.34,0,0,0,1.77.6,2.1,2.1,0,0,0,1.78-.66,2.19,2.19,0,0,0,.51-1.35V501.16a1.2,1.2,0,0,1,.2-.7,1.57,1.57,0,0,1,.48-.48,1.81,1.81,0,0,1,.62-.26,2.4,2.4,0,0,1,.62-.08h2.33c.61,0,.92.25.92.76v17.06a6.17,6.17,0,0,1-.52,2.54,5.85,5.85,0,0,1-1.5,2,7.23,7.23,0,0,1-2.39,1.35,9.65,9.65,0,0,1-3.13.48,9.28,9.28,0,0,1-3.09-.48,6.93,6.93,0,0,1-2.33-1.35,5.8,5.8,0,0,1-1.48-2,6.18,6.18,0,0,1-.53-2.54V474.8a6.07,6.07,0,0,1,.53-2.53,5.71,5.71,0,0,1,1.5-2,7.32,7.32,0,0,1,2.39-1.36A9.09,9.09,0,0,1,506.35,468.37Z"/><path class="cls-3" d="M532.39,522.19a1.09,1.09,0,0,1-.1.72c-.09.14-.33.2-.7.2h-2.45a2,2,0,0,1-1.38-.52,1.86,1.86,0,0,1-.62-1.4l-.49-7.31h-4.49l-.48,7.31a1.91,1.91,0,0,1-2,1.92h-2.45c-.4,0-.65-.06-.74-.2a1.16,1.16,0,0,1-.1-.72l4.41-51.89a1.08,1.08,0,0,1,.49-.92,2.45,2.45,0,0,1,1.08-.2h4.05a2.38,2.38,0,0,1,1.09.2c.24.13.38.44.44.92Zm-10-12.6h4.09l-2-32.83Z"/></g></g></svg>